<svg width="2960" height="673" viewBox="0 0 2960 673" fill="none" xmlns="http://www.w3.org/2000/svg">
<path d="M446 59.6721C446 26.8853 473.333 0 507.333 0C540.667 0 568 26.8853 568 59.6721C568 93.1148 540.667 120 507.333 120C473.333 120 446 93.1148 446 59.6721Z" fill="black"/>
<path d="M617.737 144.103L617.237 531H723.629L724.129 312.487C724.129 260.676 746.565 226.856 788.543 226.856C823.284 226.856 844.272 250.602 844.272 295.936L843.772 531H950.165L950.665 312.487C950.665 256.359 970.93 226.856 1012.91 226.856C1050.54 226.856 1070.81 250.602 1070.81 295.936L1070.31 531H1176.7L1177.2 280.105C1177.2 182.961 1128.71 129.711 1043.31 129.711C992.642 129.711 952.112 149.86 929.676 188.718C907.963 151.299 871.775 129.711 824.007 129.711C791.438 129.711 749.461 139.786 724.129 187.998V144.103H617.737Z" fill="black"/>
<path d="M453.261 531L453.761 144.103H560.153L559.653 531H453.261Z" fill="black"/>
<path fill-rule="evenodd" clip-rule="evenodd" d="M1215.28 331.196C1215.28 445.61 1296.34 529.082 1420.1 529.082C1491.75 529.082 1556.17 496.701 1594.52 445.61L1509.68 396.5C1491.74 425.405 1466.94 442.732 1423.72 442.732C1375.23 442.732 1334.7 420.425 1327.46 362.858H1598.87C1601.04 347.027 1601.76 336.233 1601.76 323.28C1601.76 208.866 1526.49 129.711 1411.41 129.711C1298.51 129.711 1215.28 213.183 1215.28 331.196ZM1488.13 290.899H1328.18C1336.87 240.528 1372.33 216.062 1412.86 216.062C1459.18 216.062 1486.68 247.004 1488.13 290.899Z" fill="black"/>
<path d="M1644.91 531L1645.41 144.103H1751.81V189.437C1775.69 149.86 1813.32 129.711 1865.44 129.711C1955.18 129.711 2002.22 189.437 2002.22 303.852L2001.72 531H1895.33L1895.83 318.963C1895.83 253.48 1877.02 227.575 1829.97 227.575C1778.58 227.575 1751.81 263.555 1751.81 321.841L1751.31 531H1644.91Z" fill="black"/>
<path fill-rule="evenodd" clip-rule="evenodd" d="M0 118.321L84.1513 167.915C121.525 142.176 166.119 129.352 211.396 129.352C330.115 129.352 413.441 214.866 413.441 330.015C413.441 445.879 330.119 531.397 211.396 531.397C173.894 531.397 138.461 521.711 108.477 505.035V673H0V118.321ZM204.203 230.664C146.702 230.664 104.88 272.497 104.88 330.015C104.88 387.533 146.702 429.366 204.203 429.366C261.704 429.366 303.526 387.533 303.526 330.015C303.526 272.497 261.704 230.664 204.203 230.664Z" fill="black"/>
<path d="M2164.97 15.9455V144.816H2268.53V236.048H2164.97V384.309C2164.97 403.673 2168.03 415.784 2175.02 423.108C2181.98 430.411 2193.16 433.294 2210.34 433.294C2223.9 433.294 2248.96 430.429 2263.96 426.856L2265.65 426.454V521.186L2264.81 521.54C2244.44 530.119 2217.11 531 2195.24 531C2150.12 531 2115.38 521.257 2091.92 499.704C2068.43 478.13 2056.5 444.961 2056.5 398.697V78.8213L2164.97 15.9455Z" fill="black"/>
<path fill-rule="evenodd" clip-rule="evenodd" d="M2509.51 531C2390.63 531 2300.01 445.53 2300.01 330.362C2300.01 214.47 2390.63 129 2509.51 129C2628.4 129 2719.01 214.47 2719.01 330.362C2719.01 445.53 2628.4 531 2509.51 531ZM2509.32 230.664C2451.82 230.664 2410 272.497 2410 330.015C2410 387.533 2451.82 429.366 2509.32 429.366C2566.82 429.366 2608.65 387.533 2608.65 330.015C2608.65 272.497 2566.82 230.664 2509.32 230.664Z" fill="black"/>
<path d="M2831.58 27.4127L2860 11L2888.42 27.4127V76.9571L2881.98 99.4207L2910.13 64.7253L2931.58 52.3392L2960 68.75L2960 101.574L2917.1 126.346L2894.43 131.997L2938.55 139.04L2960 151.427L2960 184.25L2931.58 200.661L2888.69 175.889L2872.46 159.076L2888.42 200.815V225.587L2860 242L2831.58 225.587V176.043L2838.02 153.579L2809.87 188.275L2788.42 200.661L2760 184.25L2760 151.426L2802.9 126.654L2825.57 121.003L2781.45 113.96L2760 101.573L2760 68.75L2788.42 52.3391L2831.32 77.1114L2847.54 93.9237L2831.58 52.1849V27.4127Z" fill="black"/>
</svg>
