<?xml version="1.0" encoding="utf-8"?>
<!-- Generator: Adobe Illustrator 19.0.0, SVG Export Plug-In . SVG Version: 6.00 Build 0)  -->
<svg version="1.1" id="Layer_1" xmlns="http://www.w3.org/2000/svg" xmlns:xlink="http://www.w3.org/1999/xlink" x="0px" y="0px"
	 viewBox="0 0 900 502.9" style="enable-background:new 0 0 900 502.9;" xml:space="preserve">
<style type="text/css">
	.st0{fill:#F8BF68;}
	.st1{fill:#FFFFFF;}
</style>
<g>
	<path class="st0" d="M612.1,267.8c-46.1-5.6-56.7,32.8-107.3,44c0,0-63.1,1.7-52.8,21.2c2.7,5.1,10.7,9.1,17.2,10.4
		c-13.7,1.9-23.8,3.8-23.8,3.8c-73.5-39.6-89.2-19.4-89.2-19.4l91.7,42.2c0,0,119.6-4,121.9-4.1c2.4-0.2,39.1-53.7,39.1-53.7
		l235.6,85.2l16.4-58.9C860.8,338.5,626,269.5,612.1,267.8z"/>
	<path class="st0" d="M340.7,328c10.6-7.5,39-11.4,89.5,27.3c0,0,40.1-6.2,76.8,11.6c0,0,95.4-91.9,120.8-93.3
		c25.4-1.4,233,64.9,233,64.9l15.8,73.7l-68.4,14.7L650.3,341c0,0-98.4,66.2-112.3,75.4c-17.9,11.9-74.5-26.1-111.1-32.4
		c-12.5-2.1-68.1-35.6-85.7-46.3C337.6,335.6,337.3,330.4,340.7,328z"/>
	<g>
		<polygon class="st1" points="659.5,395.4 697.9,286.6 879,339.9 901.8,424.1 802,444.3 		"/>
		<polygon class="st0" points="675,409.4 718.1,287.2 901.8,346.3 901.8,444.3 901.8,502.9 		"/>
	</g>
	<path class="st0" d="M310.2,90.2c0,0,76.7,25,109.6-13.8l43.7,5.3c0,0,25.4,65,51.2,57.2c11.1-3.4-2.4-16.6-32.8-73.9
		c0,0-41.8-30.7-108.9-33.3L310.2,90.2z"/>
	<path class="st0" d="M1.8,184l171-110.1c4.1-2.6,8-5.6,11.7-8.8c7.9-6.8,17.7-11.9,28.5-14.9c49.1-13.7,173.6-45.8,188.9-46
		c7.6-0.1,59.5,55.9,72.5,71.9c2.3,2.9,3.9,6.1,4.5,9.6c3,17.3,12.2,72,8,75.8c-5,4.6-26.9,6.2-41.9-71.8l-54.3-19.9l-16.2,24.8
		c0,0-59.3,56.1-135.1,22.7L1.8,341.5V184z"/>
	<path class="st0" d="M178.3,70.7c0,0,23,36.2,58.7,48.5l-17.3,17.6l-48-59.8L178.3,70.7z"/>
	<polygon class="st1" points="253.3,175.9 177.4,70 19.5,177.6 22.3,295.3 113.7,283 	"/>
	<polygon class="st0" points="253.3,175.9 159,82.9 10.7,296.8 113.7,283 	"/>
	<polygon class="st0" points="243.2,196.3 158,77.4 1.8,176.4 1.8,378.9 	"/>
	<path class="st0" d="M224.7,114c0,0,44.7,16.3,97.4,18.8c29.7,1.4,58.8,8.6,85.6,20.5c6.6,3,13,5.8,18.5,8.3
		c23.9,10.8,39,31.3,49.2,13.5c10.2-17.8-26.4-42.2-57.9-53.6c-31.5-11.4-48.9-60.9-48.9-60.9L224.7,114z"/>
</g>
<g>
	<path class="st0" d="M472,289.6l-15-4.7l2.1-6.6l1.4,0.4c1.2,0.4,2.4-0.3,2.7-1.4l0.8-2.5c0.4-1.2-0.3-2.4-1.4-2.7l-1.4-0.4
		l14.4-46.2c-2.7-1.7-5.1-3.9-6.9-6.6c-3,1.1-6.2,1.6-9.4,1.4l-14.4,46.2l-1.4-0.4c-1.2-0.4-2.4,0.3-2.7,1.4l-0.8,2.5
		c-0.4,1.2,0.3,2.4,1.4,2.7l1.4,0.4L431.5,309c-0.4,1.2,0.3,2.4,1.4,2.7l12.2,3.8c1.2,0.4,2.4-0.3,2.7-1.4l3.1-10l15,4.7
		c1.2,0.4,2.4-0.3,2.7-1.4l0.7-2.2c0.4-1.2-0.3-2.4-1.4-2.7l-4.7-1.5l2-6.5l4.7,1.5c1.2,0.4,2.4-0.3,2.7-1.4l0.7-2.2
		C473.8,291.1,473.1,289.9,472,289.6z"/>
	<path class="st0" d="M497.1,192.8c1.1-1.6,1.9-3.3,2.5-5.3c3.3-10.6-2.6-22-13.3-25.3c-10.6-3.3-22,2.6-25.3,13.3
		c-0.6,1.9-0.9,3.9-0.9,5.8c-9.1-0.7-17.9,5-20.7,14.1c-3.3,10.6,2.6,22,13.3,25.3c2,0.6,4.1,0.9,6.2,0.9c3.5,0,6.8-1,9.8-2.6
		c1.5,3.1,3.7,5.7,6.6,7.7c1.7,1.2,3.5,2.1,5.6,2.8c10.6,3.3,22-2.6,25.3-13.3C509,207.1,505,197.4,497.1,192.8z M483.1,172.6
		c4.9,1.5,7.6,6.7,6.1,11.6c-0.9,3-3.3,5.2-6.1,6.1c-0.5,0.1-0.9,0.2-1.3,0.3c-1.4,0.2-2.8,0.1-4.2-0.3c-1.4-0.4-2.6-1.2-3.6-2.1
		c-0.3-0.3-0.6-0.7-0.9-1c-1.8-2.3-2.5-5.5-1.6-8.5C473,173.8,478.2,171.1,483.1,172.6z M455.9,210.2c-4.9-1.5-7.6-6.7-6.1-11.6
		c1.5-4.9,6.7-7.6,11.6-6.1c1.4,0.4,2.6,1.2,3.6,2.1c0.3,0.3,0.6,0.7,0.9,1c1.8,2.3,2.5,5.5,1.6,8.5
		C466,209,460.8,211.7,455.9,210.2z M484.1,219c-4.9-1.5-7.6-6.7-6.1-11.6c0.9-3,3.3-5.2,6.1-6.1c0.5-0.1,0.9-0.2,1.3-0.3
		c1.4-0.2,2.8-0.1,4.2,0.3c4.9,1.5,7.6,6.7,6.1,11.6C494.1,217.8,488.9,220.5,484.1,219z"/>
</g>
</svg>
