<?xml version="1.0" encoding="utf-8"?>
<!-- Generator: Adobe Illustrator 19.0.0, SVG Export Plug-In . SVG Version: 6.00 Build 0)  -->
<svg version="1.1" xmlns="http://www.w3.org/2000/svg" xmlns:xlink="http://www.w3.org/1999/xlink" x="0px" y="0px"
	 viewBox="0 0 800 800" style="enable-background:new 0 0 800 800;" xml:space="preserve">
<style type="text/css">
	.st0{fill:#FFFFFF;}
	.st1{fill:#210C03;}
	.st2{fill:#39B4BC;}
	.st3{fill:#2B9799;}
	.st4{fill:#D9D9D8;}
	.st5{fill:#BABABA;}
	.st6{fill:#333333;}
	.st7{fill:#D19066;}
	.st8{fill:#1C1C1C;}
	.st9{fill:#F8BC91;}
	.st10{fill:#AA551B;}
	.st11{fill:#9E4E18;}
	.st12{fill:#1E1C3C;}
	.st13{fill:#EC6E24;}
	.st14{fill:#C58251;}
	.st15{fill:#964D15;}
	.st16{fill:#723710;}
	.st17{fill:#632B0B;}
	.st18{fill:#271A10;}
	.st19{fill:#207F7F;}
	.st20{fill:#3B1C0A;}
	.st21{fill:#C4C4C4;}
	.st22{fill:#969595;}
	.st23{fill:#BBB101;}
	.st24{fill:#8E8406;}
	.st25{fill:#262626;}
	.st26{fill:#5E0707;}
	.st27{fill:#F9BE82;}
	.st28{fill:#B76B18;}
	.st29{fill:#7F0A0A;}
	.st30{fill:#995314;}
	.st31{fill:#ADACAC;}
	.st32{fill:#C98F5B;}
	.st33{fill:#29235C;}
	.st34{fill:#EC6E25;}
	.st35{fill:#CC710D;}
	.st36{fill:#F7941D;}
	.st37{fill:#424242;}
	.st38{fill:none;stroke:#F7941D;stroke-miterlimit:10;}
	.st39{fill:#FFBB00;}
	.st40{fill:#E5A505;}
</style>
<g id="BACKGROUND">
	<rect class="st0" width="800" height="800"/>
</g>
<g id="OBJECTS">
	<g>
		<g>
			<path class="st1" d="M398.6,711.9v29.6h80.3c0,0-3.3-29.6-26.6-29.6C429.1,711.9,398.6,711.9,398.6,711.9z"/>
		</g>
		<g>
			<rect x="398.6" y="507.4" class="st2" width="48.5" height="204.6"/>
		</g>
		<g>
			<path class="st3" d="M415,711.9h-16.4v-193h0.7c8.7,0,15.7,7.1,15.7,15.9V711.9z"/>
		</g>
		<g>
			<rect x="332.5" y="463.4" class="st2" width="114.6" height="55.5"/>
		</g>
		<g>
			<rect x="332.5" y="507.4" class="st2" width="58.6" height="204.6"/>
		</g>
		<g>
			<rect x="398.6" y="507.4" class="st3" width="48.5" height="43.2"/>
		</g>
		<g>
			<rect x="332.5" y="487.6" class="st3" width="114.6" height="31.3"/>
		</g>
		<g>
			<rect x="332.5" y="507.4" class="st3" width="58.6" height="43.2"/>
		</g>
		<g>
			<rect x="332.5" y="461" class="st3" width="16.4" height="251"/>
		</g>
		<g>
			<path class="st4" d="M338.1,469.7l43.8,14c2.3,0.7,4.8-0.3,5.8-2.4l7.6-16.1l8.7,16.1c1.1,2.1,3.7,3,6,2.1l37.6-14.6v-12.3H338.1
				V469.7z"/>
		</g>
		<g>
			<polygon class="st5" points="391.9,472.5 395.3,465.2 399.3,472.5 438.2,472.5 447.7,468.8 447.7,456.5 338.1,456.5 338.1,469.7 
				346.8,472.5 			"/>
		</g>
		<g>
			<rect x="332.5" y="403.3" class="st6" width="114.6" height="64.3"/>
		</g>
		<g>
			<path class="st7" d="M333.8,517.8l5.9,8.1l13.9-25.7c0,0-4.1-4.9-8.4-4.9S333.8,517.8,333.8,517.8z"/>
		</g>
		<g>
			<path class="st6" d="M394.8,242.9c-56.9,0-103.1,36.8-103.1,82.2v90.5v5.6c0,5.5,1.1,10.9,3.3,16l35,82.5c1,2.5,4.4,2.6,5.7,0.3
				l13.1-24.6c1.6-3,1.9-6.7,0.7-9.9l-19.6-55.8h139.8c13.3,0,24.1-10.9,24.1-24.4v-80C493.7,279.7,451.7,242.9,394.8,242.9z"/>
		</g>
		<g>
			<g>
				<path class="st8" d="M448.7,442.4l-2.1-37.2h-38.8v2.8l-3.3-0.5c-1.2-1.4-2.6-2.6-4.1-3.5l0.7-5.8c0.2-1.4-0.9-2.7-2.3-2.7
					l-28.7-1.1c-1.4-0.1-2.6,1.1-2.5,2.6l0.2,6.3c-2.7,0.8-4.8,1.9-5.7,3.4c-4.8,7.8,2.1,8.9,2.1,8.9s-6.7,5.9,3.8,11.2
					c0,0-3.7,3.8,1.1,6.7l0,0.6c-0.5,0.7-1.2,2.4,0.1,3.7l0.1,3.1c0,1.3,1.1,2.3,2.3,2.4l21.9,0.9c1.3,0,2.4-0.9,2.5-2.2l0.1-0.9
					c4.3-1.4,9-3.6,11.7-2.5v4H448.7z"/>
			</g>
			<g>
				<path class="st8" d="M375.6,394.1l31.3,1.2c1.6,0.1,3-1.2,3.1-2.9l0-0.9c0.1-1.5-0.9-2.8-2.4-3l-31.1-6.3
					c-1.8-0.4-3.4,1-3.5,2.8l-0.2,6C372.7,392.7,374,394.1,375.6,394.1z"/>
			</g>
		</g>
		<g>
			<path class="st8" d="M300.8,437.3c-2.1-5.1-3.3-10.5-3.3-16v-5.6v-90.5c0-44.6,44.6-80.9,100.1-82.2c-1,0-2-0.1-2.9-0.1
				c-56.9,0-103.1,36.8-103.1,82.2v90.5v5.6c0,5.5,1.1,10.9,3.3,16l35,82.5c1,2.5,4.4,2.6,5.7,0.3l0.2-0.3L300.8,437.3z"/>
		</g>
		<g>
			<path class="st8" d="M394.8,242.9c-21.1,0-40.7,5.1-57,13.7c8.4,15.1,23.4,26.1,49.9,27.2c30.7,1.3,47.7-11.9,57.1-30.1
				C430.3,246.8,413.3,242.9,394.8,242.9z"/>
		</g>
		<g>
			<g>
				<g>
					<g>
						<path class="st9" d="M444.2,116.7c0.6,0,1.2-0.1,1.8,0c10.7,0.6,18.6,13.6,17.7,28.9c-0.9,15.3-10.3,27.2-20.9,26.6
							c-0.6,0-1.2-0.1-1.8-0.2L444.2,116.7z"/>
					</g>
				</g>
			</g>
		</g>
		<g>
			<g>
				<path class="st4" d="M391.1,233.4c-16.9,0-30.5,12.5-30.5,27.9v7.9c0,2.5,2.6,4,4.7,2.9l25.8-13.7l25.8,13.7
					c2.2,1.1,4.7-0.4,4.7-2.9v-7.9C421.7,245.9,408,233.4,391.1,233.4z"/>
			</g>
		</g>
		<g>
			<g>
				<path class="st8" d="M335.2,444.8V329.2c0-1.5-1.2-2.7-2.7-2.7c-1.5,0-2.7,1.2-2.7,2.7v100.4L335.2,444.8z"/>
			</g>
		</g>
		<g>
			<g>
				<path class="st8" d="M449.8,429.6V329.2c0-1.5-1.2-2.7-2.7-2.7c-1.5,0-2.7,1.2-2.7,2.7v100.4H449.8z"/>
			</g>
		</g>
		<g>
			<g>
				<path class="st8" d="M444.5,366.4v100.4c0,1.5,1.2,2.7,2.7,2.7s2.7-1.2,2.7-2.7V366.4H444.5z"/>
			</g>
		</g>
		<g>
			<g>
				<path class="st7" d="M371.8,213.7v33.8c0,3.1,9.6,5.6,21.4,5.6c11.8,0,21.4-2.5,21.4-5.6v-33.8H371.8z"/>
			</g>
		</g>
		<g>
			<g>
				<path class="st7" d="M371.8,227.6c5.7,2.4,11.7,3.9,17.9,4.1c8.9,0.4,17.3-1.7,25-5.7v-12.3h-42.9V227.6z"/>
			</g>
		</g>
		<g>
			<g>
				<g>
					<g>
						<path class="st9" d="M330.7,124.5c-0.6,0-1.2,0.1-1.8,0.2c-10.5,2.1-16.6,16-13.7,31c2.9,15.1,13.8,25.6,24.3,23.5
							c0.6-0.1,1.2-0.3,1.8-0.5L330.7,124.5z"/>
					</g>
				</g>
			</g>
		</g>
		<g>
			<g>
				<path class="st7" d="M339.4,179.2c0.6-0.1,1.2-0.3,1.8-0.5l-10.5-54.3c-0.6,0-1.2,0.1-1.8,0.2c-2.3,0.5-4.4,1.5-6.3,3
					c0.2,0.7,0.4,1.4,0.6,2.1c4.8,17.1,5.9,27.1,6.8,32.5c0.7,6.2,1.7,11.7,2.8,16.7C335,179.5,337.2,179.7,339.4,179.2z"/>
			</g>
		</g>
		<g>
			<g>
				<g>
					<g>
						<path class="st9" d="M329.9,130c-4.2-63.7,23.3-72.9,56.5-73.8c33.2-0.9,59.3,2.2,63.9,70.6c2.3,35.3,2.4,92.3-57.8,93.9
							C332.3,222.2,332.2,165.2,329.9,130z"/>
					</g>
				</g>
			</g>
		</g>
		<g>
			<path class="st7" d="M386.4,56.2c-16.7,0.4-32,3-42.5,13.6c-0.5,6.2,1.9,13.2,10.6,19.8c23.2,17.5,40.8-0.5,59.6,1.6
				c15.9,1.8,25.5-4.9,28-6.9C431,57,410.6,55.6,386.4,56.2z"/>
		</g>
		<g>
			<path class="st10" d="M386.4,56.2c-33.2,0.9-60.7,10.1-56.5,73.8c0.6,8.5,1,18.2,2.2,28.1l2.6,0.6c0,0-8.3-69.3,52.1-80.5
				c68.2-12.6,60.9,77.8,60.9,77.8l3.1-1.8c0.4-9.6,0-19.1-0.5-27.3C445.7,58.4,419.6,55.3,386.4,56.2z"/>
		</g>
		<g>
			<path class="st11" d="M386.4,56.2c-16.7,0.4-32,3-42.5,13.6c-0.5,6.2,1.9,13.2,10.6,19.8c1,0.7,1.9,1.4,2.8,2
				c7.3-6.2,16.9-11,29.5-13.4c20.9-3.9,34.6,1.9,43.7,11.8c6.1-1.7,10-4.5,11.5-5.7C431,57,410.6,55.6,386.4,56.2z"/>
		</g>
		<g>
			<g>
				<path class="st7" d="M352.2,118.4c0,0,8.2-14.9,27.7-10.1c0,0-9.7-7.1-17.5-4.2C354.7,106.9,352.2,118.4,352.2,118.4z"/>
			</g>
		</g>
		<g>
			<g>
				<path class="st7" d="M402.4,110c0,0,9.5-14,28.5-7.4c0,0-9-7.9-17-5.9C405.9,98.8,402.4,110,402.4,110z"/>
			</g>
		</g>
		<g>
			<g>
				<g>
					<g>
						<g>
							<path class="st7" d="M380.5,132.3c0.1,5.3-2.9,9.7-6.8,9.8c-3.9,0.1-7.2-4.1-7.3-9.5c-0.1-5.3,2.9-9.7,6.8-9.8
								C377.1,122.7,380.4,127,380.5,132.3z"/>
						</g>
					</g>
				</g>
			</g>
			<g>
				<g>
					<g>
						<g>
							<path class="st12" d="M380.5,130c0.1,5.3-2.9,9.7-6.8,9.8c-3.9,0.1-7.2-4.1-7.3-9.5c-0.1-5.3,2.9-9.7,6.8-9.8
								C377,120.5,380.3,124.7,380.5,130z"/>
						</g>
					</g>
				</g>
			</g>
			<g>
				<g>
					<g>
						<g>
							
								<ellipse transform="matrix(0.9996 -2.667057e-02 2.667057e-02 0.9996 -3.2359 10.0487)" class="st0" cx="375.1" cy="126.3" rx="2.8" ry="2.9"/>
						</g>
					</g>
				</g>
			</g>
		</g>
		<g>
			<g>
				<g>
					<g>
						<g>
							<path class="st7" d="M430.3,128.9c0.1,5.3-2.9,9.7-6.8,9.8c-3.9,0.1-7.2-4.1-7.3-9.5c-0.1-5.3,2.9-9.7,6.8-9.8
								C426.9,119.3,430.2,123.6,430.3,128.9z"/>
						</g>
					</g>
				</g>
			</g>
			<g>
				<g>
					<g>
						<g>
							<path class="st12" d="M430.3,126.6c0.1,5.3-2.9,9.7-6.8,9.8c-3.9,0.1-7.2-4.1-7.3-9.5c-0.1-5.3,2.9-9.7,6.8-9.8
								C426.8,117.1,430.1,121.3,430.3,126.6z"/>
						</g>
					</g>
				</g>
			</g>
			<g>
				<g>
					<g>
						<g>
							
								<ellipse transform="matrix(0.9996 -2.666993e-02 2.666993e-02 0.9996 -3.1278 11.3752)" class="st0" cx="424.9" cy="122.9" rx="2.8" ry="2.9"/>
						</g>
					</g>
				</g>
			</g>
		</g>
		<g>
			<g>
				<g>
					<g>
						<path class="st13" d="M404.3,143.3c-3.7-0.4-6.5-15.1-7.4-22.4l-5.6,0.4c0.2,8.7,1.9,37.5,5.6,40.6
							C408,171,422.6,145.2,404.3,143.3z"/>
					</g>
				</g>
			</g>
		</g>
		<g>
			<g>
				<path class="st14" d="M354.7,113.7"/>
			</g>
		</g>
		<g>
			<g>
				<g>
					<path class="st15" d="M380.4,109.8c-0.5,0.2-1.1,0.1-1.5-0.2c-5.8-4.3-10.9-5.7-15.2-4.1c0,0,0,0,0,0
						c-7.4,2.7-10.2,13.3-10.2,13.4c-0.2,0.9-1.1,1.4-2,1.2c-0.9-0.2-1.4-1.1-1.2-2c0.1-0.5,3.3-12.4,12.3-15.7c0,0,0,0,0,0
						c5.3-1.9,11.5-0.4,18.2,4.6c0.7,0.5,0.9,1.6,0.4,2.3C380.9,109.5,380.7,109.7,380.4,109.8z"/>
				</g>
			</g>
		</g>
		<g>
			<g>
				<g>
					<path class="st15" d="M431.5,104.1c-0.5,0.1-1.1,0-1.5-0.4c-5.4-4.8-10.3-6.7-14.7-5.6c0,0,0,0,0,0c-7.6,2-11.4,12.3-11.4,12.4
						c-0.3,0.9-1.3,1.3-2.1,1c-0.8-0.3-1.3-1.3-1-2.1c0.2-0.5,4.4-12.1,13.7-14.5c0,0,0,0,0,0c5.5-1.4,11.5,0.7,17.7,6.3
						c0.7,0.6,0.7,1.7,0.1,2.3C432.1,103.9,431.8,104,431.5,104.1z"/>
				</g>
			</g>
		</g>
		<path class="st16" d="M451,147.7c0,0-8.9,25.1-49.6,29c-38.7,3.7-69.9-24.5-69.9-24.5s-9.1,96.2,69.2,96.2
			C479,248.3,451,147.7,451,147.7z"/>
		<g>
			<path class="st17" d="M336.6,156.2c-3.3-2.4-5.1-4.1-5.1-4.1s-6.4,67.9,38,89.6C339.5,220.3,336.4,175.3,336.6,156.2z"/>
		</g>
		<g>
			<path class="st18" d="M380.5,182.2c0,0,23,12.6,41.2-2.8l-20.9-2.3L380.5,182.2z"/>
		</g>
		<g>
			<path class="st17" d="M350.1,167.4c0,0,29.1-15.2,52.5,2.7c0,0,16.3-19.1,40.3-6.8c0,0-11.8,24.8-40.5,15.7
				C402.4,179.1,373.6,193.6,350.1,167.4z"/>
		</g>
		<g>
			<path class="st17" d="M400.2,195.1c-8.6,0-15.1-2.8-15.6-3c-0.7-0.3-1-1.2-0.7-1.9c0.3-0.7,1.1-1.1,1.9-0.7
				c0.2,0.1,17,7.3,31.8-2.2c0.7-0.4,1.5-0.2,2,0.5c0.4,0.7,0.2,1.6-0.4,2C412.6,193.9,405.9,195.1,400.2,195.1z"/>
		</g>
		<g>
			<path class="st16" d="M364.2,45.5c-7.3,2.4-13.4,8-16,15.4c-2.6,7.3-2.2,16.8,9.3,25.6c23.2,17.5,40.8-0.5,59.6,1.6
				c18.7,2.1,28.7-7.5,28.7-7.5S435.1,21.9,364.2,45.5z"/>
		</g>
		<g>
			<path class="st17" d="M362.2,68.7c-5.1-11.8,5.5-24.3,5.5-24.3c-1.1,0.3-2.3,0.7-3.5,1.1c-7.3,2.4-13.4,8-16,15.4
				c-2.6,7.3-2.2,16.8,9.3,25.6c14.7,11.1,27.2,7.9,39.2,4.6C381.5,90.9,367.5,81,362.2,68.7z"/>
		</g>
		<g>
			<g>
				<path class="st8" d="M322.5,286c-1,0-1.9-0.5-2.4-1.4c-2.5-4.2-4.6-5.7-4.7-5.8c-1.3-0.9-1.6-2.7-0.7-4c0.9-1.3,2.6-1.6,3.9-0.7
					c0.3,0.2,3,2.2,6.2,7.4c0.8,1.4,0.4,3.1-0.9,4C323.6,285.9,323.1,286,322.5,286z"/>
			</g>
			<g>
				<path class="st8" d="M331,311.5c-1.4,0-2.6-1-2.8-2.4c-0.7-4.6-1.7-8.9-2.9-12.7c-0.5-1.5,0.3-3.1,1.8-3.6
					c1.5-0.5,3.1,0.4,3.6,1.9c1.3,4.1,2.3,8.7,3.1,13.6c0.2,1.6-0.8,3-2.4,3.3C331.3,311.5,331.1,311.5,331,311.5z"/>
			</g>
			<g>
				<path class="st8" d="M332.5,333.6c-1.6,0-2.8-1.3-2.8-2.9c0-2.9-0.1-5.7-0.2-8.5c-0.1-1.6,1.1-2.9,2.7-3c1.6-0.1,2.9,1.1,3,2.7
					c0.1,2.8,0.2,5.8,0.2,8.8C335.4,332.3,334.1,333.6,332.5,333.6z"/>
			</g>
		</g>
		<g>
			<g>
				<path class="st8" d="M460.2,281.5c-0.6,0-1.2-0.2-1.7-0.6c-1.2-1-1.5-2.8-0.6-4c3.6-4.8,6.5-6.6,6.8-6.8c1.3-0.8,3.1-0.4,3.9,1
					c0.8,1.4,0.4,3.1-0.9,3.9c-0.1,0.1-2.4,1.6-5.2,5.4C461.9,281.1,461.1,281.5,460.2,281.5z"/>
			</g>
			<g>
				<path class="st8" d="M449.1,309.7c-0.2,0-0.3,0-0.5,0c-1.5-0.3-2.6-1.8-2.3-3.3c1-5.5,2.4-10.6,4.1-15.3
					c0.6-1.5,2.2-2.2,3.7-1.7c1.5,0.6,2.2,2.2,1.6,3.7c-1.6,4.3-2.9,9.1-3.8,14.3C451.7,308.8,450.5,309.7,449.1,309.7z"/>
			</g>
			<g>
				<path class="st8" d="M447.1,333.6c-1.6,0-2.8-1.3-2.8-2.9c0-3,0.1-5.9,0.2-8.8c0.1-1.6,1.4-2.8,3-2.7c1.6,0.1,2.8,1.4,2.7,3
					c-0.1,2.7-0.2,5.6-0.2,8.5C450,332.3,448.7,333.6,447.1,333.6z"/>
			</g>
		</g>
		<g>
			<path class="st9" d="M417.2,394.6c-2.8-3.4-6.8-5.5-11.2-5.7c-10.1-0.5-27.8-0.7-31.2,4.9c-4.8,7.8,2.1,8.9,2.1,8.9
				s-6.7,5.9,3.8,11.2c0,0-3.9,3.9,1.4,6.9c0,0-3.4,4.2,3,5.3c6.4,1.2,17.6,3.9,22.9,2.3s11.4-4.9,13.9-1.9s13-29.2,13-29.2
				L417.2,394.6z"/>
		</g>
		<g>
			<path class="st7" d="M417.2,394.6c-0.3-0.4-0.7-0.8-1-1.1v32.2c2.4-0.6,4.4-0.6,5.6,0.9c2.5,3,13-29.2,13-29.2L417.2,394.6z"/>
		</g>
		<g>
			<rect x="420.5" y="392.3" class="st6" width="50.9" height="37.2"/>
		</g>
		<g>
			<g>
				<path class="st8" d="M454.8,392.3h-31.5c-1.3,0-2.6,0.9-2.8,2.2c-0.3,1.7,1,3.2,2.6,3.2h31.7c1.5,0,2.7-1.2,2.7-2.7l0,0
					C457.5,393.5,456.3,392.3,454.8,392.3z"/>
			</g>
		</g>
		<g>
			<path class="st19" d="M358.4,498.7l-17.7,31.1c-0.7,1.2-2.2,1.6-3.3,0.9l-0.2-0.1c-1.2-0.7-1.5-2.2-0.9-3.3l17.7-31.1
				c0.7-1.2,2.2-1.6,3.3-0.9l0.2,0.1C358.7,496,359.1,497.5,358.4,498.7z"/>
		</g>
		<g>
			<path class="st20" d="M332.5,711.9v29.6h87.5c0,0-3.6-29.6-29-29.6C365.7,711.9,332.5,711.9,332.5,711.9z"/>
		</g>
		<g>
			<g>
				<g>
					<g>
						<path class="st21" d="M556,741.8c8.8-39,37.4-146.3,87.4-146.3c55.6,0,73.5,106.1,78.3,146.3h5.7
							c-2.2-18.9-7.1-50.9-17.2-80.9c-15.9-47.2-38.4-71.2-66.9-71.2c-55.3,0-84.8,113-93.3,152.1H556z"/>
					</g>
				</g>
				<g>
					<g>
						<path class="st21" d="M609.7,741.8c8.8-39,37.4-146.3,87.4-146.3c55.6,0,73.5,106.1,78.3,146.3h5.7
							c-2.2-18.9-7.1-50.9-17.2-80.9c-15.9-47.2-38.4-71.2-66.9-71.2c-55.3,0-84.8,113-93.3,152.1H609.7z"/>
					</g>
				</g>
				<g>
					<g>
						<path class="st22" d="M594.1,634.9c13.2-22.7,29.6-39.4,49.3-39.4c22.1,0,38.2,16.7,49.9,39.4h6.4
							c-14.8-30-33.7-45.2-56.3-45.2c-23,0-41.5,19.5-55.9,45.2H594.1z"/>
					</g>
				</g>
				<g>
					<g>
						<path class="st22" d="M647.8,634.9c13.2-22.7,29.6-39.4,49.3-39.4c22.1,0,38.2,16.7,49.9,39.4h6.4
							c-14.8-30-33.7-45.2-56.3-45.2c-23,0-41.5,19.5-55.9,45.2H647.8z"/>
					</g>
				</g>
			</g>
			<g>
				<path class="st23" d="M753.8,371h-105c-7.4,0-13.3,5.7-13.3,12.8c0.1,40.9-1,166.8-19.9,176.6C593,572,538.4,573,537.3,581.5
					c-1.1,8.5,4,27.7,73,27.7h49.6c0,0,88.6-12.9,98.5-112.4c6.3-62.8,8.1-96.4,8.7-112.7C767.3,376.9,761.3,371,753.8,371z"/>
			</g>
			<g>
				<path class="st24" d="M746.2,464.9c-0.6-23.6-2.7-65.3-10-93.9h-87.3c-7.4,0-13.3,5.7-13.3,12.8c0.1,40.9-1,166.8-19.9,176.6
					C593,572,538.4,573,537.3,581.5c-1,7.7,3.1,24.3,55.7,27.3c1-8.3,4.8-15.8,11.3-20.5l6.7-4.9c-1.9,8.2-0.6,16.9,3.2,24.3
					l0.7,1.6h45c0,0,4.4-0.6,11.2-2.7c1.4-7.4,5.1-14,10.9-18.3l0.6-0.4c16.1-11.8,26.2-30.2,27.7-50.1l0.2-0.1v-5.3v-29.5v-20h18.4
					C738.6,482.8,746.4,474.7,746.2,464.9z"/>
			</g>
			<g>
				<path class="st6" d="M573.5,713.4h35.8h8.2l-31.9-87.7c-6.7-14.4-3.2-31.5,8.1-39.8l62-45.5l17-4.6l-14.8-57.5L603.5,512
					l-60.6,43.9c-2.9,2.8-5.9,5.5-9.1,7.8c-12,8.3-15.7,26.6-7.9,41.6L573.5,713.4z"/>
			</g>
			<g>
				<path class="st25" d="M590.2,578c-1.3,4.1-1.8,8.5-1.6,12.8c1.5-1.9,3.1-3.5,5-4.9l62-45.5l17-4.6l-7.7-30
					c-13.7,3-28.1,6.3-28.1,6.3C634.3,512.6,592,572.5,590.2,578z"/>
			</g>
			<g>
				<path class="st6" d="M671.5,585.9l0.6-0.4c17.6-12.9,28-33.5,28-55.5v-29.5c0,0-52.1,11.6-52.1,11.6c-2.6,0.6-44.8,60.5-46.7,66
					c-2.9,8.9-1.9,18.9,2.4,27.2l47.6,108.1h44l-31.9-87.7C656.7,611.3,660.2,594.2,671.5,585.9z"/>
			</g>
			<g>
				<path class="st25" d="M665.6,508.1l-7.7-29.9L603.5,512l-60.3,43.6h61.3h11h19.3H695c3.2-8.1,5-16.8,5-25.7v-29.5
					C700,500.4,680.7,504.7,665.6,508.1z"/>
			</g>
			<g>
				<path class="st25" d="M632.8,516.5c-3.4,4.3-8.6,11.3-14.2,19.1l32.8,7.8l4.3-3.2l17-4.6l-4.8-18.6c-2.6-0.4-5.1-0.6-7.8-0.6
					H632.8z"/>
			</g>
			<g>
				<polygon class="st26" points="700,456 597.3,456 597.3,516.5 700,535.2 				"/>
			</g>
			<g>
				<path class="st25" d="M597.3,516.5h62.9c15.1,0,29.5,6.6,39.4,18.2l0.4,0.5l-23.9,14.2L598,530.7L597.3,516.5z"/>
			</g>
			<g>
				<path class="st27" d="M530.7,377.8L530.7,377.8C530.7,377.8,530.7,377.8,530.7,377.8c-0.1-0.1-0.3-0.1-0.4-0.2
					c-0.3-0.1-0.6-0.2-0.9-0.3c-1.2-0.6-3.2-2-5.6-5.1c-4.1-5.2-3.7-3.6-7.6-9.5c-4-5.9-11.5-9.2-12.5-6.2c-0.8,2.2,2.6,5.6,3.8,7.2
					c1.5,2,5.1,6.6,2.1,8.9c-1.5,1.2-4.5,0.2-6.1-0.2c-2.3-0.6-4.5-1.4-6.6-2.3c-3.7-1.5-7.3-3.3-10.8-5.1c-4-2.1-11.2-9.4-12.5-6.6
					c-0.6,1.3-0.3,2.9,0.3,4.1c-1.9-1.5-2.9-2.1-4.3-0.7c-0.9,0.9,0.5,4.4,1.8,5.8c-0.8-0.1-2.2,0.6-2.2,1.9c0.1,1.6,3.1,4.1,6.7,6
					c-5.3,3-4.7,5.3,19.2,15.2c7.2,3,13.7,4.7,19,5.7l0,0c0,0,12,1.8,15.3,12c3.3,10.1,17.9-5.9,17.9-5.9S539.5,381.8,530.7,377.8z"
					/>
			</g>
			<g>
				<path class="st28" d="M709.5,161.1c-5.5-9.4-18.8-11.6-28.6-12.5c-22.2-2.1-41.4,2.1-57.9,18c-14.1,13.6-22.8,32.4-24,52.1
					c-0.7,11.2,0.3,22.4,2.1,33.4c6.8,40.9,4.4,56.6,0.9,62.6h27.5c2.1-5.6,4.1-12.2,5.9-19.8c10.2-42.9,23-55.1,32-57.8
					c7.9-2.4,14.2,2.1,16.1,3.7l-3.9,55.4c-0.1,0.7-0.7,8.6,0,18.5h31.4c2.2-4,4.6-7.9,6.6-11.6c5.3-9.6,9.8-19.6,13.5-29.9
					c12.3-34.7,28.8-99.3-20.5-111.7C710.5,161.3,709.7,161.3,709.5,161.1z"/>
			</g>
			<g>
				<path class="st29" d="M597,448.4c-0.3-0.9-0.6-1.7-0.9-2.6h-22l-28-56l-26.4,13.5l31.1,61.9c4.8,11.4,17.4,17.7,29.5,14.1
					C593.3,475.5,600.8,461.7,597,448.4z"/>
			</g>
			<g>
				<g>
					<path class="st26" d="M579.1,478.2c13-3.8,21.1-17.8,17.3-31l0.7-0.2c0.5,1.1,0.9,2.1,1.2,3.3c3.8,13.2-3.7,27.1-16.7,30.9
						c-10.2,3-20.7-1-26.7-9.1C561.1,478.1,570.3,480.8,579.1,478.2z"/>
				</g>
			</g>
			<g>
				<polygon class="st30" points="711.1,314.7 602,314.7 630.7,270.4 686,267.8 				"/>
			</g>
			<g>
				<path class="st29" d="M719.2,350.4c-17.4-34.5-58.9-42.9-58.9-42.9c-82.6,0-89.6,111.8-89.1,155.6h26v17.3h121.2
					c9.7,0,17.5-8.1,17.3-18C734.9,433.1,731.9,375.5,719.2,350.4z"/>
			</g>
			<g>
				<path class="st4" d="M632.7,315.7h16.1h16.1c0,0,8.3,21.5,3.6,54.7c-3.3,22.9-36.1,22.9-39.4,0
					C624.4,337.2,632.7,315.7,632.7,315.7z"/>
			</g>
			<g>
				<g>
					<path class="st26" d="M678.4,359.8l-1.1,8.6c-0.4,3.3-4.4,4.6-6.7,2.2l-1.9-2c0.7-5.1,1-10,1.2-14.5L678.4,359.8z"/>
				</g>
				<g>
					<path class="st26" d="M628.9,368.6L628.9,368.6c-0.7-5.1-1-10-1.2-14.5l-5.5,3.7v8.1C622.2,369.4,626.5,371.2,628.9,368.6z"/>
				</g>
				<g>
					<path class="st31" d="M655.6,344.6l14.3,9.6c-0.1,4.5-0.5,9.4-1.2,14.5l-21.1-21.3L655.6,344.6z"/>
				</g>
				<g>
					<path class="st31" d="M642.1,344.6l5.6,2.8l-18.7,21.3c-0.7-5.1-1-10-1.2-14.5L642.1,344.6z"/>
				</g>
			</g>
			<g>
				<g>
					<path class="st27" d="M668.1,290.1v25.5c0,2.4-7.2,4.3-16.2,4.3c-8.9,0-16.2-1.9-16.2-4.3v-25.5H668.1z"/>
				</g>
			</g>
			<g>
				<g>
					<path class="st32" d="M668.1,305.9c-4.3,0.9-8.8,1.4-13.5,1.6c-6.6,0.3-13-0.2-18.9-1.9v-15.5h32.4V305.9z"/>
				</g>
			</g>
			<g>
				<g>
					<path class="st26" d="M697.5,480.4v-91.3c0-1.2,1-2.2,2.1-2.2c1.2,0,2.1,1,2.1,2.2v91.3H697.5z"/>
				</g>
			</g>
			<g>
				<g>
					<path class="st26" d="M595.1,480.4v-91.3c0-1.2,1-2.2,2.1-2.2c1.2,0,2.1,1,2.1,2.2v91.3H595.1z"/>
				</g>
			</g>
			<g>
				<path class="st4" d="M668.1,307.6c0,0,13.6,2.9,15,11.8c1,6.6,0.5,32.5,0.2,45.2c-0.1,3.1-3.5,4.9-6.1,3.1l-29.5-20.4l20.4-31.7
					L668.1,307.6z"/>
			</g>
			<g>
				<path class="st4" d="M635.7,307.9c0,0-13.6,2.9-15,11.8c-1,6.4-0.6,30.7-0.2,43.8c0.1,3.4,4,5.1,6.5,2.8l20.6-19l-11.9-31.7
					L635.7,307.9z"/>
			</g>
			<g>
				<g>
					<path class="st30" d="M719.2,249.8c0-29,0.4-69.9-53.9-69.9c-54.3,0-59.6,47.2-54.3,75.8c4.2,22.7,8.8,43.1,20.2,54.2
						c1.5-4.5,2.9-9.5,4.2-15.1c10.2-42.9,23-55.1,32-57.8c7.9-2.4,14.2,2.1,16.1,3.7l-3.9,55.4c-0.1,0.6-0.5,6.1-0.3,13.5
						C699.9,296.2,719.2,270.3,719.2,249.8z"/>
				</g>
			</g>
			<g>
				<g>
					<g>
						<path class="st27" d="M610.9,215.2l4.6,41.8c-7.1-0.5-13.5-8.7-14.7-19.5S604,217.3,610.9,215.2z"/>
					</g>
				</g>
			</g>
			<g>
				<g>
					<path class="st32" d="M600.6,232.7c-0.1,1.6,0,3.2,0.2,4.9c1.2,10.8,7.6,19,14.7,19.5l-0.8-7.5
						C608.2,248.8,602.4,242,600.6,232.7z"/>
				</g>
			</g>
			<g>
				<g>
					<g>
						<path class="st27" d="M611.2,240c5.8,34.2,12.4,63.1,39.7,63.1c23.3,0,58.8-39.9,58.8-69c0-29,0.4-69.9-49-69.9
							C611.2,164.3,606.4,211.4,611.2,240z"/>
					</g>
				</g>
			</g>
			<g>
				<path class="st32" d="M703.8,189c0,0-22.5,17.4-63.4,11.5c-29-4.2-28.6,23.3-28.6,23.3l1.2-32.4l27.3-9.7l50.4-1.9L703.8,189z"
					/>
			</g>
			<g>
				<g>
					<path class="st32" d="M691.9,173c12.3,14.5,12.2,37.6,12.2,55.9c0,29-35.4,69-58.8,69c-6.9,0-12.4-1.8-17-5.1
						c5.4,6.6,12.6,10.4,22.6,10.4c23.3,0,58.8-39.9,58.8-69C709.7,213.4,709.9,186.6,691.9,173z"/>
				</g>
			</g>
			<g>
				<g>
					<path class="st32" d="M702.3,251.1c0-2.3-0.4-4.5-1.2-6.4c-2.7,7.9-7.2,15.9-12.7,23.3C696.2,267,702.3,259.8,702.3,251.1z"/>
				</g>
			</g>
			<g>
				<g>
					<g>
						<path class="st27" d="M707.9,222.3c0.4,0,0.8,0.1,1.2,0.1c7.1,1.3,11.4,11,9.5,21.6c-1.9,10.6-9.2,18.2-16.3,16.9
							c-0.4-0.1-0.8-0.2-1.2-0.3L707.9,222.3z"/>
					</g>
				</g>
			</g>
			<g>
				<g>
					<path class="st32" d="M719,241.6c-2.8,8.3-9.1,13.7-15.2,12.6c-0.4-0.1-0.8-0.2-1.2-0.3l5.6-31.5c-0.1,0-0.2,0-0.2,0l-6.8,38.4
						c0.4,0.1,0.8,0.2,1.2,0.3c7.1,1.3,14.4-6.3,16.3-16.9C718.8,243.2,718.9,242.4,719,241.6z"/>
				</g>
			</g>
			<g>
				<g>
					<g>
						<path class="st32" d="M661.8,210.7c12.2-12.9,26,6.1,26,6.1S673.3,207,661.8,210.7L661.8,210.7z"/>
					</g>
				</g>
			</g>
			<g>
				<g>
					<g>
						<path class="st32" d="M619.5,208.6c19.4-13.9,24.9,5.2,24.9,5.2S630.9,204.7,619.5,208.6L619.5,208.6z"/>
					</g>
				</g>
			</g>
			<g>
				<g>
					<g>
						<path class="st30" d="M661.2,212c-0.1-0.1-0.2-0.1-0.3-0.2c-0.5-0.5-0.6-1.4,0-2c3.3-3.5,7.1-5.2,11.1-4.9
							c9.2,0.6,16.6,10.7,16.9,11.1c0.4,0.6,0.3,1.5-0.3,1.9c-0.6,0.5-1.5,0.3-1.9-0.3c-0.1-0.1-7-9.5-14.9-10
							c-3.2-0.2-6.3,1.2-9,4.1C662.4,212.1,661.7,212.2,661.2,212z"/>
					</g>
				</g>
			</g>
			<g>
				<g>
					<g>
						<path class="st30" d="M644.9,213.9c-0.6,0-1.1-0.4-1.3-1c-1.3-3.9-3.4-6.4-6.4-7.6c-6.9-2.6-16.1,2.9-16.2,2.9
							c-0.6,0.4-1.5,0.2-1.9-0.5c-0.4-0.7-0.2-1.5,0.5-1.9c0.4-0.3,10.5-6.2,18.5-3.1c3.8,1.4,6.5,4.6,8,9.3
							c0.2,0.7-0.2,1.5-0.9,1.7C645.2,213.9,645,213.9,644.9,213.9z"/>
					</g>
				</g>
			</g>
			<g>
				<g>
					<path class="st28" d="M713.5,188.6l-5.5-21.1c-0.1-0.6-0.6-1-1.1-1.2l-15.3-5.2c-0.1,0-0.2,0-0.3-0.1l-41.6-5.5
						c-0.3,0-0.6,0-0.9,0.1l-16.1,7.1c-0.3,0.7-0.7,1.5-1.3,2.2c-8.2,10.1-15.4,20.9-23,31.5c0.3,1.9-0.2,3.6-1,5.4
						c-0.4,0.9-1,1.8-1.5,2.6c1,10,2.2,19.9,3.4,29.8c0.1,1.2,0.7,2.8,1.9,2.8c1.1-0.1,1.6-1.4,1.7-2.5c1-6.3,1.9-12.6,2.8-18.9
						c0.7-5.1,0.6-11.4,2.8-16.2c2.2-5,7.4-4.7,12.1-4.2c11.7,1.4,23.7,2.1,35.5,0.9c6.1-0.6,12.2-1.7,18.1-3.3
						c1.7-0.5,12.4-2.6,12-5.3c2.7,17.5,2.5,35.7,8.7,52.5c0.3,0.7,0.5,1.4,1.1,1.9c0.5,0.5,1.4,0.7,2,0.3c0.5-0.4,0.6-1,0.8-1.6
						c1.1-5.7,2.2-11.5,3.3-17.2l1.4-34.4C713.5,188.9,713.5,188.7,713.5,188.6z"/>
				</g>
			</g>
			<g>
				<g>
					<g>
						<g>
							<ellipse class="st32" cx="667.4" cy="223.2" rx="5.8" ry="7.9"/>
						</g>
					</g>
				</g>
				<g>
					<g>
						<g>
							<ellipse class="st33" cx="667.4" cy="221.4" rx="5.8" ry="7.9"/>
						</g>
					</g>
				</g>
				<g>
					<g>
						<g>
							<ellipse class="st0" cx="665.9" cy="218.2" rx="2.3" ry="2.4"/>
						</g>
					</g>
				</g>
			</g>
			<g>
				<g>
					<g>
						<g>
							<ellipse class="st32" cx="627" cy="219.8" rx="5.8" ry="7.9"/>
						</g>
					</g>
				</g>
				<g>
					<g>
						<g>
							<ellipse class="st33" cx="627" cy="217.9" rx="5.8" ry="7.9"/>
						</g>
					</g>
				</g>
				<g>
					<g>
						<g>
							<ellipse class="st0" cx="625.5" cy="214.7" rx="2.3" ry="2.4"/>
						</g>
					</g>
				</g>
			</g>
			<g>
				<g>
					<g>
						<path class="st34" d="M648.5,218.9c0,0-5.8,19.4-11.7,21.7c-6.7,2.6-4.5,14.6,9,8.6c7.3-3.2,8.6-29.2,8.6-29.2L648.5,218.9z"
							/>
					</g>
				</g>
			</g>
			<g>
				<polygon class="st27" points="668.1,315.6 647.6,347.3 635.7,315.6 				"/>
			</g>
			<g>
				<path class="st26" d="M699.7,412.1c0,0-12.4,30.1-42.1,23c-1.1-0.3-1.7,1.2-0.8,1.8c4.5,3.2,15.8,8,42.9,8V412.1z"/>
			</g>
			<g>
				<path class="st26" d="M597.3,412.1c0,0,12.4,30.1,42.1,23c1.1-0.3,1.7,1.2,0.8,1.8c-4.5,3.2-15.8,8-42.9,8V412.1z"/>
			</g>
			<g>
				<g>
					<path class="st0" d="M646.4,277.5c8.9,0.4,16.4-5.1,16.7-12.3l-32.2-1.4C630.5,271,637.5,277.1,646.4,277.5z"/>
				</g>
			</g>
			<g>
				<g>
					<g>
						<path class="st30" d="M643.4,279.3c-8.6-1.5-15-8-14.7-15.5c0-0.6,0.3-1.1,0.7-1.5c0.4-0.4,0.9-0.6,1.5-0.6l32.2,1.4
							c1.1,0.1,2,1,2,2.2c-0.2,4.1-2.3,7.9-6,10.6c-3.5,2.6-8.1,3.9-12.9,3.7C645.3,279.5,644.3,279.4,643.4,279.3z M633.1,266
							c1.1,5.1,6.6,9.1,13.4,9.4c3.8,0.2,7.5-0.9,10.2-2.9c2-1.4,3.3-3.3,3.9-5.3L633.1,266z"/>
					</g>
				</g>
			</g>
			<g>
				<g>
					<path class="st26" d="M699.7,391.1C699.7,391.1,699.7,391.1,699.7,391.1c-1.2,0-2.1-1-2.1-2.2c0-2.5,0-4.9,0.1-7.2
						c0-1.2,1-2.1,2.2-2.1c1.2,0,2.1,1,2.1,2.2c-0.1,2.3-0.1,4.7-0.1,7.1C701.8,390.2,700.9,391.1,699.7,391.1z M700,376.8
						C700,376.8,700,376.8,700,376.8c-1.3-0.1-2.2-1.1-2.1-2.3c0.1-2.6,0.3-5,0.4-7.2c0.1-1.2,1.1-2.1,2.3-2c1.2,0.1,2.1,1.1,2,2.3
						c-0.2,2.2-0.3,4.6-0.4,7.1C702.1,375.8,701.2,376.8,700,376.8z M701,362.4c-0.1,0-0.1,0-0.2,0c-1.2-0.1-2-1.2-1.9-2.4
						c0.3-2.5,0.6-5,0.9-7.2c0.2-1.2,1.3-2,2.4-1.8c1.2,0.2,2,1.3,1.8,2.4c-0.3,2.2-0.6,4.6-0.9,7C703,361.6,702.1,362.4,701,362.4z
						 M703.1,348.2c-0.1,0-0.3,0-0.4,0c-1.2-0.2-1.9-1.4-1.6-2.6c1.1-5.1,2-7.1,2.1-7.4c0.5-1.1,1.8-1.5,2.8-1.1
						c1.1,0.5,1.5,1.8,1,2.9c0,0.1-0.8,1.9-1.8,6.5C705,347.5,704.1,348.2,703.1,348.2z"/>
				</g>
			</g>
			<g>
				<g>
					<path class="st26" d="M597.3,398.6c-1.2,0-2.1-1-2.1-2.2v-6.9c0-1.2,1-2.2,2.1-2.2c1.2,0,2.1,1,2.1,2.2v6.9
						C599.4,397.6,598.5,398.6,597.3,398.6z M597.3,384.5c-1.2,0-2.1-1-2.1-2.2v-7.2c0-1.2,1-2.2,2.1-2.2c1.2,0,2.1,1,2.1,2.2v7.2
						C599.4,383.5,598.5,384.5,597.3,384.5z M597.3,370.1c-1.2,0-2.1-1-2.1-2.2v-7.2c0-1.2,1-2.2,2.1-2.2c1.2,0,2.1,1,2.1,2.2v7.2
						C599.4,369.1,598.5,370.1,597.3,370.1z M597.3,355.7c-1.2,0-2.1-1-2.1-2.2v-7.2c0-1.2,1-2.2,2.1-2.2c1.2,0,2.1,1,2.1,2.2v7.2
						C599.4,354.8,598.5,355.7,597.3,355.7z"/>
				</g>
			</g>
			<g>
				<g>
					<path class="st26" d="M574.9,457.5l-33.2-65.4l4.3-2.2l33.2,65.4c0.5,1,0,2.4-1.2,3l0,0C576.9,458.9,575.5,458.5,574.9,457.5z"
						/>
				</g>
			</g>
			<g>
				<path class="st9" d="M662,454.5c-2.1-2.5-5.1-4.1-8.3-4.3c-7.5-0.4-20.7-0.5-23.2,3.6c-3.6,5.8,1.5,6.6,1.5,6.6s-5,4.4,2.8,8.3
					c0,0-2.9,2.9,1,5.2c0,0-2.5,3.1,2.2,4c4.8,0.9,13.1,2.9,17,1.7c3.9-1.2,8.5-3.6,10.4-1.4c1.9,2.2,9.6-21.7,9.6-21.7L662,454.5z"
					/>
			</g>
			<g>
				<rect x="664.5" y="452.8" class="st29" width="47.6" height="27.7"/>
			</g>
			<g>
				<path class="st35" d="M617.5,713.3v28.3h-83.6c0,0,3.4-28.3,27.7-28.3C585.8,713.3,617.5,713.3,617.5,713.3z"/>
			</g>
			<g>
				<g>
					<path class="st26" d="M710.8,451.7h-45c-1.1,0-2,0.7-2.2,1.8c-0.2,1.3,0.8,2.5,2.1,2.5h45.1c1.2,0,2.1-1,2.1-2.1l0,0
						C712.9,452.6,712,451.7,710.8,451.7z"/>
				</g>
			</g>
			<g>
				<path class="st36" d="M695.4,713.3v28.3h-83.6c0,0,3.4-28.3,27.7-28.3C663.7,713.3,695.4,713.3,695.4,713.3z"/>
			</g>
		</g>
		<g>
			<g>
				<path class="st20" d="M107.2,713.3v28.3h83.6c0,0-3.4-28.3-27.7-28.3C138.9,713.3,107.2,713.3,107.2,713.3z"/>
			</g>
			<g>
				<path class="st20" d="M218.1,713.3v28.3h83.6c0,0-3.4-28.3-27.7-28.3C249.8,713.3,218.1,713.3,218.1,713.3z"/>
			</g>
			<g>
				<path class="st37" d="M228.1,566.3l44.7,8.3c14,2.6,22.9,16.8,19.2,30.8l-28.5,107.9h-45.4l13.6-63.8c2.6-12.3-4.3-24.6-16-28.7
					l-64.3-22.1l-54.6-32.4l34.8-23.8L228.1,566.3z"/>
			</g>
			<path class="st6" d="M218.1,713.3h24.8l15.1-71.5c3.1-14.8-5.1-29.6-19.1-34.5L162,580.6l-46-27.5l-19.3,13.2l54.6,32.4
				l64.3,22.1c11.7,4,18.6,16.4,16,28.7L218.1,713.3z"/>
			<g>
				<path class="st37" d="M95.3,564.9v40.1l20,7.8c5.8,2.2,9.1,8.3,7.9,14.5l-16.2,86h45.4l34.7-148.4H95.3z"/>
			</g>
			<path class="st6" d="M107.1,713.3h20.6L145,621c1.4-7.3-2.6-14.5-9.4-17.1l-23.7-9.2v-29.7H95.3v40.1l20,7.8
				c5.8,2.2,9.1,8.3,7.9,14.5L107.1,713.3z"/>
			<g>
				<path class="st6" d="M292.5,594.6c-1.7-9.8-9.3-18.1-19.7-20l-44.7-8.3l-96.7-23.8l-34.8,23.8l47.7,28.3H292.5z"/>
			</g>
			<g>
				<polygon class="st6" points="180.2,594.6 187.1,564.9 95.3,564.9 95.3,594.6 				"/>
			</g>
			<g>
				<g>
					<path class="st21" d="M29.8,741.8c8.8-39,37.4-146.3,87.4-146.3c55.6,0,73.5,106.1,78.3,146.3h5.7
						c-2.2-18.9-7.1-50.9-17.2-80.9c-15.9-47.2-38.4-71.2-66.9-71.2c-55.3,0-84.8,113-93.3,152.1H29.8z"/>
				</g>
			</g>
			<g>
				<g>
					<path class="st21" d="M83.5,741.8c8.8-39,37.4-146.3,87.4-146.3c55.6,0,73.5,106.1,78.3,146.3h5.7
						c-2.2-18.9-7.1-50.9-17.2-80.9c-15.9-47.2-38.4-71.2-66.9-71.2c-55.3,0-84.8,113-93.3,152.1H83.5z"/>
				</g>
			</g>
			<g>
				<g>
					<path class="st22" d="M67.9,634.9c13.2-22.7,29.6-39.4,49.3-39.4c22.1,0,38.2,16.7,49.9,39.4h6.4c-14.8-30-33.7-45.2-56.3-45.2
						c-23,0-41.5,19.5-55.9,45.2H67.9z"/>
				</g>
			</g>
			<g>
				<g>
					<path class="st22" d="M121.6,634.9c13.2-22.7,29.6-39.4,49.3-39.4c22.1,0,38.2,16.7,49.9,39.4h6.4
						c-14.8-30-33.7-45.2-56.3-45.2c-23,0-41.5,19.5-55.9,45.2H121.6z"/>
				</g>
			</g>
			<g>
				<path class="st23" d="M215,324.4l57.9,104.5c12.6,22.8-3.6,50.9-29.4,50.9H208l-10.5-118.5L215,324.4z"/>
			</g>
			<g>
				<g>
					<g>
						<g>
							<path class="st13" d="M238.8,226.7c-3.8,0.1-8.5-14.5-10.2-21.8l-5.6,1.1c1.2,8.8,6.4,38,10.6,40.6
								C245.9,254.4,257.6,226.3,238.8,226.7z"/>
						</g>
					</g>
				</g>
			</g>
			<g>
				<path class="st9" d="M231.6,230.8c-2.3-7.5-5.9-17.6-2.6-25.3c4.6-10.5-6.9-35.9-6.9-35.9s-14.3-31.9-56.2-22.1
					c-41.9,9.8-49.5,78.5-44.4,97.2c3.1,11.1,10,21.4,17.2,30.1c8.1,9.8,18,18.2,29.3,23.9c12.7,6.4,29.7,11.8,43.5,5.9
					c4.3-1.8,8-4.7,11.1-8.1c1.6-1.7,3-3.7,4.2-5.6c1-1.6,1.5-3.5,1.7-5.3c0.2-1.9,0.5-3.6,2-5c0.8-0.8,1.8-1.3,2.1-2.5
					c0.3-1.4-0.2-2.9-1.3-3.8c-3.9-3.1-11.1-9-9.6-11.7c1.6-2.8,5.8-0.8,8-0.1c1.2,0.4,2.8,0.9,4.1,0.5c1.7-0.6,1.9-3.3,2-4.8
					c0.3-3-0.1-6.3-0.4-9.2C234.7,242.7,233.4,236.7,231.6,230.8z"/>
			</g>
			<g>
				<path class="st7" d="M161.3,149c-37.8,13.6-44.7,77.8-39.7,95.7c3.1,11.1,10,21.4,17.2,30.1c6.4,7.7,14,14.6,22.5,20V149z"/>
			</g>
			<g>
				<g>
					<path class="st7" d="M216.1,295.2c-13.8,3.4-30.8,0.3-43.5-3.4c-11.3-3.3-21.2-8.2-29.3-13.8c-1.6-1.1-3.1-2.2-4.6-3.4
						c0,0.1,0.1,0.1,0.1,0.2c8.1,9.8,18,18.2,29.3,23.9c12.7,6.4,29.7,11.8,43.5,5.9c6.7-2.9,11.8-7.9,15.6-14.1
						C224.1,292.5,220.4,294.1,216.1,295.2z"/>
				</g>
			</g>
			<g>
				<path class="st7" d="M171.4,229.3c0,0-0.2,41.2-36,41.2l-11.3-14.8L171.4,229.3z"/>
			</g>
			<g>
				<path class="st7" d="M170.8,196.4c0,0-7.4,33.6,20.5,32.7c0,0-19.2,16.5-29.3-4.1C153.8,208.4,170.8,196.4,170.8,196.4z"/>
			</g>
			<g>
				<g>
					<g>
						<g>
							<g>
								<path class="st7" d="M229.1,218c1.3,4.9,0,9.5-2.9,10.3c-2.9,0.8-6.3-2.5-7.7-7.4c-1.3-4.9,0-9.5,2.9-10.3
									C224.4,209.8,227.8,213.1,229.1,218z"/>
							</g>
						</g>
					</g>
				</g>
				<g>
					<g>
						<g>
							<g>
								<path class="st12" d="M231.4,216.5c0.3,5.1-2.5,9.3-6.2,9.5c-3.7,0.2-6.9-3.7-7.2-8.8c-0.3-5.1,2.5-9.3,6.2-9.5
									S231.1,211.5,231.4,216.5z"/>
							</g>
						</g>
					</g>
				</g>
				<g>
					<g>
						<g>
							<g>
								<path class="st0" d="M228.9,213c0.1,1.5-1.1,2.8-2.6,2.9c-1.5,0.1-2.8-1.1-2.8-2.6c-0.1-1.5,1.1-2.8,2.6-2.9
									C227.5,210.3,228.8,211.5,228.9,213z"/>
							</g>
						</g>
					</g>
				</g>
			</g>
			<g>
				<g>
					<path class="st7" d="M230,194.7c-0.4,0-0.9-0.1-1.3-0.1c-8.5,0-14.8,10.2-14.8,10.2s6.6-5.7,16.3-5.2L230,194.7z"/>
				</g>
			</g>
			<g>
				<g>
					<g>
						<path class="st15" d="M229.8,193c-0.2,0-0.4,0-0.5,0h0c-9.8,0-16.9,10.4-17.2,10.8c-0.5,0.8-0.3,1.8,0.4,2.4
							c0.8,0.5,1.8,0.3,2.3-0.4c0.1-0.1,6.4-9.3,14.5-9.3h0c0.2,0,0.4,0,0.5,0V193z"/>
					</g>
				</g>
			</g>
			<g>
				<path class="st38" d="M117.2,203.6"/>
			</g>
			<g>
				<path class="st16" d="M224.6,148.8c-2.9-1.1-5.7-2.6-8.2-4.5c-12.3-9.2-24.2-15-39.7-14.8c-12.7,0.2-25,4.3-34.9,12.5
					c0,0,0,0-0.1,0c-0.1,0-54.9,3.2-53.1,75.5c0,0,30.5,53.7,49.3,48.9c29.7-7.6,34.6-31,31.6-57c-2.9-26.1,19.5-21.6,23.5-3
					c1.1,5.1,2.4,9,3.6,11.8c1.3,3,5.7,1.9,5.5-1.3c-0.8-14.5-0.6-41.5,11.7-41.5c6.3,0,12.6-1.6,18-5c4.2-2.6,12.4-8.7,12.2-14.5
					c-0.1-3.9-4.8-3.8-7.6-4.2C232.4,151.1,228.4,150.2,224.6,148.8z"/>
			</g>
			<g>
				<path class="st15" d="M229.8,193c0,0,1.2,0.5,1.2,1.9c0,1.4-1.2,1.5-1.2,1.5l-1.7-1L229.8,193z"/>
			</g>
			<g>
				<path class="st4" d="M115.9,277.4l-12.1,20.4l97.7,35.1l6.5-39.9c0,0-18.8-19.3-83.7-20.3C120.8,272.6,117.6,274.4,115.9,277.4z
					"/>
			</g>
			<g>
				<path class="st23" d="M228.1,566.3V371.5c0-49.3-36.4-89.3-85.6-89.3c-49.2,0-74.9,42.3-74.9,91.7l2.7,178.1L228.1,566.3z"/>
			</g>
			<path class="st24" d="M168.8,378.9c0-41.6-26.8-76.4-65.4-85.4c-23.6,15.8-35.7,46.4-35.7,80.3l2.7,178.1l98.4,9V378.9z"/>
			<g>
				<path class="st24" d="M223.2,446c-1.9-3.7-3.5-7.5-5.3-11.2c-3.3-6.8-6.7-13.5-9.8-20.4v150.1l20,1.8V456.1
					C227.3,452.3,225,449.4,223.2,446z"/>
			</g>
			<g>
				<path class="st39" d="M18.6,369.4h105c7.4,0,13.3,6,13.3,13.5c-0.1,43.3,1,176.3,19.9,186.6c22.6,12.3,77.2,13.4,78.3,22.4
					c1.1,8.9-20.4,17.3-89.3,17.3H96.2c0,0-72.2-1.7-82.2-106.8c-6.3-66.3-8.1-101.9-8.7-119.2C5.1,375.7,11.1,369.4,18.6,369.4z"/>
			</g>
			<g>
				<path class="st39" d="M18.6,369.4h105c7.4,0,13.3,6,13.3,13.5c-0.1,43.3,1,176.3,19.9,186.6c22.6,12.3,77.2,13.4,78.3,22.4
					c1.1,8.9-20.4,17.3-89.3,17.3H96.2c0,0-72.2-1.7-82.2-106.8c-6.3-66.3-8.1-101.9-8.7-119.2C5.1,375.7,11.1,369.4,18.6,369.4z"/>
			</g>
			<g>
				<path class="st40" d="M96.2,609.2h49.6c32.2,0,54.1-1.8,68.1-4.7c-6.7-7.7-63-2.6-79.7-21.1c-21.6-24.1-20.6-144.8-20.5-188.5
					c0-7.5-6.1-13.6-13.6-13.6H5.5c-0.1,0.7-0.1,1.4-0.1,2.1c0.5,17.2,2.4,52.8,8.7,119.2C23.9,607.5,96.2,609.2,96.2,609.2z"/>
			</g>
			<g>
				<polygon class="st24" points="228.1,447.5 244.5,479.8 228.1,479.8 				"/>
			</g>
			<g>
				<g>
					<path class="st24" d="M243,476.9L192.7,377c-0.6-1.3-2.2-1.8-3.4-1.1c-1.2,0.6-1.7,2.2-1.1,3.5l43.1,85.3L243,476.9z"/>
				</g>
			</g>
			<g>
				<path class="st17" d="M100.6,213.6c-0.7-23.8,16.6-62.7,16.6-62.7c-14.4,9.2-29.6,28.1-28.6,66.7c0,0,30.5,53.7,49.3,48.9
					c4.6-1.2,8.6-2.7,12.1-4.6C124.4,262.2,100.6,213.6,100.6,213.6z"/>
			</g>
			<g>
				<g>
					<path class="st24" d="M170.7,300.7c-0.7,0-1.4-0.4-1.8-1.1l-4.4-7.4c-0.6-1-0.3-2.3,0.7-3c1-0.6,2.3-0.3,2.9,0.7l4.4,7.4
						c0.6,1,0.3,2.3-0.7,3C171.4,300.6,171,300.7,170.7,300.7z"/>
				</g>
				<g>
					<path class="st24" d="M253.2,441c-0.7,0-1.4-0.4-1.8-1.1l-8.3-14c-0.6-1-0.3-2.3,0.7-3c1-0.6,2.3-0.3,2.9,0.7l8.3,14
						c0.6,1,0.3,2.3-0.7,3C253.9,440.9,253.6,441,253.2,441z M236.7,413c-0.7,0-1.4-0.4-1.8-1.1l-8.3-14c-0.6-1-0.3-2.3,0.7-3
						c1-0.6,2.3-0.3,2.9,0.7l8.3,14c0.6,1,0.3,2.3-0.7,3C237.4,412.9,237.1,413,236.7,413z M220.2,384.9c-0.7,0-1.4-0.4-1.8-1.1
						l-8.3-14c-0.6-1-0.3-2.3,0.7-3c1-0.6,2.3-0.3,2.9,0.7l8.3,14c0.6,1,0.3,2.3-0.7,3C220.9,384.8,220.5,384.9,220.2,384.9z
						 M203.7,356.8c-0.7,0-1.4-0.4-1.8-1.1l-8.3-14c-0.6-1-0.3-2.3,0.7-3c1-0.6,2.3-0.3,2.9,0.7l8.3,14c0.6,1,0.3,2.3-0.7,3
						C204.4,356.7,204,356.8,203.7,356.8z M187.2,328.7c-0.7,0-1.4-0.4-1.8-1.1l-8.3-14c-0.6-1-0.3-2.3,0.7-3c1-0.6,2.3-0.3,2.9,0.7
						l8.3,14c0.6,1,0.3,2.3-0.7,3C187.9,328.7,187.5,328.7,187.2,328.7z"/>
				</g>
				<g>
					<path class="st24" d="M265.8,462.5c-0.7,0-1.4-0.4-1.8-1.1l-4.4-7.4c-0.6-1-0.3-2.3,0.7-3c1-0.6,2.3-0.3,2.9,0.8l4.4,7.4
						c0.6,1,0.3,2.3-0.7,3C266.5,462.4,266.2,462.5,265.8,462.5z"/>
				</g>
			</g>
			<g>
				<path class="st24" d="M192,557.3c-1.2,0-2.1-1-2.1-2.2v-17.3c0-1.2,1-2.2,2.1-2.2c1.2,0,2.1,1,2.1,2.2v17.3
					C194.2,556.4,193.2,557.3,192,557.3z M192,522.8c-1.2,0-2.1-1-2.1-2.2v-17.3c0-1.2,1-2.2,2.1-2.2c1.2,0,2.1,1,2.1,2.2v17.3
					C194.2,521.8,193.2,522.8,192,522.8z M192,488.3c-1.2,0-2.1-1-2.1-2.2v-17.3c0-1.2,1-2.2,2.1-2.2c1.2,0,2.1,1,2.1,2.2v17.3
					C194.2,487.3,193.2,488.3,192,488.3z M192,453.8c-1.2,0-2.1-1-2.1-2.2v-17.3c0-1.2,1-2.2,2.1-2.2c1.2,0,2.1,1,2.1,2.2v17.3
					C194.2,452.8,193.2,453.8,192,453.8z M192,419.3c-1.2,0-2.1-1-2.1-2.2v-17.3c0-1.2,1-2.2,2.1-2.2c1.2,0,2.1,1,2.1,2.2v17.3
					C194.2,418.3,193.2,419.3,192,419.3z"/>
			</g>
		</g>
	</g>
</g>
<g id="DESIGNED_BY_FREEPIK">
</g>
</svg>
