<?xml version="1.0" encoding="utf-8"?>
<!-- Generator: Adobe Illustrator 19.0.0, SVG Export Plug-In . SVG Version: 6.00 Build 0)  -->
<svg version="1.1" id="Calque_1" xmlns="http://www.w3.org/2000/svg" xmlns:xlink="http://www.w3.org/1999/xlink" x="0px" y="0px"
	 viewBox="0 0 600 600" style="enable-background:new 0 0 600 600;" xml:space="preserve">
<style type="text/css">
	.st0{fill:#F8BF68;}
</style>
<g id="XMLID_394_">
	<g id="XMLID_452_">
		<path id="XMLID_186_" class="st0" d="M301.7,355.6l-35-40.4c0,0-15.4,54.8,18.8,254.4h12.6L301.7,355.6z"/>
		<path id="XMLID_185_" class="st0" d="M298.1,569.6h-12.6c0,0-32.5,12.6-28.9,19.8h42.3L298.1,569.6z"/>
	</g>
	<g id="XMLID_449_">
		<path id="XMLID_184_" class="st0" d="M318.5,355.6l35-40.4c0,0,15.4,54.8-18.8,254.4h-12.6L318.5,355.6z"/>
		<path id="XMLID_183_" class="st0" d="M322.2,569.6h12.6c0,0,32.5,12.6,28.9,19.8h-42.3L322.2,569.6z"/>
	</g>
	<path id="XMLID_182_" class="st0" d="M364.2,196.9c0,21.2-20.1,38.5-44.9,38.5h-19.4c-24.8,0-44.9-17.2-44.9-38.5
		c0,0-8.4-86.3,0-126.3c4.3-20.8,29.1-38.5,53.9-38.5h1.5c24.8,0,49.7,17.6,53.9,38.5C371.4,106.4,364.2,196.9,364.2,196.9z"/>
	<path id="XMLID_181_" class="st0" d="M364.2,70.5c-4.2-20.8-29.1-38.5-53.9-38.5h-0.7v203.3h9.7c24.8,0,44.9-17.2,44.9-38.5
		C364.2,196.9,371.4,106.4,364.2,70.5z"/>
	<g id="XMLID_444_">
		<path id="XMLID_180_" class="st0" d="M275.7,109.5c0.8,5-2.1,9.7-6.3,10.3l0,0c-4.3,0.6-8.3-2.9-9.1-8l-1-6.3
			c-0.8-5,2.1-9.7,6.3-10.3l0,0c4.3-0.6,8.3,2.9,9.1,8L275.7,109.5z"/>
		<path id="XMLID_179_" class="st0" d="M344.5,108.9c-0.8,5.1,2.1,9.7,6.3,10.3l0,0c4.3,0.6,8.3-2.9,9.1-8l1-6.3
			c0.8-5.1-2.1-9.7-6.3-10.3l0,0c-4.3-0.7-8.3,2.9-9.1,8L344.5,108.9z"/>
	</g>
	<g id="XMLID_441_">
		<path id="XMLID_178_" class="st0" d="M273.1,176.1c0,0-40.7,1.7-39.6,154.7l14.9-0.5c1.6-18,11.6-115.2,29.7-121L273.1,176.1z"/>
		<path id="XMLID_177_" class="st0" d="M256,362.8c-0.4-7.9-6.2-30.9-9-34.2l-13.5,0.9c0,8.8-3.6,15.7,0.3,24.2
			c3.2,6.8,8.1,12.6,13,18.1C254.2,379.9,256.3,369.7,256,362.8z"/>
	</g>
	<g id="XMLID_438_">
		<path id="XMLID_176_" class="st0" d="M347.1,176.1c0,0,40.7,1.7,39.6,154.7l-14.9-0.5c-1.6-18-11.6-115.2-29.7-121L347.1,176.1z"
			/>
		<path id="XMLID_175_" class="st0" d="M364.2,362.8c0.4-7.9,6.2-30.9,9-34.2l13.5,0.9c0,8.8,3.6,15.7-0.3,24.2
			c-3.2,6.8-8.1,12.6-13,18.1C366,379.9,363.9,369.7,364.2,362.8z"/>
	</g>
	<g id="XMLID_435_">
		<rect id="XMLID_174_" x="298.4" y="137.9" class="st0" width="11.6" height="36.3"/>
		<rect id="XMLID_173_" x="310.1" y="137.9" class="st0" width="11.6" height="36.3"/>
	</g>
	<g id="XMLID_432_">
		<path id="XMLID_172_" class="st0" d="M310.1,76.7h-44c0,0-7.4,79.2,44,79.7V76.7z"/>
		<path id="XMLID_171_" class="st0" d="M310.1,76.7h44c0,0,7.4,79.2-44,79.7V76.7z"/>
	</g>
	<path id="XMLID_170_" class="st0" d="M310.1,172c-5.7-0.8-36.1-3.9-48,12.4c-9,12.3,13.8,58.8,16.8,82.2
		c2.8,22.2-22.5,41.9-14.1,63.1c7,17.6,27.1,26.4,45.3,26.8V172z"/>
	<path id="XMLID_169_" class="st0" d="M310,171.9c5.8-0.7,36.1-3.8,48.1,12.4c9,12.3-13.8,58.8-16.8,82.2
		c-2.8,22.2,22.5,41.9,14.1,63.1c-7,17.6-27.1,26.4-45.4,26.7V171.9z"/>
	<g id="XMLID_426_">
		<path id="XMLID_168_" class="st0" d="M344.1,286.7l-34.1,0.5v0.1l-34.1-0.6c0,0-21.6,31.8-10.8,133.1H310l0,0l44.9-0.1
			C365.6,318.5,344.1,286.7,344.1,286.7z"/>
		<path id="XMLID_167_" class="st0" d="M275.9,286.8c0,0-21.6,31.8-10.8,133.1H310V287.4L275.9,286.8z"/>
		<path id="XMLID_166_" class="st0" d="M344.1,286.7c0,0,21.6,31.8,10.8,133.1l-44.9,0.1V287.3L344.1,286.7z"/>
	</g>
	<circle id="XMLID_165_" class="st0" cx="290.8" cy="110.6" r="4"/>
	<circle id="XMLID_164_" class="st0" cx="328.6" cy="110.6" r="4"/>
	<polygon id="XMLID_163_" class="st0" points="304.6,126.6 310.1,106.1 315.7,126.6 	"/>
	<g id="XMLID_421_">
		<path id="XMLID_162_" class="st0" d="M262.6,239.5c4.2-16,9.4-28.2,15.4-30.1l-4.9-33.3c0,0-22.3,1-33.4,63.4H262.6z"/>
	</g>
	<g id="XMLID_419_">
		<path id="XMLID_161_" class="st0" d="M357.6,239.5h23c-11.1-62.4-33.4-63.4-33.4-63.4l-4.9,33.3
			C348.2,211.3,353.4,223.5,357.6,239.5z"/>
	</g>
	<g id="XMLID_414_">
		<g id="XMLID_416_">
			<polygon id="XMLID_160_" class="st0" points="303.3,142.5 309.9,143.9 309.9,137.1 298,137.1 			"/>
			<polygon id="XMLID_159_" class="st0" points="309.9,137.1 309.9,143.9 316.5,142.5 321.8,137.1 			"/>
		</g>
		<polygon id="XMLID_158_" class="st0" points="321.8,137.1 314.7,133.5 309.9,135.3 309.9,135.3 305.1,133.5 298,137.1 
			309.9,138.8 309.9,138.8 		"/>
	</g>
	<path id="XMLID_157_" class="st0" d="M341.3,266.5c3-23.4,25.8-69.8,16.8-82.2c-6.3-8.6-17.8-11.8-28.1-12.7l-20,29.9v0.1
		l-17.8-30.2c-10.7,0.7-23.3,3.7-30.1,12.9c-9,12.3,13.8,58.8,16.8,82.2c2.8,22.2-22.5,41.9-14.1,63.1c7,17.6,27.1,26.1,45.3,26.4
		V356c18.2,0,38.3-8.8,45.3-26.4C363.8,308.5,338.4,288.8,341.3,266.5z"/>
	<path id="XMLID_156_" class="st0" d="M356.4,67.4L287.1,63l-26.7,18.2c0,0,44.8,17.1,92.2,25.6C352.7,106.9,363,84.2,356.4,67.4z"
		/>
	<path id="XMLID_155_" class="st0" d="M356.4,67.4l-46.8-4.9v33.1c13.2,4.4,28,8.5,43.1,11.2C352.7,106.9,363,84.2,356.4,67.4z"/>
	<path id="XMLID_154_" class="st0" d="M292.2,171.5c-10.7,0.7-23.3,3.7-30.1,12.9c-9,12.3,13.8,58.8,16.8,82.2
		c2.8,22.2-22.5,41.9-14.1,63.1c7,17.6,27.1,26.1,45.3,26.4V201.8L292.2,171.5z"/>
	<path id="XMLID_153_" class="st0" d="M341.3,266.5c3-23.4,25.8-69.8,16.8-82.2c-6.3-8.6-17.8-11.8-28.1-12.7l-20,29.9V356
		c18.2,0,38.4-8.8,45.4-26.4C363.8,308.5,338.4,288.8,341.3,266.5z"/>
	
		<rect id="XMLID_152_" x="235.8" y="236.5" transform="matrix(0.983 0.1836 -0.1836 0.983 48.7967 -41.8808)" class="st0" width="29.4" height="12"/>
	
		<rect id="XMLID_151_" x="356.1" y="236.5" transform="matrix(-0.983 0.1836 -0.1836 -0.983 779.767 412.8811)" class="st0" width="29.4" height="12"/>
	<path id="XMLID_150_" class="st0" d="M292.2,170.9c0,0-9-2.7-21,4.5c0,0,12.3,29.7,38.8,26.1L292.2,170.9z"/>
	<path id="XMLID_149_" class="st0" d="M328.7,170.9c0,0,9-2.7,21,4.5c0,0-13.2,29.8-39.7,26.2L328.7,170.9z"/>
	<g id="XMLID_402_">
		<polygon id="XMLID_148_" class="st0" points="278.1,274.3 274.7,287.6 309.9,287.5 309.9,274.3 		"/>
		<polygon id="XMLID_147_" class="st0" points="342.3,274.3 309.9,274.3 309.9,287.5 345.9,287.5 		"/>
	</g>
	<g id="XMLID_399_">
		<circle id="XMLID_146_" class="st0" cx="310.1" cy="280.9" r="10.2"/>
		<path id="XMLID_145_" class="st0" d="M310.1,291.1c0.2,0,0.2-20.4,0-20.4c-5.6,0-10.2,4.6-10.2,10.2
			C299.9,286.6,304.4,291.1,310.1,291.1z"/>
	</g>
	<path id="XMLID_395_" class="st0" d="M292.2,100.6c1.1,0,7.6,0.3,10.9,2.5c0.4,0.3,1.2,0.1,1.8,0.1c3.1,0,6.1,0,9.2,0
		c0.7,0,1.5,0.1,2-0.2c5.4-3,11.1-2.1,16.8-1.6c3.7,0.4,7.4,1.3,11.1,1.9c1.7,0.3,3,0.9,3.2,2.6c0.2,1.6-0.7,2.7-2.3,3.2
		c-1.9,0.6-2.5,2-2.6,3.8c-0.1,1.8-0.1,3.6-0.4,5.3c-0.6,4.6-3.1,7.9-7.9,9c-2.7,0.6-5.6,0.9-8.4,0.6c-6.7-0.7-10.1-4.4-11.4-11.8
		c-0.2-1.3-0.3-2.7-0.6-4c-0.4-2.1-1.8-3.3-4-3.3c-2.3,0-3.6,1.2-4.1,3.2c-0.4,1.6-0.5,3.2-0.8,4.8c-2,9.4-7.4,11.8-16.4,10.8
		c-8.1-0.8-11.4-4.8-11.3-12.8c0-2.8-0.3-5.1-3.6-6.2c-0.7-0.3-1.5-1.9-1.4-2.7c0.2-0.9,1.3-2.2,2.2-2.4c3-0.7,5.9-1.5,8.9-2
		C286.1,101.1,291.1,100.6,292.2,100.6z M291.9,103.8c-2,0-3.8,0.1-5.6,0.5c-5,0.9-7.2,3.6-7.4,8.4c0,0.9,0.2,1.9,0.2,2.9
		c0,7.8,9.4,12.1,16.4,8.6c5.1-2.6,8.5-10,7.1-15.4c-0.6-2.4-2.3-3.9-4.7-4.3C295.9,104,293.8,103.9,291.9,103.8z M326.7,103.9
		L326.7,103.9c-1.2,0-2.5-0.1-3.7,0c-4.3,0.3-7,2.4-7.2,6c-0.3,4.7,1,9,4.5,12.4c2.5,2.4,5.8,3.3,9.3,2.8c8-1.1,11.2-6.3,9.5-15.4
		c-0.5-2.5-2.3-4.3-4.8-4.9C331.9,104.2,329.3,104.1,326.7,103.9z"/>
</g>
<g id="XMLID_339_">
	<path id="XMLID_141_" class="st0" d="M190.3,43.4c-17.1-44.3-73.8-22.5-72,1.8l35.1,85.4c17.6,16.8,41.4,10.8,61.2-13.5
		C185.8,120.4,196.1,58.4,190.3,43.4z"/>
	<g id="XMLID_361_">
		<g id="XMLID_390_">
			<path id="XMLID_140_" class="st0" d="M120.8,353.1l-35-40.4c0,0-15.4,54.8,18.8,254.4h12.6L120.8,353.1z"/>
			<path id="XMLID_139_" class="st0" d="M117.2,567.1h-12.6c0,0-32.5,12.6-28.9,19.8h42.3L117.2,567.1z"/>
		</g>
		<g id="XMLID_387_">
			<path id="XMLID_138_" class="st0" d="M137.6,353.1l35-40.4c0,0,15.4,54.8-18.8,254.4h-12.6L137.6,353.1z"/>
			<path id="XMLID_137_" class="st0" d="M141.4,567.1H154c0,0,32.5,12.6,28.9,19.8h-42.3L141.4,567.1z"/>
		</g>
		<g id="XMLID_384_">
			<path id="XMLID_136_" class="st0" d="M94.8,107c0.8,5-2.1,9.7-6.3,10.3l0,0c-4.3,0.6-8.3-2.9-9.1-8l-1-6.3
				c-0.8-5,2.1-9.7,6.3-10.3l0,0c4.3-0.6,8.3,2.9,9.1,8L94.8,107z"/>
			<path id="XMLID_135_" class="st0" d="M163.6,106.4c-0.8,5.1,2.1,9.7,6.3,10.3l0,0c4.3,0.6,8.3-2.9,9.1-8l1-6.3
				c0.8-5.1-2.1-9.7-6.3-10.3l0,0c-4.3-0.7-8.3,2.9-9.1,8L163.6,106.4z"/>
		</g>
		<g id="XMLID_381_">
			<path id="XMLID_134_" class="st0" d="M80.2,212.6c0,0-52.9-1.7-51.4-152.1l19.3,0.4c2.1,17.7,15.1,113.3,38.5,118.9L80.2,212.6z"
				/>
			<path id="XMLID_133_" class="st0" d="M58,29.1c-0.5,7.7-8,30.4-11.7,33.6l-17.5-0.9c0-8.6-4.6-15.5,0.5-23.8
				c4.1-6.7,10.5-12.4,16.9-17.8C55.7,12.2,58.5,22.3,58,29.1z"/>
		</g>
		<g id="XMLID_378_">
			<path id="XMLID_132_" class="st0" d="M166.3,173.6c0,0,40.7,1.7,39.6,154.7l-14.9-0.5c-1.6-18-11.6-115.2-29.7-121L166.3,173.6z"
				/>
			<path id="XMLID_131_" class="st0" d="M183.3,360.3c0.4-7.9,6.2-30.9,9-34.2l13.5,0.9c0,8.8,3.6,15.7-0.3,24.2
				c-3.2,6.8-8.1,12.6-13,18.1C185.1,377.5,183,367.2,183.3,360.3z"/>
		</g>
		<g id="XMLID_375_">
			<rect id="XMLID_130_" x="117.6" y="135.4" class="st0" width="11.6" height="36.3"/>
			<rect id="XMLID_129_" x="129.2" y="135.4" class="st0" width="11.6" height="36.3"/>
		</g>
		<g id="XMLID_372_">
			<path id="XMLID_128_" class="st0" d="M129.2,74.2h-44c0,0-7.4,79.2,44,79.7V74.2z"/>
			<path id="XMLID_127_" class="st0" d="M129.2,74.2h44c0,0,7.4,79.2-44,79.7V74.2z"/>
		</g>
		<path id="XMLID_126_" class="st0" d="M129.2,169.5c-5.7-0.8-36.1-3.9-48,12.4C72.2,194.2,95,240.6,98,264
			c2.8,22.2-20.7,41.9-12.3,63.1c7,17.6,25.3,26.4,43.5,26.8V169.5z"/>
		<path id="XMLID_125_" class="st0" d="M129.2,169.5c5.7-0.8,36-3.9,48,12.4c9,12.3-13.8,58.8-16.8,82.2
			c-2.8,22.2,20.7,41.9,12.3,63.1c-7,17.6-25.3,26.4-43.5,26.8V169.5z"/>
		<path id="XMLID_124_" class="st0" d="M110.3,106.3c0,2.2-1.8,4-4,4c-2.2,0-4-1.8-4-4c0-2.2,1.8-4,4-4
			C108.5,102.3,110.3,104.1,110.3,106.3z"/>
		<path id="XMLID_123_" class="st0" d="M153.6,106.3c0,2.2-1.8,4-4,4c-2.2,0-4-1.8-4-4c0-2.2,1.8-4,4-4
			C151.7,102.3,153.6,104.1,153.6,106.3z"/>
		<polygon id="XMLID_122_" class="st0" points="123.7,124.1 129.3,103.6 134.8,124.1 		"/>
		<g id="XMLID_362_">
			<g id="XMLID_364_">
				<polygon id="XMLID_121_" class="st0" points="121.8,140.1 128.4,141.4 128.4,134.7 116.4,134.7 				"/>
				<polygon id="XMLID_120_" class="st0" points="128.4,134.7 128.4,141.5 134.9,140.1 140.3,134.7 				"/>
			</g>
			<polygon id="XMLID_119_" class="st0" points="140.3,134.7 133.1,131.1 128.4,132.9 128.4,132.9 123.6,131.1 116.4,134.7 
				128.4,136.4 128.4,136.4 			"/>
		</g>
	</g>
	<g id="XMLID_358_">
		<path id="XMLID_118_" class="st0" d="M129,421.1V298.8L85,300.6c0,0-7.1,41.4-0.9,120.5H129z"/>
		<path id="XMLID_117_" class="st0" d="M129.1,421.1V298.8l44.1,1.8c0,0,10.8,44.1,2.7,120.5H129.1z"/>
	</g>
	<g id="XMLID_351_">
		<path id="XMLID_116_" class="st0" d="M129.3,41.4c-59.3-0.3-48.4,50-48.4,50s22.2,2.4,48.4,2.2V41.4z"/>
		<path id="XMLID_115_" class="st0" d="M129.3,41.4c59.4-0.3,48.4,50,48.4,50s-22.2,2.4-48.4,2.2V41.4z"/>
	</g>
	<g id="XMLID_349_">
		<path id="XMLID_114_" class="st0" d="M85.2,229.5c3.3-12.2,6.9-20.9,11.9-22.5l-4.9-33.3c0,0-15.3,0.6-27.2,32.8
			C71.8,214,78.5,221.8,85.2,229.5z"/>
	</g>
	<g id="XMLID_347_">
		<path id="XMLID_113_" class="st0" d="M173.2,229.6c6.3-8.8,12.6-17.6,18.9-26.4c-11.7-29-25.9-29.6-25.9-29.6l-4.9,33.3
			C166.4,208.5,170,217.4,173.2,229.6z"/>
	</g>
	<path id="XMLID_112_" class="st0" d="M81.5,310.2l27.1,10.8l20.6-10.8V199.3L111.3,169c-10.7,0.7-23.3,3.7-30.1,12.9
		C72.2,194.2,95,240.6,98,264C100.1,280.2,85.4,295.1,81.5,310.2z"/>
	<path id="XMLID_111_" class="st0" d="M177,310.2c-3.9-15.1-18.6-30-16.6-46.2c3-23.4,25.8-69.8,16.8-82.2
		c-6.3-8.6-17.8-11.8-28.1-12.7l-19.9,31.9v109.1L150,321L177,310.2z"/>
	<path id="XMLID_110_" class="st0" d="M111.3,169c-8.8,0.6-18.9,2.7-25.9,8.5c6,18.2,7.2,38.6,5.2,58.3c3.4,10.5,6.5,20.6,7.5,28.2
		c2.1,16.2-12.7,31.1-16.6,46.2l27.1,10.8l20.6-10.8v-83.9L111.3,169z"/>
	<path id="XMLID_109_" class="st0" d="M160.4,264c0.9-7.3,3.8-16.8,7-26.8c-2.8-20.3-2.7-41.7,4.7-60.4c-6.4-4.9-15.1-6.9-23-7.7
		l-19.9,55.3v85.7L150,321l27-10.8C173.1,295.1,158.3,280.2,160.4,264z"/>
	<g id="XMLID_340_">
		<path id="XMLID_108_" class="st0" d="M93.6,170.5l17.8-3l18,33C129.5,200.5,102.6,202.9,93.6,170.5z"/>
		<path id="XMLID_107_" class="st0" d="M165.8,170.5l-17.8-3l-18,33C129.9,200.5,156.9,202.9,165.8,170.5z"/>
	</g>
</g>
<g id="XMLID_295_">
	<path id="XMLID_106_" class="st0" d="M454.3,106.2c0.8,5.1-2.1,9.7-6.3,10.3l0,0c-4.3,0.6-8.3-2.9-9.1-8l-1-6.3
		c-0.8-5,2.1-9.7,6.3-10.3l0,0c4.3-0.7,8.3,2.9,9.1,8L454.3,106.2z"/>
	<path id="XMLID_105_" class="st0" d="M523.1,105.6c-0.8,5.1,2.1,9.7,6.3,10.3l0,0c4.3,0.6,8.3-2.9,9.1-8l1-6.3
		c0.8-5.1-2.1-9.7-6.3-10.3l0,0c-4.3-0.6-8.3,2.9-9.1,8L523.1,105.6z"/>
	<g id="XMLID_334_">
		<path id="XMLID_104_" class="st0" d="M448.3,174.5c0,0-44.7,0.7-43.6,153.7l14.9-0.4c1.6-18,18.8-115.2,36.9-121L448.3,174.5z"/>
		<path id="XMLID_103_" class="st0" d="M427.2,360.1c-0.4-7.9-6.2-30.9-9-34.2l-13.5,0.9c0,8.8-3.6,15.7,0.3,24.2
			c3.2,6.8,8.1,12.6,13,18.1C425.4,377.3,427.6,367,427.2,360.1z"/>
	</g>
	<g id="XMLID_331_">
		<path id="XMLID_102_" class="st0" d="M531,175.8c0,0,42.5-0.7,41.4,152.3l-14.9-0.4c-1.6-18-17-113.4-35.1-119.2L531,175.8z"/>
		<path id="XMLID_101_" class="st0" d="M549.9,360.1c0.4-7.9,6.2-30.9,9-34.2l13.5,0.9c0,8.8,3.6,15.7-0.3,24.2
			c-3.2,6.8-8.1,12.6-13,18.1C551.7,377.3,549.5,367,549.9,360.1z"/>
	</g>
	<g id="XMLID_329_">
		<path id="XMLID_100_" class="st0" d="M424.4,297.1c6.6-35.2,19.1-86.2,32.1-90.3l-8.2-32.2c0,0-37.5,0.6-42.9,118.4
			C411.7,294.3,418.1,295.5,424.4,297.1z"/>
	</g>
	<g id="XMLID_327_">
		<path id="XMLID_99_" class="st0" d="M553.3,298.6c6.2-2.1,12.3-4.2,18.5-6.2C566.6,175.3,531,175.8,531,175.8l-8.6,32.7
			C535.5,212.7,547.2,263.9,553.3,298.6z"/>
	</g>
	<g id="XMLID_324_">
		<rect id="XMLID_98_" x="473.3" y="135.2" class="st0" width="15.2" height="36.3"/>
		<rect id="XMLID_97_" x="488.6" y="135.2" class="st0" width="15.2" height="36.3"/>
	</g>
	<g id="XMLID_321_">
		<path id="XMLID_96_" class="st0" d="M488.5,63.3l-44,12.6c0,0-7.4,79.2,44,79.7V63.3z"/>
		<path id="XMLID_95_" class="st0" d="M488.5,59.7l44.2,18c0,0,7.4,77.4-44.2,78V59.7z"/>
	</g>
	<g id="XMLID_318_">
		<path id="XMLID_94_" class="st0" d="M473.4,169.1c-0.2,0-0.3,0-0.5,0c-13.6,0.7-31.9,3.9-39.6,14.4c-9,12.3,14.9,106.7,11.7,143.5
			c-1.7,18.8,25.3,26.4,43.5,26.8V169.3c-0.6-0.1-1.6-0.2-2.8-0.2H473.4z"/>
		<path id="XMLID_93_" class="st0" d="M543.8,183.5c-7.8-10.6-26.4-13.7-40-14.4h-12.4c-1.2,0.1-2.2,0.2-2.8,0.2v184.4
			c18.2-0.4,45.6-8,43.5-26.8C528.5,295,552.8,195.8,543.8,183.5z"/>
	</g>
	<path id="XMLID_92_" class="st0" d="M483.7,352.9l-38.6-40.4c0,0-15.4,54.8,18.8,254.4h12.6L483.7,352.9z"/>
	<path id="XMLID_91_" class="st0" d="M493.4,352.9l38.6-40.4c0,0,15.4,54.8-18.8,254.4h-12.6L493.4,352.9z"/>
	<path id="XMLID_90_" class="st0" d="M476.5,567h-12.6c0,0-32.5,12.6-28.9,19.8h42.3L476.5,567z"/>
	<path id="XMLID_89_" class="st0" d="M500.7,567h12.6c0,0,32.5,12.6,28.9,19.8H500L500.7,567z"/>
	<path id="XMLID_88_" class="st0" d="M446.2,112.7c0,0-0.2-0.8,1.4-22.8c2.4-32.2,25.6-10.2,42.5-10c16.5,0.2,36.1-22.6,39.8,10.4
		c2.1,18.9,1.8,17.3,1.8,17.3s19.4-70.3-42.7-70.3C422,37.4,446.2,112.7,446.2,112.7z"/>
	<g id="XMLID_308_">
		<circle id="XMLID_87_" class="st0" cx="466.9" cy="103.6" r="4"/>
		<circle id="XMLID_86_" class="st0" cx="510.2" cy="103.6" r="4"/>
	</g>
	<path id="XMLID_85_" class="st0" d="M482.9,99.6v17.6c0,3.1,2.5,5.6,5.6,5.6c3.1,0,5.6-2.5,5.6-5.6V99.6H482.9z"/>
	<polygon id="XMLID_84_" class="st0" points="473.6,132.1 502.1,132.1 496.3,136.3 488,138.1 480.2,136.3 	"/>
	
		<rect id="XMLID_83_" x="399.7" y="292" transform="matrix(0.9909 0.1345 -0.1345 0.9909 43.9313 -52.9871)" class="st0" width="28.8" height="13.2"/>
	
		<rect id="XMLID_82_" x="549.6" y="295" transform="matrix(0.9731 -0.2302 0.2302 0.9731 -54.2909 137.9538)" class="st0" width="28.8" height="13.2"/>
	<polygon id="XMLID_81_" class="st0" points="472.3,161.3 488.6,169.3 476.5,184.7 453.1,170.9 	"/>
	<polygon id="XMLID_80_" class="st0" points="504.2,161.3 487.9,169.3 500,184.7 523.4,170.9 	"/>
	<g id="XMLID_299_">
		<path id="XMLID_79_" class="st0" d="M444.8,307c0.5,7.6,0.7,14.4,0.2,19.9c-1.7,18.8,25.3,26.4,43.5,26.8V307H444.8z"/>
		<path id="XMLID_78_" class="st0" d="M532.3,307h-43.7v46.7c18.2-0.4,45.6-8,43.5-26.8C531.6,321.8,531.7,315,532.3,307z"/>
	</g>
	<g id="XMLID_296_">
		<rect id="XMLID_77_" x="442.9" y="301.6" class="st0" width="45.6" height="12"/>
		<rect id="XMLID_76_" x="488.5" y="301.6" class="st0" width="45.6" height="12"/>
	</g>
</g>
<g id="XMLID_247_">
	<path id="XMLID_75_" class="st0" d="M382.9,138.4c0.7,4.7-1.9,9-5.9,9.6l0,0c-4,0.6-7.7-2.7-8.5-7.4l-0.9-5.9
		c-0.7-4.7,1.9-9,5.9-9.6l0,0c4-0.6,7.7,2.7,8.5,7.4L382.9,138.4z"/>
	<path id="XMLID_74_" class="st0" d="M446.8,137.9c-0.7,4.7,1.9,9,5.9,9.6l0,0c4,0.6,7.7-2.7,8.5-7.4l0.9-5.9c0.7-4.7-1.9-9-5.9-9.6
		l0,0c-4-0.6-7.7,2.7-8.5,7.4L446.8,137.9z"/>
	<g id="XMLID_290_">
		<path id="XMLID_73_" class="st0" d="M377.3,201.9c0,0-41.5,0.6-40.5,142.8l13.8-0.4c1.5-16.7,17.5-107.1,34.3-112.5L377.3,201.9z"
			/>
		<path id="XMLID_72_" class="st0" d="M357.7,374.5c-0.4-7.3-5.7-28.7-8.4-31.8l-12.5,0.8c0,8.2-3.3,14.6,0.3,22.5
			c2.9,6.3,7.5,11.7,12.1,16.9C356,390.4,358,380.9,357.7,374.5z"/>
	</g>
	<g id="XMLID_287_">
		<path id="XMLID_71_" class="st0" d="M454.2,203.2c0,0,39.5-0.6,38.4,141.6l-13.8-0.4c-1.5-16.7-15.8-105.5-32.6-110.8L454.2,203.2
			z"/>
		<path id="XMLID_70_" class="st0" d="M471.7,374.5c0.4-7.3,5.7-28.7,8.4-31.8l12.5,0.8c0,8.2,3.3,14.6-0.3,22.5
			c-2.9,6.3-7.5,11.7-12.1,16.9C473.4,390.4,471.4,380.9,471.7,374.5z"/>
	</g>
	<g id="XMLID_285_">
		<path id="XMLID_69_" class="st0" d="M349.6,280c4.2,1.2,8.4,2.2,12.6,3.2c6.3-25.1,14.4-48.7,22.7-51.4l-7.6-30
			c0,0-27,0.5-36.9,75.2C343.4,278.2,346.5,279.2,349.6,280z"/>
	</g>
	<g id="XMLID_283_">
		<path id="XMLID_68_" class="st0" d="M467.8,282.7c3.3-1.9,7-3.2,11-3.8c3.5-0.5,7-1.2,10.5-1.9c-9.4-74.2-35-73.8-35-73.8l-8,30.4
			C454.4,236.2,462,258.5,467.8,282.7z"/>
	</g>
	<g id="XMLID_280_">
		<rect id="XMLID_67_" x="400.6" y="165.4" class="st0" width="14.2" height="33.7"/>
		<rect id="XMLID_66_" x="414.7" y="165.4" class="st0" width="14.2" height="33.7"/>
	</g>
	<g id="XMLID_277_">
		<path id="XMLID_65_" class="st0" d="M414.6,98.5l-40.9,11.7c0,0-6.8,73.6,40.9,74.1V98.5z"/>
		<path id="XMLID_64_" class="st0" d="M414.6,95.2l41.1,16.7c0,0,6.8,72-41.1,72.5V95.2z"/>
	</g>
	<g id="XMLID_274_">
		<path id="XMLID_63_" class="st0" d="M400.6,196.9c-0.1,0-0.3,0-0.4,0c-12.6,0.7-29.7,3.6-36.8,13.4
			c-8.4,11.5,13.8,99.2,10.8,133.4c-1.5,17.5,23.6,24.6,40.4,24.9V197.1c-0.6-0.1-1.5-0.2-2.6-0.2H400.6z"/>
		<path id="XMLID_62_" class="st0" d="M466.1,210.3c-7.2-9.9-24.5-12.7-37.2-13.4h-11.5c-1.1,0.1-2,0.1-2.6,0.2v171.4
			c16.9-0.3,42.4-7.4,40.4-24.9C451.9,314,474.5,221.8,466.1,210.3z"/>
	</g>
	<path id="XMLID_61_" class="st0" d="M410.2,367.8l-35.9-37.5c0,0-14.3,50.9,17.5,236.5h11.7L410.2,367.8z"/>
	<path id="XMLID_60_" class="st0" d="M419.2,367.8l35.9-37.5c0,0,14.3,50.9-17.5,236.5h-11.7L419.2,367.8z"/>
	<path id="XMLID_59_" class="st0" d="M403.5,566.8h-11.7c0,0-30.3,11.7-26.9,18.4h39.3L403.5,566.8z"/>
	<path id="XMLID_58_" class="st0" d="M426,566.8h11.7c0,0,30.3,11.7,26.9,18.4h-39.3L426,566.8z"/>
	<g id="XMLID_267_">
		<circle id="XMLID_57_" class="st0" cx="394.6" cy="136" r="3.8"/>
		<circle id="XMLID_56_" class="st0" cx="434.8" cy="136" r="3.8"/>
	</g>
	<path id="XMLID_55_" class="st0" d="M409.5,132.3v16.4c0,2.9,2.3,5.2,5.2,5.2c2.9,0,5.2-2.3,5.2-5.2v-16.4H409.5z"/>
	<polygon id="XMLID_54_" class="st0" points="400.9,162.5 427.4,162.5 421.9,166.4 414.2,168.1 407,166.4 	"/>
	<g id="XMLID_262_">
		<path id="XMLID_53_" class="st0" d="M387.1,198.4c-9.5,1.8-18.9,5.2-23.8,11.9c-7.2,9.8,8,80.2,10.7,120.4h40.6V224
			C400.5,223.4,388.7,212.3,387.1,198.4z"/>
		<path id="XMLID_52_" class="st0" d="M466.1,210.3c-4.5-6.2-13-9.6-21.8-11.5c-1.8,14.1-14.1,25.2-28.6,25.2c-0.3,0-0.6,0-1,6.6
			v101.7h40.6C458.2,293.8,473.2,220,466.1,210.3z"/>
	</g>
	<g id="XMLID_259_">
		<path id="XMLID_51_" class="st0" d="M374.5,334.6c0.1,3.3,0,6.4-0.3,9.1c-1.5,17.5,23.6,24.6,40.4,24.9v-34H374.5z"/>
		<path id="XMLID_50_" class="st0" d="M454.9,334.6h-40.1v34c16.9-0.3,42.4-7.4,40.4-24.9C454.9,341.1,454.9,338,454.9,334.6z"/>
	</g>
	<path id="XMLID_49_" class="st0" d="M408.2,428.3l2-60.5l-35.9-37.5c0,0-6.7,23.8-0.8,98H408.2z"/>
	<path id="XMLID_48_" class="st0" d="M455.9,428.3c5.9-74.2-0.8-98-0.8-98l-35.9,37.5l2,60.5H455.9z"/>
	<g id="XMLID_254_">
		<rect id="XMLID_47_" x="372.3" y="330.1" class="st0" width="42.4" height="11.1"/>
		<rect id="XMLID_46_" x="414.6" y="330.1" class="st0" width="42.4" height="11.1"/>
	</g>
	<g id="XMLID_251_">
		<path id="XMLID_45_" class="st0" d="M454.8,139.7C454.8,139.8,454.8,139.8,454.8,139.7C454.8,139.8,454.8,139.9,454.8,139.7z"/>
		<path id="XMLID_44_" class="st0" d="M457.6,121.4c1.8-17.3-0.5-28.9-2.8-35.4c-3.1-9.1-9.5-17.3-12.5-26.6
			c-9.7,8.7-29.6,10-42.1,15.2c-28.9,12.2-33.8,41.9-24.8,69.9c0,0-0.2-0.7,1.3-21.2c2.2-29.9,73.1-30.3,76.5,0.4
			c1.5,13.1,1.7,15.6,1.7,16c0.2-0.7,2.2-8.5,2.6-18.5L457.6,121.4z"/>
	</g>
	<g id="XMLID_248_">
		<path id="XMLID_43_" class="st0" d="M454.8,139.7C454.8,139.8,454.8,139.8,454.8,139.7C454.8,139.8,454.8,139.9,454.8,139.7z"/>
		<path id="XMLID_42_" class="st0" d="M454.8,86c-3.1-9.1-9.5-17.3-12.5-26.6c-6.5,5.8-17.7,8.3-28.1,10.9v30.5
			c18.5-0.1,37.2,7.5,38.9,22.9c1.5,13.1,1.7,15.6,1.7,16c0.2-0.7,2.2-8.5,2.6-18.5l0.2,0.1C459.4,104.1,457.1,92.5,454.8,86z"/>
	</g>
</g>
<g id="XMLID_34_">
	<path id="XMLID_41_" class="st0" d="M173.9,129.4c0.7,4.9-2,9.3-6.1,9.9l0,0c-4.1,0.6-8-2.8-8.7-7.7l-0.9-6.1
		c-0.7-4.8,2-9.3,6.1-9.9l0,0c4.1-0.6,8,2.8,8.7,7.7L173.9,129.4z"/>
	<path id="XMLID_40_" class="st0" d="M239.9,128.8c-0.7,4.9,2,9.3,6.1,9.9l0,0c4.1,0.6,8-2.8,8.7-7.7l0.9-6.1c0.7-4.9-2-9.3-6.1-9.9
		l0,0c-4.1-0.6-8,2.8-8.7,7.7L239.9,128.8z"/>
	<g id="XMLID_242_">
		<path id="XMLID_39_" class="st0" d="M168.1,195c0,0-42.9,0.7-41.8,147.6l14.3-0.4c1.5-17.2,18.1-110.7,35.4-116.2L168.1,195z"/>
		<path id="XMLID_33_" class="st0" d="M147.9,373.3c-0.4-7.6-5.9-29.7-8.6-32.9l-13,0.9c0,8.4-3.4,15.1,0.3,23.2
			c3,6.6,7.8,12.1,12.5,17.4C146.2,389.7,148.2,379.9,147.9,373.3z"/>
	</g>
	<g id="XMLID_239_">
		<path id="XMLID_32_" class="st0" d="M247.6,196.3c0,0,40.8-0.6,39.7,146.3l-14.3-0.4c-1.5-17.2-16.4-109-33.7-114.5L247.6,196.3z"
			/>
		<path id="XMLID_31_" class="st0" d="M265.7,373.3c0.4-7.6,5.9-29.7,8.6-32.9l13,0.9c0,8.4,3.4,15.1-0.3,23.2
			c-3,6.6-7.8,12.1-12.5,17.4C267.4,389.7,265.3,379.9,265.7,373.3z"/>
	</g>
	<g id="XMLID_237_">
		<path id="XMLID_30_" class="st0" d="M145.2,312.7c6.4-33.9,18.4-82.8,30.8-86.8l-7.9-31c0,0-36,0.6-41.2,113.8
			C133,310,139.1,311.2,145.2,312.7z"/>
	</g>
	<g id="XMLID_235_">
		<path id="XMLID_29_" class="st0" d="M268.9,314.2c5.9-2,11.8-4.1,17.8-6c-5-112.4-39.1-111.9-39.1-111.9l-8.3,31.4
			C251.9,231.7,263.1,280.8,268.9,314.2z"/>
	</g>
	<g id="XMLID_232_">
		<rect id="XMLID_27_" x="192.1" y="157.2" class="st0" width="14.6" height="34.8"/>
		<rect id="XMLID_26_" x="206.8" y="157.2" class="st0" width="14.6" height="34.8"/>
	</g>
	<g id="XMLID_229_">
		<path id="XMLID_25_" class="st0" d="M206.7,88.1l-42.3,12.1c0,0-7.1,76.1,42.3,76.6V88.1z"/>
		<path id="XMLID_24_" class="st0" d="M206.7,84.7l42.4,17.3c0,0,7.1,74.3-42.4,74.9V84.7z"/>
	</g>
	<g id="XMLID_226_">
		<path id="XMLID_23_" class="st0" d="M192.2,189.8c-0.1,0-0.3,0-0.4,0c-13,0.7-30.7,3.7-38.1,13.8c-8.7,11.8,14.3,102.5,11.2,137.8
			c-1.6,18.1,24.3,25.4,41.8,25.8V190c-0.6-0.1-1.5-0.2-2.7-0.2H192.2z"/>
		<path id="XMLID_22_" class="st0" d="M259.8,203.6c-7.5-10.2-25.4-13.2-38.5-13.8h-11.9c-1.2,0.1-2.1,0.1-2.6,0.2v177.1
			c17.4-0.4,43.8-7.7,41.8-25.8C245.2,310.7,268.5,215.5,259.8,203.6z"/>
	</g>
	<path id="XMLID_21_" class="st0" d="M202.1,366.3l-37.1-38.8c0,0-14.8,52.6,18.1,244.4h12.1L202.1,366.3z"/>
	<path id="XMLID_20_" class="st0" d="M211.4,366.3l37.1-38.8c0,0,14.8,52.6-18.1,244.4h-12.1L211.4,366.3z"/>
	<path id="XMLID_19_" class="st0" d="M195.2,571.9h-12.1c0,0-31.3,12.1-27.8,19h40.6L195.2,571.9z"/>
	<path id="XMLID_18_" class="st0" d="M218.5,571.9h12.1c0,0,31.3,12.1,27.8,19h-40.6L218.5,571.9z"/>
	<path id="XMLID_17_" class="st0" d="M201.4,123.1V140c0,3,2.4,5.4,5.4,5.4c3,0,5.4-2.4,5.4-5.4v-16.9H201.4z"/>
	<polygon id="XMLID_16_" class="st0" points="192.5,154.2 219.8,154.2 214.2,158.2 206.3,160 198.8,158.2 	"/>
	
		<rect id="XMLID_15_" x="121.5" y="307.9" transform="matrix(0.9909 0.1345 -0.1345 0.9909 43.4932 -15.3409)" class="st0" width="27.6" height="12.7"/>
	
		<rect id="XMLID_14_" x="265.4" y="310.7" transform="matrix(0.9731 -0.2302 0.2302 0.9731 -65.4913 72.8032)" class="st0" width="27.6" height="12.7"/>
	<polygon id="XMLID_13_" class="st0" points="191.1,182.3 206.9,190 195.2,204.8 172.7,191.5 	"/>
	<polygon id="XMLID_12_" class="st0" points="221.8,182.3 206.1,190 217.8,204.8 240.3,191.5 	"/>
	<g id="XMLID_207_">
		<path id="XMLID_11_" class="st0" d="M164.7,322.3c0.5,7.3,0.6,13.9,0.2,19.1c-1.6,18.1,24.3,25.4,41.8,25.8v-44.9H164.7z"/>
		<path id="XMLID_10_" class="st0" d="M248.8,322.3h-42v44.9c17.4-0.4,43.8-7.7,41.8-25.8C248.1,336.5,248.2,329.9,248.8,322.3z"/>
	</g>
	<g id="XMLID_204_">
		<rect id="XMLID_9_" x="162.9" y="317.1" class="st0" width="43.8" height="11.5"/>
		<rect id="XMLID_8_" x="206.7" y="317.1" class="st0" width="43.8" height="11.5"/>
	</g>
	<path id="XMLID_7_" class="st0" d="M166.1,135.6c0,0-0.2-0.7,1.4-21.9c2.3-30.9,24.5-9.8,40.8-9.6c15.8,0.2,34.7-21.7,38.2,10
		c2,18.2,1.7,16.6,1.7,16.6s18.6-67.5-41-67.5C142.9,63.3,166.1,135.6,166.1,135.6z"/>
	<path id="XMLID_6_" class="st0" d="M206.7,63.2c-63.7,0.4-40.6,72.4-40.6,72.4s-0.2-0.7,1.4-21.9c2.2-29.9,23.2-11.1,39.2-9.6V63.2
		z"/>
	<g id="XMLID_35_">
		<circle id="XMLID_5_" class="st0" cx="186.6" cy="126.9" r="3.9"/>
		<circle id="XMLID_4_" class="st0" cx="224.7" cy="126.9" r="3.9"/>
		<path id="XMLID_36_" class="st0" d="M189.8,115.1c1.1,0,7.3,0.3,10.5,2.4c0.4,0.3,1.1,0.1,1.7,0.1c2.9,0,5.9,0,8.8,0
			c0.6,0,1.4,0,1.9-0.2c5.2-2.9,10.7-2.1,16.1-1.5c3.6,0.4,7.1,1.3,10.6,1.8c1.7,0.2,2.9,0.9,3.1,2.5c0.2,1.5-0.7,2.5-2.2,3
			c-1.8,0.6-2.4,1.9-2.5,3.6c-0.1,1.7-0.1,3.4-0.4,5.1c-0.6,4.5-3,7.6-7.6,8.7c-2.6,0.6-5.4,0.9-8.1,0.6c-6.5-0.7-9.7-4.2-10.9-11.3
			c-0.2-1.3-0.3-2.5-0.6-3.8c-0.4-2-1.7-3.1-3.8-3.2c-2.2,0-3.5,1.1-3.9,3.1c-0.4,1.5-0.5,3.1-0.8,4.6c-1.9,9-7.1,11.3-15.7,10.4
			c-7.8-0.8-11-4.6-10.9-12.3c0-2.7-0.3-4.9-3.4-6c-0.7-0.2-1.5-1.8-1.3-2.6c0.2-0.9,1.2-2.1,2.1-2.3c2.9-0.6,5.6-1.5,8.6-1.9
			C183.9,115.6,188.8,115.2,189.8,115.1z M189.5,118.2c-1.9,0-3.7,0.1-5.4,0.5c-4.8,0.9-7,3.4-7.1,8.1c0,0.9,0.2,1.8,0.2,2.8
			c0,7.5,9.1,11.6,15.8,8.2c4.9-2.5,8.2-9.6,6.8-14.8c-0.6-2.3-2.2-3.7-4.5-4.2C193.4,118.4,191.4,118.3,189.5,118.2z M222.9,118.3
			L222.9,118.3c-1.2,0-2.4-0.1-3.5,0c-4.1,0.3-6.7,2.3-7,5.8c-0.3,4.5,1,8.7,4.4,11.9c2.4,2.3,5.6,3.1,8.9,2.7
			c7.7-1,10.7-6,9.2-14.7c-0.4-2.4-2.2-4.1-4.6-4.7C227.9,118.6,225.4,118.5,222.9,118.3z"/>
	</g>
</g>
</svg>
