<?xml version="1.0" encoding="utf-8"?>
<!-- Generator: Adobe Illustrator 19.0.0, SVG Export Plug-In . SVG Version: 6.00 Build 0)  -->
<svg version="1.1" id="Calque_1" xmlns="http://www.w3.org/2000/svg" xmlns:xlink="http://www.w3.org/1999/xlink" x="0px" y="0px"
	 viewBox="401 121.1 1111.3 189.8" style="enable-background:new 401 121.1 1111.3 189.8;" xml:space="preserve">
<style type="text/css">
	.st0{fill:#76B9A7;}
	.st1{font-family:'Neris-Light';}
	.st2{font-size:191px;}
	.st3{fill:#F8BF68;}
	.st4{font-family:'Neris-Thin';}
	.st5{font-size:202.9418px;}
	.st6{fill:none;}
</style>
<text transform="matrix(1 0 0 1 669.6673 280.7583)" class="st0 st1 st2">Kudakude</text>
<text transform="matrix(0.8545 0 0 1 420 283.8568)" class="st3 st4 st5">K</text>
<text transform="matrix(-0.8329 0 0 1 651.5576 284.1635)" class="st3 st4 st5">K</text>
<path class="st6" d="M437.7,148.5l192.4,0.6"/>
<path class="st0" d="M440.6,151.4H505h103.2h23.6c5.6,0,5.6-8.8,0-8.8c-21.4,0-43,0-64.4,0c-34.4-0.1-68.8,0-103.3-0.1
	c-7.8,0-15.8,0-23.6,0C434.9,142.5,434.9,151.4,440.6,151.4z"/>
<path class="st6" d="M439.5,279.1l191.5,0.6"/>
<path class="st0" d="M440.5,286.9h64.4h103.2h23.6c5.6,0,5.6-8.8,0-8.8c-21.4,0-43,0-64.4,0c-34.4-0.1-68.8,0-103.3-0.1
	c-7.8,0-15.8,0-23.6,0C434.8,278,434.8,286.9,440.5,286.9z"/>
</svg>
