<?xml version="1.0" encoding="utf-8"?>
<!-- Generator: Adobe Illustrator 19.0.0, SVG Export Plug-In . SVG Version: 6.00 Build 0)  -->
<svg version="1.1" id="Calque_1" xmlns="http://www.w3.org/2000/svg" xmlns:xlink="http://www.w3.org/1999/xlink" x="0px" y="0px"
	 viewBox="0 0 841.9 595.3" style="enable-background:new 0 0 841.9 595.3;" xml:space="preserve">
<style type="text/css">
	.st0{fill:#F7BF67;}
	.st1{opacity:0.3;fill:#8D1D21;}
	.st2{opacity:0.5;fill:#C1282D;}
	.st3{fill:#6A696E;}
	.st4{opacity:0.5;}
	.st5{fill:#A62227;}
	.st6{fill:#333333;}
</style>
<g id="XMLID_2_">
	<g id="XMLID_3_">
		<g id="XMLID_38_">
			<rect id="XMLID_54_" x="293.8" y="355.2" class="st0" width="252.8" height="139.1"/>
			<polygon id="XMLID_53_" class="st1" points="293.8,355.2 293.8,424.1 490.8,424.1 506.4,494.4 546.6,494.4 546.6,355.2 			"/>
			<path id="XMLID_52_" class="st0" d="M546.6,336.6l0-142.6c0-68.4-55.5-123.9-123.9-123.9c-68.4,0-123.9,55.5-123.9,123.9l0,142.6
				L546.6,336.6z"/>
			<path id="XMLID_51_" class="st1" d="M527.7,128.5c4.7,14.3,7.2,29.4,7.2,45.1c0,81-67.6,148.5-148.5,148.5
				c-32.6,0-63-11-87.8-29.4l0,43.9l247.9,0l0-142.6C546.6,170,539.7,147.5,527.7,128.5z"/>
			<path id="XMLID_50_" class="st0" d="M580.8,350.2c0-7.5-6.1-13.6-13.6-13.6l-294.2,0c-7.5,0-13.6,6.1-13.6,13.6l0,50.3
				c0,7.5,6.1,13.6,13.6,13.6l294.2,0c7.5,0,13.6-6.1,13.6-13.6L580.8,350.2z"/>
			<path id="XMLID_49_" class="st2" d="M567.3,336.6l-60.9,0c0,0,4.9,39.3-15.6,58.1c-30,27.5-231.3,0-231.3,0l0,5.7
				c0,7.5,6.1,13.6,13.6,13.6l294.2,0c7.5,0,13.6-6.1,13.6-13.6l0-50.3C580.8,342.7,574.8,336.6,567.3,336.6z"/>
			<path id="XMLID_48_" class="st0" d="M326.1,516.1c0,7.5-6.1,13.6-13.6,13.6l-39.5,0c-7.5,0-13.6-6.1-13.6-13.6l0-243.3
				c0-7.5,6.1-13.6,13.6-13.6l39.5,0c7.5,0,13.6,6.1,13.6,13.6L326.1,516.1z"/>
			<path id="XMLID_47_" class="st0" d="M514.2,516.1c0,7.5,6.1,13.6,13.6,13.6l39.5,0c7.5,0,13.6-6.1,13.6-13.6l0-243.3
				c0-7.5-6.1-13.6-13.6-13.6l-39.5,0c-7.5,0-13.6,6.1-13.6,13.6L514.2,516.1z"/>
			<path id="XMLID_46_" class="st3" d="M326.1,284.7l0-11.9c0-7.5-6.1-13.6-13.6-13.6l-39.5,0c-7.5,0-13.6,6.1-13.6,13.6l0,11.9
				L326.1,284.7z"/>
			<path id="XMLID_45_" class="st3" d="M580.8,284.7l0-11.9c0-7.5-6.1-13.6-13.6-13.6l-39.5,0c-7.5,0-13.6,6.1-13.6,13.6l0,11.9
				L580.8,284.7z"/>
			<g id="XMLID_42_" class="st4">
				<path id="XMLID_44_" class="st5" d="M574.9,474.1c0,36.1-33.7,50.5-60.5,43.2c0.6,6.9,6.4,12.3,13.4,12.3l39.5,0
					c7.5,0,13.6-6.1,13.6-13.6l0-231.4h-6L574.9,474.1z"/>
				<path id="XMLID_43_" class="st6" d="M574.9,261.5l0,23.2h6l0-11.9C580.8,268.1,578.5,264,574.9,261.5z"/>
			</g>
			<g id="XMLID_39_" class="st4">
				<path id="XMLID_41_" class="st5" d="M320.1,474.1c0,36.1-33.7,50.5-60.5,43.2c0.6,6.9,6.4,12.3,13.4,12.3l39.5,0
					c7.5,0,13.6-6.1,13.6-13.6l0-231.4l-6,0L320.1,474.1z"/>
				<path id="XMLID_40_" class="st6" d="M320.1,261.5l0,23.2l6,0l0-11.9C326.1,268.1,323.7,264,320.1,261.5z"/>
			</g>
			<g id="XMLID_1_">
				<rect id="XMLID_19_" x="39" y="355.2" class="st0" width="252.8" height="139.1"/>
				<polygon id="XMLID_18_" class="st1" points="39,355.2 39,424 236,424 251.6,494.3 291.8,494.3 291.8,355.2 				"/>
				<path id="XMLID_17_" class="st0" d="M291.8,336.6l0-142.6c0-68.4-55.5-123.9-123.9-123.9C99.4,70.1,43.9,125.6,43.9,194l0,142.6
					L291.8,336.6z"/>
				<path id="XMLID_16_" class="st1" d="M272.9,128.4c4.7,14.3,7.2,29.4,7.2,45.1c0,81-67.6,148.5-148.5,148.5
					c-32.6,0-63-11-87.8-29.4l0,43.9l247.9,0l0-142.6C291.8,169.9,284.9,147.4,272.9,128.4z"/>
				<path id="XMLID_15_" class="st0" d="M326.1,350.1c0-7.5-6.1-13.6-13.6-13.6l-294.2,0c-7.5,0-13.6,6.1-13.6,13.6l0,50.3
					c0,7.5,6.1,13.6,13.6,13.6l294.2,0c7.5,0,13.6-6.1,13.6-13.6L326.1,350.1z"/>
				<path id="XMLID_14_" class="st2" d="M312.5,336.6l-60.9,0c0,0,4.9,39.3-15.6,58.1c-30,27.5-231.3,0-231.3,0l0,5.7
					c0,7.5,6.1,13.6,13.6,13.6l294.2,0c7.5,0,13.6-6.1,13.6-13.6l0-50.3C326.1,342.6,320,336.6,312.5,336.6z"/>
				<path id="XMLID_13_" class="st0" d="M71.3,516c0,7.5-6.1,13.6-13.6,13.6l-39.5,0c-7.5,0-13.6-6.1-13.6-13.6l0-243.3
					c0-7.5,6.1-13.6,13.6-13.6l39.5,0c7.5,0,13.6,6.1,13.6,13.6L71.3,516z"/>
				<path id="XMLID_12_" class="st0" d="M259.4,516c0,7.5,6.1,13.6,13.6,13.6l39.5,0c7.5,0,13.6-6.1,13.6-13.6l0-243.3
					c0-7.5-6.1-13.6-13.6-13.6l-39.5,0c-7.5,0-13.6,6.1-13.6,13.6L259.4,516z"/>
				<path id="XMLID_11_" class="st3" d="M71.3,284.6l0-11.9c0-7.5-6.1-13.6-13.6-13.6l-39.5,0c-7.5,0-13.6,6.1-13.6,13.6l0,11.9
					L71.3,284.6z"/>
				<path id="XMLID_10_" class="st3" d="M326.1,284.6l0-11.9c0-7.5-6.1-13.6-13.6-13.6l-39.5,0c-7.5,0-13.6,6.1-13.6,13.6l0,11.9
					L326.1,284.6z"/>
				<g id="XMLID_7_" class="st4">
					<path id="XMLID_9_" class="st5" d="M320.1,474c0,36.1-33.7,50.5-60.5,43.2c0.6,6.9,6.4,12.3,13.4,12.3l39.5,0
						c7.5,0,13.6-6.1,13.6-13.6l0-231.4h-6L320.1,474z"/>
					<path id="XMLID_8_" class="st6" d="M320.1,261.5l0,23.2h6l0-11.9C326.1,268,323.7,263.9,320.1,261.5z"/>
				</g>
				<g id="XMLID_4_" class="st4">
					<path id="XMLID_6_" class="st5" d="M65.3,474c0,36.1-33.7,50.5-60.5,43.2c0.6,6.9,6.4,12.3,13.4,12.3l39.5,0
						c7.5,0,13.6-6.1,13.6-13.6l0-231.4l-6,0L65.3,474z"/>
					<path id="XMLID_5_" class="st6" d="M65.3,261.5l0,23.2l6,0l0-11.9C71.3,268,68.9,263.9,65.3,261.5z"/>
				</g>
			</g>
			<g id="XMLID_20_">
				<rect id="XMLID_36_" x="548.6" y="355.2" class="st0" width="252.8" height="139.1"/>
				<polygon id="XMLID_35_" class="st1" points="548.6,355.2 548.6,424 745.6,424 761.3,494.3 801.4,494.3 801.4,355.2 				"/>
				<path id="XMLID_34_" class="st0" d="M801.4,336.6l0-142.6c0-68.4-55.5-123.9-123.9-123.9c-68.4,0-123.9,55.5-123.9,123.9
					l0,142.6L801.4,336.6z"/>
				<path id="XMLID_33_" class="st1" d="M782.6,128.4c4.7,14.3,7.2,29.4,7.2,45.1c0,81-67.6,148.5-148.5,148.5
					c-32.6,0-63-11-87.8-29.4l0,43.9l247.9,0l0-142.6C801.4,169.9,794.5,147.4,782.6,128.4z"/>
				<path id="XMLID_32_" class="st0" d="M835.7,350.1c0-7.5-6.1-13.6-13.6-13.6l-294.2,0c-7.5,0-13.6,6.1-13.6,13.6l0,50.3
					c0,7.5,6.1,13.6,13.6,13.6l294.2,0c7.5,0,13.6-6.1,13.6-13.6L835.7,350.1z"/>
				<path id="XMLID_31_" class="st2" d="M822.2,336.6l-60.9,0c0,0,4.9,39.3-15.6,58.1c-30,27.5-231.3,0-231.3,0l0,5.7
					c0,7.5,6.1,13.6,13.6,13.6l294.2,0c7.5,0,13.6-6.1,13.6-13.6l0-50.3C835.7,342.6,829.6,336.6,822.2,336.6z"/>
				<path id="XMLID_30_" class="st0" d="M581,516c0,7.5-6.1,13.6-13.6,13.6l-39.5,0c-7.5,0-13.6-6.1-13.6-13.6l0-243.3
					c0-7.5,6.1-13.6,13.6-13.6l39.5,0c7.5,0,13.6,6.1,13.6,13.6L581,516z"/>
				<path id="XMLID_29_" class="st0" d="M769.1,516c0,7.5,6.1,13.6,13.6,13.6l39.5,0c7.5,0,13.6-6.1,13.6-13.6l0-243.3
					c0-7.5-6.1-13.6-13.6-13.6l-39.5,0c-7.5,0-13.6,6.1-13.6,13.6L769.1,516z"/>
				<path id="XMLID_28_" class="st3" d="M581,284.6v-11.9c0-7.5-6.1-13.6-13.6-13.6l-39.5,0c-7.5,0-13.6,6.1-13.6,13.6l0,11.9
					L581,284.6z"/>
				<path id="XMLID_27_" class="st3" d="M835.7,284.6v-11.9c0-7.5-6.1-13.6-13.6-13.6l-39.5,0c-7.5,0-13.6,6.1-13.6,13.6v11.9
					L835.7,284.6z"/>
				<g id="XMLID_24_" class="st4">
					<path id="XMLID_26_" class="st5" d="M829.7,474c0,36.1-33.7,50.5-60.5,43.2c0.6,6.9,6.4,12.3,13.4,12.3l39.5,0
						c7.5,0,13.6-6.1,13.6-13.6l0-231.4h-6L829.7,474z"/>
					<path id="XMLID_25_" class="st6" d="M829.7,261.5l0,23.2h6v-11.9C835.7,268,833.3,263.9,829.7,261.5z"/>
				</g>
				<g id="XMLID_21_" class="st4">
					<path id="XMLID_23_" class="st5" d="M574.9,474c0,36.1-33.7,50.5-60.5,43.2c0.6,6.9,6.4,12.3,13.4,12.3l39.5,0
						c7.5,0,13.6-6.1,13.6-13.6l0-231.4l-6,0L574.9,474z"/>
					<path id="XMLID_22_" class="st6" d="M574.9,261.5l0,23.2l6,0l0-11.9C580.9,268,578.5,263.9,574.9,261.5z"/>
				</g>
			</g>
		</g>
	</g>
</g>
</svg>
