<?xml version="1.0" encoding="utf-8"?>
<!-- Generator: Adobe Illustrator 19.0.0, SVG Export Plug-In . SVG Version: 6.00 Build 0)  -->
<svg version="1.1" id="Calque_1" xmlns="http://www.w3.org/2000/svg" xmlns:xlink="http://www.w3.org/1999/xlink" x="0px" y="0px"
	 viewBox="0 0 595.3 841.9" style="enable-background:new 0 0 595.3 841.9;" xml:space="preserve">
<style type="text/css">
	.st0{fill:#F7BF67;}
	.st1{opacity:0.3;fill:#8D1D21;}
	.st2{opacity:0.5;fill:#C1282D;}
	.st3{fill:#6A696E;}
	.st4{opacity:0.5;}
	.st5{fill:#A62227;}
	.st6{fill:#333333;}
</style>
<g id="XMLID_38_">
	<rect id="XMLID_54_" x="84.2" y="497.7" class="st0" width="440.1" height="242.2"/>
	<polygon id="XMLID_53_" class="st1" points="84.2,497.7 84.2,617.6 427.2,617.6 454.4,740 524.3,740 524.3,497.7 	"/>
	<path id="XMLID_52_" class="st0" d="M524.3,465.3V217.1C524.3,98,427.7,1.4,308.5,1.4C189.3,1.4,92.7,98,92.7,217.1v248.2H524.3z"
		/>
	<path id="XMLID_51_" class="st1" d="M491.5,102.9c8.1,24.9,12.6,51.3,12.6,78.6c0,141-117.6,258.6-258.6,258.6
		c-56.8,0-109.8-19.1-152.8-51.1v76.4h431.6V217.1C524.3,175.2,512.3,136,491.5,102.9z"/>
	<path id="XMLID_50_" class="st0" d="M584,488.9c0-13-10.6-23.6-23.6-23.6H48.1c-13,0-23.6,10.6-23.6,23.6v87.6
		c0,13,10.6,23.6,23.6,23.6h512.3c13,0,23.6-10.6,23.6-23.6V488.9z"/>
	<path id="XMLID_49_" class="st2" d="M560.4,465.3h-106c0,0,8.5,68.5-27.2,101.2c-52.2,47.9-402.7,0-402.7,0v10
		c0,13,10.6,23.6,23.6,23.6h512.3c13,0,23.6-10.6,23.6-23.6v-87.6C584,475.9,573.4,465.3,560.4,465.3z"/>
	<path id="XMLID_48_" class="st0" d="M140.5,777.8c0,13-10.6,23.6-23.6,23.6H48.1c-13,0-23.6-10.6-23.6-23.6V354.2
		c0-13,10.6-23.6,23.6-23.6h68.8c13,0,23.6,10.6,23.6,23.6V777.8z"/>
	<path id="XMLID_47_" class="st0" d="M468,777.8c0,13,10.6,23.6,23.6,23.6h68.8c13,0,23.6-10.6,23.6-23.6V354.2
		c0-13-10.6-23.6-23.6-23.6h-68.8c-13,0-23.6,10.6-23.6,23.6V777.8z"/>
	<path id="XMLID_46_" class="st3" d="M140.5,374.9v-20.8c0-13-10.6-23.6-23.6-23.6H48.1c-13,0-23.6,10.6-23.6,23.6v20.8H140.5z"/>
	<path id="XMLID_45_" class="st3" d="M584,374.9v-20.8c0-13-10.6-23.6-23.6-23.6h-68.8c-13,0-23.6,10.6-23.6,23.6v20.8H584z"/>
	<g id="XMLID_42_" class="st4">
		<path id="XMLID_44_" class="st5" d="M573.6,704.6c0,62.9-58.6,87.9-105.4,75.2c1.1,12,11.1,21.5,23.4,21.5h68.8
			c13,0,23.6-10.6,23.6-23.6V374.9h-10.4V704.6z"/>
		<path id="XMLID_43_" class="st6" d="M573.6,334.6v40.3H584v-20.8C584,346,579.9,338.8,573.6,334.6z"/>
	</g>
	<g id="XMLID_39_" class="st4">
		<path id="XMLID_41_" class="st5" d="M130,704.6c0,62.9-58.6,87.9-105.4,75.2c1.1,12,11.1,21.5,23.4,21.5h68.8
			c13,0,23.6-10.6,23.6-23.6V374.9H130V704.6z"/>
		<path id="XMLID_40_" class="st6" d="M130,334.6v40.3h10.4v-20.8C140.4,346,136.3,338.8,130,334.6z"/>
	</g>
	<g id="XMLID_1_">
		<line id="XMLID_57_" class="st0" x1="80.7" y1="739.8" x2="80.7" y2="497.6"/>
		<path id="XMLID_18_" class="st1" d="M80.7,217"/>
		<path id="XMLID_6_" class="st1" d="M80.7,465.2"/>
		<path id="XMLID_3_" class="st0" d="M116.8,600c13,0,23.6-10.6,23.6-23.6v-87.6c0-13-10.6-23.6-23.6-23.6"/>
		<path id="XMLID_17_" class="st2" d="M10.8,465.2"/>
		<path id="XMLID_2_" class="st2" d="M116.8,600c13,0,23.6-10.6,23.6-23.6v-87.6c0-13-10.6-23.6-23.6-23.6"/>
		<path id="XMLID_12_" class="st0" d="M24.4,777.6c0,13,10.6,23.6,23.6,23.6h68.8c13,0,23.6-10.6,23.6-23.6V354
			c0-13-10.6-23.6-23.6-23.6H48c-13,0-23.6,10.6-23.6,23.6V777.6z"/>
		<path id="XMLID_10_" class="st3" d="M140.4,374.8V354c0-13-10.6-23.6-23.6-23.6H48c-13,0-23.6,10.6-23.6,23.6v20.8H140.4z"/>
		<g id="XMLID_7_" class="st4">
			<path id="XMLID_9_" class="st5" d="M130,704.5c0,62.9-58.6,87.9-105.4,75.2c1.1,12,11.1,21.5,23.4,21.5h68.8
				c13,0,23.6-10.6,23.6-23.6V374.8H130V704.5z"/>
			<path id="XMLID_8_" class="st6" d="M130,334.5v40.3h10.4V354C140.4,345.9,136.3,338.7,130,334.5z"/>
		</g>
	</g>
	<g id="XMLID_20_">
		<line id="XMLID_14_" class="st0" x1="527.9" y1="497.6" x2="527.9" y2="739.8"/>
		<line id="XMLID_13_" class="st1" x1="527.9" y1="497.6" x2="527.9" y2="617.5"/>
		<path id="XMLID_19_" class="st0" d="M536.4,465.2"/>
		<path id="XMLID_15_" class="st0" d="M536.4,217"/>
		<path id="XMLID_5_" class="st0" d="M491.8,465.2c-13,0-23.6,10.6-23.6,23.6v87.6c0,13,10.6,23.6,23.6,23.6"/>
		<path id="XMLID_4_" class="st2" d="M468.2,566.4v10c0,13,10.6,23.6,23.6,23.6"/>
		<path id="XMLID_30_" class="st0" d="M584.2,777.6c0,13-10.6,23.6-23.6,23.6h-68.8c-13,0-23.6-10.6-23.6-23.6V354
			c0-13,10.6-23.6,23.6-23.6h68.8c13,0,23.6,10.6,23.6,23.6V777.6z"/>
		<path id="XMLID_28_" class="st3" d="M584.2,374.8V354c0-13-10.6-23.6-23.6-23.6h-68.8c-13,0-23.6,10.6-23.6,23.6v20.8H584.2z"/>
		<g id="XMLID_21_" class="st4">
			<path id="XMLID_23_" class="st5" d="M573.7,704.5c0,62.9-58.6,87.9-105.4,75.2c1.1,12,11.1,21.5,23.4,21.5h68.8
				c13,0,23.6-10.6,23.6-23.6V374.8h-10.4V704.5z"/>
			<path id="XMLID_22_" class="st6" d="M573.7,334.5v40.3h10.4V354C584.1,345.9,580,338.7,573.7,334.5z"/>
		</g>
	</g>
</g>
</svg>
