<?xml version="1.0" encoding="utf-8"?>
<!-- Generator: Adobe Illustrator 19.0.0, SVG Export Plug-In . SVG Version: 6.00 Build 0)  -->
<svg version="1.1" id="Calque_1" xmlns="http://www.w3.org/2000/svg" xmlns:xlink="http://www.w3.org/1999/xlink" x="0px" y="0px"
	 viewBox="0 0 841.9 595.3" style="enable-background:new 0 0 841.9 595.3;" xml:space="preserve">
<style type="text/css">
	.st0{fill:#F7BF67;}
	.st1{opacity:0.3;fill:#8D1D21;}
	.st2{opacity:0.5;fill:#C1282D;}
	.st3{fill:#6A696E;}
	.st4{opacity:0.5;}
	.st5{fill:#A62227;}
	.st6{fill:#333333;}
</style>
<g id="XMLID_107_">
	<g id="XMLID_108_">
		<g id="XMLID_109_">
			<rect id="XMLID_159_" x="325.2" y="286.8" class="st0" width="172.6" height="86.8"/>
			<polygon id="XMLID_158_" class="st1" points="325.2,286.8 325.2,329.7 459.8,329.7 470.4,373.6 497.9,373.6 497.9,286.8 			"/>
			<path id="XMLID_157_" class="st0" d="M497.9,275.1l0-89c0-42.7-37.9-77.3-84.6-77.3c-46.7,0-84.6,34.6-84.6,77.3l0,89
				L497.9,275.1z"/>
			<path id="XMLID_156_" class="st1" d="M485,145.2c3.2,8.9,4.9,18.4,4.9,28.2c0,50.5-46.1,92.7-101.4,92.7
				c-22.3,0-43-6.8-59.9-18.3l0,27.4l169.3,0l0-89C497.9,171.1,493.1,157.1,485,145.2z"/>
			<path id="XMLID_155_" class="st0" d="M521.3,283.6c0-4.7-4.1-8.5-9.3-8.5l-200.9,0c-5.1,0-9.3,3.8-9.3,8.5l0,31.4
				c0,4.7,4.1,8.5,9.3,8.5l200.9,0c5.1,0,9.3-3.8,9.3-8.5L521.3,283.6z"/>
			<path id="XMLID_154_" class="st2" d="M512,275.1l-41.6,0c0,0,3.3,24.5-10.7,36.3c-20.5,17.2-157.9,0-157.9,0l0,3.6
				c0,4.7,4.1,8.5,9.3,8.5l200.9,0c5.1,0,9.3-3.8,9.3-8.5l0-31.4C521.3,278.9,517.1,275.1,512,275.1z"/>
			<path id="XMLID_153_" class="st0" d="M347.3,387.1c0,4.7-4.1,8.5-9.3,8.5l-27,0c-5.1,0-9.3-3.8-9.3-8.5l0-151.8
				c0-4.7,4.1-8.5,9.3-8.5l27,0c5.1,0,9.3,3.8,9.3,8.5L347.3,387.1z"/>
			<path id="XMLID_152_" class="st0" d="M475.8,387.1c0,4.7,4.1,8.5,9.3,8.5l27,0c5.1,0,9.3-3.8,9.3-8.5l0-151.8
				c0-4.7-4.1-8.5-9.3-8.5l-27,0c-5.1,0-9.3,3.8-9.3,8.5L475.8,387.1z"/>
			<path id="XMLID_151_" class="st3" d="M347.3,242.7l0-7.4c0-4.7-4.1-8.5-9.3-8.5l-27,0c-5.1,0-9.3,3.8-9.3,8.5l0,7.4L347.3,242.7z
				"/>
			<path id="XMLID_150_" class="st3" d="M521.3,242.7l0-7.4c0-4.7-4.1-8.5-9.3-8.5l-27,0c-5.1,0-9.3,3.8-9.3,8.5l0,7.4L521.3,242.7z
				"/>
			<g id="XMLID_147_" class="st4">
				<path id="XMLID_149_" class="st5" d="M517.2,360.9c0,22.5-23,31.5-41.3,27c0.4,4.3,4.3,7.7,9.2,7.7l27,0c5.1,0,9.3-3.8,9.3-8.5
					l0-144.4l-4.1,0L517.2,360.9z"/>
				<path id="XMLID_148_" class="st6" d="M517.2,228.3v14.5l4.1,0l0-7.4C521.3,232.4,519.7,229.8,517.2,228.3z"/>
			</g>
			<g id="XMLID_144_" class="st4">
				<path id="XMLID_146_" class="st5" d="M343.2,360.9c0,22.5-23,31.5-41.3,27c0.4,4.3,4.3,7.7,9.2,7.7l27,0c5.1,0,9.3-3.8,9.3-8.5
					l0-144.4h-4.1L343.2,360.9z"/>
				<path id="XMLID_145_" class="st6" d="M343.2,228.3l0,14.5h4.1v-7.4C347.3,232.4,345.7,229.8,343.2,228.3z"/>
			</g>
			<g id="XMLID_127_">
				<rect id="XMLID_143_" x="151.2" y="286.7" class="st0" width="172.6" height="86.8"/>
				<polygon id="XMLID_142_" class="st1" points="151.2,286.7 151.2,329.7 285.8,329.7 296.4,373.5 323.9,373.5 323.9,286.7 				"/>
				<path id="XMLID_141_" class="st0" d="M323.9,275.1l0-89c0-42.7-37.9-77.3-84.6-77.3c-46.7,0-84.6,34.6-84.6,77.3l0,89
					L323.9,275.1z"/>
				<path id="XMLID_140_" class="st1" d="M311,145.2c3.2,8.9,4.9,18.4,4.9,28.2c0,50.5-46.1,92.7-101.4,92.7
					c-22.3,0-43-6.8-59.9-18.3l0,27.4l169.3,0l0-89C323.9,171.1,319.1,157.1,311,145.2z"/>
				<path id="XMLID_139_" class="st0" d="M347.3,283.6c0-4.7-4.1-8.5-9.3-8.5l-200.9,0c-5.1,0-9.3,3.8-9.3,8.5l0,31.4
					c0,4.7,4.1,8.5,9.3,8.5l200.9,0c5.1,0,9.3-3.8,9.3-8.5L347.3,283.6z"/>
				<path id="XMLID_138_" class="st2" d="M338,275.1l-41.6,0c0,0,3.3,24.5-10.7,36.3c-20.5,17.2-157.9,0-157.9,0l0,3.6
					c0,4.7,4.1,8.5,9.3,8.5l200.9,0c5.1,0,9.3-3.8,9.3-8.5l0-31.4C347.3,278.9,343.1,275.1,338,275.1z"/>
				<path id="XMLID_137_" class="st0" d="M173.3,387.1c0,4.7-4.1,8.5-9.3,8.5l-27,0c-5.1,0-9.3-3.8-9.3-8.5l0-151.8
					c0-4.7,4.1-8.5,9.3-8.5l27,0c5.1,0,9.3,3.8,9.3,8.5L173.3,387.1z"/>
				<path id="XMLID_136_" class="st0" d="M301.8,387.1c0,4.7,4.1,8.5,9.3,8.5l27,0c5.1,0,9.3-3.8,9.3-8.5l0-151.8
					c0-4.7-4.1-8.5-9.3-8.5l-27,0c-5.1,0-9.3,3.8-9.3,8.5L301.8,387.1z"/>
				<path id="XMLID_135_" class="st3" d="M173.3,242.7l0-7.4c0-4.7-4.1-8.5-9.3-8.5l-27,0c-5.1,0-9.3,3.8-9.3,8.5l0,7.4L173.3,242.7
					z"/>
				<path id="XMLID_134_" class="st3" d="M347.3,242.7v-7.4c0-4.7-4.1-8.5-9.3-8.5l-27,0c-5.1,0-9.3,3.8-9.3,8.5l0,7.4L347.3,242.7z
					"/>
				<g id="XMLID_131_" class="st4">
					<path id="XMLID_133_" class="st5" d="M343.2,360.9c0,22.5-23,31.5-41.3,27c0.4,4.3,4.3,7.7,9.2,7.7l27,0c5.1,0,9.3-3.8,9.3-8.5
						l0-144.4l-4.1,0L343.2,360.9z"/>
					<path id="XMLID_132_" class="st6" d="M343.2,228.2l0,14.5l4.1,0v-7.4C347.3,232.3,345.7,229.8,343.2,228.2z"/>
				</g>
				<g id="XMLID_128_" class="st4">
					<path id="XMLID_130_" class="st5" d="M169.2,360.9c0,22.5-23,31.5-41.3,27c0.4,4.3,4.3,7.7,9.2,7.7l27,0c5.1,0,9.3-3.8,9.3-8.5
						l0-144.4l-4.1,0L169.2,360.9z"/>
					<path id="XMLID_129_" class="st6" d="M169.2,228.2l0,14.5l4.1,0l0-7.4C173.3,232.3,171.7,229.8,169.2,228.2z"/>
				</g>
			</g>
			<g id="XMLID_110_">
				<rect id="XMLID_126_" x="499.3" y="286.7" class="st0" width="172.6" height="86.8"/>
				<polygon id="XMLID_125_" class="st1" points="499.3,286.7 499.3,329.7 633.8,329.7 644.5,373.5 671.9,373.5 671.9,286.7 				"/>
				<path id="XMLID_124_" class="st0" d="M671.9,275.1l0-89c0-42.7-37.9-77.3-84.6-77.3c-46.7,0-84.6,34.6-84.6,77.3l0,89
					L671.9,275.1z"/>
				<path id="XMLID_123_" class="st1" d="M659.1,145.2c3.2,8.9,4.9,18.4,4.9,28.2c0,50.5-46.1,92.7-101.4,92.7
					c-22.3,0-43-6.8-59.9-18.3l0,27.4l169.3,0l0-89C671.9,171.1,667.2,157.1,659.1,145.2z"/>
				<path id="XMLID_122_" class="st0" d="M695.3,283.6c0-4.7-4.1-8.5-9.3-8.5l-200.9,0c-5.1,0-9.3,3.8-9.3,8.5l0,31.4
					c0,4.7,4.1,8.5,9.3,8.5l200.9,0c5.1,0,9.3-3.8,9.3-8.5L695.3,283.6z"/>
				<path id="XMLID_121_" class="st2" d="M686.1,275.1l-41.6,0c0,0,3.3,24.5-10.7,36.3c-20.5,17.2-157.9,0-157.9,0v3.6
					c0,4.7,4.1,8.5,9.3,8.5l200.9,0c5.1,0,9.3-3.8,9.3-8.5l0-31.4C695.3,278.9,691.2,275.1,686.1,275.1z"/>
				<path id="XMLID_120_" class="st0" d="M521.4,387.1c0,4.7-4.1,8.5-9.3,8.5l-27,0c-5.1,0-9.3-3.8-9.3-8.5l0-151.8
					c0-4.7,4.1-8.5,9.3-8.5l27,0c5.1,0,9.3,3.8,9.3,8.5L521.4,387.1z"/>
				<path id="XMLID_119_" class="st0" d="M649.8,387.1c0,4.7,4.1,8.5,9.3,8.5l27,0c5.1,0,9.3-3.8,9.3-8.5l0-151.8
					c0-4.7-4.1-8.5-9.3-8.5l-27,0c-5.1,0-9.3,3.8-9.3,8.5L649.8,387.1z"/>
				<path id="XMLID_118_" class="st3" d="M521.4,242.7l0-7.4c0-4.7-4.1-8.5-9.3-8.5l-27,0c-5.1,0-9.3,3.8-9.3,8.5l0,7.4L521.4,242.7
					z"/>
				<path id="XMLID_117_" class="st3" d="M695.3,242.7l0-7.4c0-4.7-4.1-8.5-9.3-8.5l-27,0c-5.1,0-9.3,3.8-9.3,8.5v7.4L695.3,242.7z"
					/>
				<g id="XMLID_114_" class="st4">
					<path id="XMLID_116_" class="st5" d="M691.2,360.9c0,22.5-23,31.5-41.3,27c0.4,4.3,4.3,7.7,9.2,7.7l27,0c5.1,0,9.3-3.8,9.3-8.5
						l0-144.4l-4.1,0L691.2,360.9z"/>
					<path id="XMLID_115_" class="st6" d="M691.2,228.2v14.5l4.1,0l0-7.4C695.3,232.3,693.7,229.8,691.2,228.2z"/>
				</g>
				<g id="XMLID_111_" class="st4">
					<path id="XMLID_113_" class="st5" d="M517.2,360.9c0,22.5-23,31.5-41.3,27c0.4,4.3,4.3,7.7,9.2,7.7l27,0c5.1,0,9.3-3.8,9.3-8.5
						l0-144.4h-4.1L517.2,360.9z"/>
					<path id="XMLID_112_" class="st6" d="M517.2,228.2v14.5h4.1v-7.4C521.3,232.3,519.7,229.8,517.2,228.2z"/>
				</g>
			</g>
		</g>
	</g>
</g>
<g id="XMLID_2_">
	<g id="XMLID_3_">
		<g id="XMLID_38_">
			<rect id="XMLID_54_" x="424.5" y="439.7" class="st0" width="172.6" height="86.8"/>
			<polygon id="XMLID_53_" class="st1" points="424.5,439.7 424.5,482.6 559.1,482.6 569.7,526.5 597.2,526.5 597.2,439.7 			"/>
			<path id="XMLID_52_" class="st0" d="M597.2,428l0-89c0-42.7-37.9-77.3-84.6-77.3c-46.7,0-84.6,34.6-84.6,77.3l0,89L597.2,428z"/>
			<path id="XMLID_51_" class="st1" d="M584.3,298.1c3.2,8.9,4.9,18.4,4.9,28.2c0,50.5-46.1,92.7-101.4,92.7
				c-22.3,0-43-6.8-59.9-18.3l0,27.4l169.3,0l0-89C597.2,324,592.5,310,584.3,298.1z"/>
			<path id="XMLID_50_" class="st0" d="M620.6,436.5c0-4.7-4.1-8.5-9.3-8.5l-200.9,0c-5.1,0-9.3,3.8-9.3,8.5l0,31.4
				c0,4.7,4.1,8.5,9.3,8.5l200.9,0c5.1,0,9.3-3.8,9.3-8.5L620.6,436.5z"/>
			<path id="XMLID_49_" class="st2" d="M611.3,428l-41.6,0c0,0,3.3,24.5-10.7,36.3c-20.5,17.2-157.9,0-157.9,0v3.6
				c0,4.7,4.1,8.5,9.3,8.5l200.9,0c5.1,0,9.3-3.8,9.3-8.5l0-31.4C620.6,431.8,616.4,428,611.3,428z"/>
			<path id="XMLID_48_" class="st0" d="M446.6,540c0,4.7-4.1,8.5-9.3,8.5l-27,0c-5.1,0-9.3-3.8-9.3-8.5l0-151.8
				c0-4.7,4.1-8.5,9.3-8.5l27,0c5.1,0,9.3,3.8,9.3,8.5L446.6,540z"/>
			<path id="XMLID_47_" class="st0" d="M575.1,540c0,4.7,4.1,8.5,9.3,8.5l27,0c5.1,0,9.3-3.8,9.3-8.5l0-151.8c0-4.7-4.1-8.5-9.3-8.5
				l-27,0c-5.1,0-9.3,3.8-9.3,8.5L575.1,540z"/>
			<path id="XMLID_46_" class="st3" d="M446.6,395.6l0-7.4c0-4.7-4.1-8.5-9.3-8.5l-27,0c-5.1,0-9.3,3.8-9.3,8.5l0,7.4L446.6,395.6z"
				/>
			<path id="XMLID_45_" class="st3" d="M620.6,395.6v-7.4c0-4.7-4.1-8.5-9.3-8.5l-27,0c-5.1,0-9.3,3.8-9.3,8.5v7.4L620.6,395.6z"/>
			<g id="XMLID_42_" class="st4">
				<path id="XMLID_44_" class="st5" d="M616.5,513.8c0,22.5-23,31.5-41.3,27c0.4,4.3,4.3,7.7,9.2,7.7l27,0c5.1,0,9.3-3.8,9.3-8.5
					l0-144.4h-4.1L616.5,513.8z"/>
				<path id="XMLID_43_" class="st6" d="M616.5,381.2v14.5h4.1v-7.4C620.6,385.3,619,382.7,616.5,381.2z"/>
			</g>
			<g id="XMLID_39_" class="st4">
				<path id="XMLID_41_" class="st5" d="M442.5,513.8c0,22.5-23,31.5-41.3,27c0.4,4.3,4.3,7.7,9.2,7.7l27,0c5.1,0,9.3-3.8,9.3-8.5
					l0-144.4h-4.1L442.5,513.8z"/>
				<path id="XMLID_40_" class="st6" d="M442.5,381.2l0,14.5h4.1l0-7.4C446.6,385.3,445,382.7,442.5,381.2z"/>
			</g>
			<g id="XMLID_1_">
				<rect id="XMLID_19_" x="250.6" y="439.6" class="st0" width="172.6" height="86.8"/>
				<polygon id="XMLID_18_" class="st1" points="250.6,439.6 250.6,482.6 385.1,482.6 395.7,526.4 423.2,526.4 423.2,439.6 				"/>
				<path id="XMLID_17_" class="st0" d="M423.2,428l0-89c0-42.7-37.9-77.3-84.6-77.3c-46.7,0-84.6,34.6-84.6,77.3l0,89L423.2,428z"
					/>
				<path id="XMLID_16_" class="st1" d="M410.3,298.1c3.2,8.9,4.9,18.4,4.9,28.2c0,50.5-46.1,92.7-101.4,92.7
					c-22.3,0-43-6.8-59.9-18.3l0,27.4l169.3,0l0-89C423.2,324,418.5,310,410.3,298.1z"/>
				<path id="XMLID_15_" class="st0" d="M446.6,436.5c0-4.7-4.1-8.5-9.3-8.5l-200.9,0c-5.1,0-9.3,3.8-9.3,8.5l0,31.4
					c0,4.7,4.1,8.5,9.3,8.5l200.9,0c5.1,0,9.3-3.8,9.3-8.5L446.6,436.5z"/>
				<path id="XMLID_14_" class="st2" d="M437.3,428l-41.6,0c0,0,3.3,24.5-10.7,36.3c-20.5,17.2-157.9,0-157.9,0l0,3.6
					c0,4.7,4.1,8.5,9.3,8.5l200.9,0c5.1,0,9.3-3.8,9.3-8.5l0-31.4C446.6,431.8,442.4,428,437.3,428z"/>
				<path id="XMLID_13_" class="st0" d="M272.6,540c0,4.7-4.1,8.5-9.3,8.5l-27,0c-5.1,0-9.3-3.8-9.3-8.5l0-151.8
					c0-4.7,4.1-8.5,9.3-8.5l27,0c5.1,0,9.3,3.8,9.3,8.5L272.6,540z"/>
				<path id="XMLID_12_" class="st0" d="M401.1,540c0,4.7,4.1,8.5,9.3,8.5l27,0c5.1,0,9.3-3.8,9.3-8.5l0-151.8
					c0-4.7-4.1-8.5-9.3-8.5l-27,0c-5.1,0-9.3,3.8-9.3,8.5L401.1,540z"/>
				<path id="XMLID_11_" class="st3" d="M272.6,395.6l0-7.4c0-4.7-4.1-8.5-9.3-8.5l-27,0c-5.1,0-9.3,3.8-9.3,8.5l0,7.4L272.6,395.6z
					"/>
				<path id="XMLID_10_" class="st3" d="M446.6,395.6l0-7.4c0-4.7-4.1-8.5-9.3-8.5l-27,0c-5.1,0-9.3,3.8-9.3,8.5l0,7.4L446.6,395.6z
					"/>
				<g id="XMLID_7_" class="st4">
					<path id="XMLID_9_" class="st5" d="M442.5,513.8c0,22.5-23,31.5-41.3,27c0.4,4.3,4.3,7.7,9.2,7.7l27,0c5.1,0,9.3-3.8,9.3-8.5
						l0-144.4l-4.1,0L442.5,513.8z"/>
					<path id="XMLID_8_" class="st6" d="M442.5,381.1l0,14.5l4.1,0l0-7.4C446.6,385.2,445,382.7,442.5,381.1z"/>
				</g>
				<g id="XMLID_4_" class="st4">
					<path id="XMLID_6_" class="st5" d="M268.5,513.8c0,22.5-23,31.5-41.3,27c0.4,4.3,4.3,7.7,9.2,7.7l27,0c5.1,0,9.3-3.8,9.3-8.5
						l0-144.4l-4.1,0L268.5,513.8z"/>
					<path id="XMLID_5_" class="st6" d="M268.5,381.1l0,14.5l4.1,0l0-7.4C272.6,385.2,271,382.7,268.5,381.1z"/>
				</g>
			</g>
			<g id="XMLID_20_">
				<rect id="XMLID_36_" x="598.6" y="439.6" class="st0" width="172.6" height="86.8"/>
				<polygon id="XMLID_35_" class="st1" points="598.6,439.6 598.6,482.6 733.1,482.6 743.8,526.4 771.2,526.4 771.2,439.6 				"/>
				<path id="XMLID_34_" class="st0" d="M771.2,428l0-89c0-42.7-37.9-77.3-84.6-77.3c-46.7,0-84.6,34.6-84.6,77.3l0,89L771.2,428z"
					/>
				<path id="XMLID_33_" class="st1" d="M758.4,298.1c3.2,8.9,4.9,18.4,4.9,28.2c0,50.5-46.1,92.7-101.4,92.7
					c-22.3,0-43-6.8-59.9-18.3l0,27.4l169.3,0l0-89C771.2,324,766.5,310,758.4,298.1z"/>
				<path id="XMLID_32_" class="st0" d="M794.6,436.5c0-4.7-4.1-8.5-9.3-8.5l-200.9,0c-5.1,0-9.3,3.8-9.3,8.5l0,31.4
					c0,4.7,4.1,8.5,9.3,8.5l200.9,0c5.1,0,9.3-3.8,9.3-8.5L794.6,436.5z"/>
				<path id="XMLID_31_" class="st2" d="M785.4,428l-41.6,0c0,0,3.3,24.5-10.7,36.3c-20.5,17.2-157.9,0-157.9,0v3.6
					c0,4.7,4.1,8.5,9.3,8.5l200.9,0c5.1,0,9.3-3.8,9.3-8.5l0-31.4C794.6,431.8,790.5,428,785.4,428z"/>
				<path id="XMLID_30_" class="st0" d="M620.7,540c0,4.7-4.1,8.5-9.3,8.5l-27,0c-5.1,0-9.3-3.8-9.3-8.5l0-151.8
					c0-4.7,4.1-8.5,9.3-8.5l27,0c5.1,0,9.3,3.8,9.3,8.5L620.7,540z"/>
				<path id="XMLID_29_" class="st0" d="M749.1,540c0,4.7,4.1,8.5,9.3,8.5l27,0c5.1,0,9.3-3.8,9.3-8.5l0-151.8
					c0-4.7-4.1-8.5-9.3-8.5l-27,0c-5.1,0-9.3,3.8-9.3,8.5L749.1,540z"/>
				<path id="XMLID_28_" class="st3" d="M620.7,395.6v-7.4c0-4.7-4.1-8.5-9.3-8.5l-27,0c-5.1,0-9.3,3.8-9.3,8.5l0,7.4L620.7,395.6z"
					/>
				<path id="XMLID_27_" class="st3" d="M794.6,395.6v-7.4c0-4.7-4.1-8.5-9.3-8.5l-27,0c-5.1,0-9.3,3.8-9.3,8.5v7.4L794.6,395.6z"/>
				<g id="XMLID_24_" class="st4">
					<path id="XMLID_26_" class="st5" d="M790.5,513.8c0,22.5-23,31.5-41.3,27c0.4,4.3,4.3,7.7,9.2,7.7l27,0c5.1,0,9.3-3.8,9.3-8.5
						l0-144.4h-4.1L790.5,513.8z"/>
					<path id="XMLID_25_" class="st6" d="M790.5,381.1l0,14.5h4.1v-7.4C794.6,385.2,793,382.7,790.5,381.1z"/>
				</g>
				<g id="XMLID_21_" class="st4">
					<path id="XMLID_23_" class="st5" d="M616.5,513.8c0,22.5-23,31.5-41.3,27c0.4,4.3,4.3,7.7,9.2,7.7l27,0c5.1,0,9.3-3.8,9.3-8.5
						l0-144.4h-4.1L616.5,513.8z"/>
					<path id="XMLID_22_" class="st6" d="M616.5,381.1l0,14.5h4.1l0-7.4C620.6,385.2,619,382.7,616.5,381.1z"/>
				</g>
			</g>
		</g>
	</g>
</g>
<g id="XMLID_37_">
	<g id="XMLID_55_">
		<g id="XMLID_56_">
			<rect id="XMLID_106_" x="250.5" y="436" class="st0" width="172.6" height="86.8"/>
			<polygon id="XMLID_105_" class="st1" points="250.5,436 250.5,479 385.1,479 395.7,522.9 423.1,522.9 423.1,436 			"/>
			<path id="XMLID_104_" class="st0" d="M423.1,424.4l0-89c0-42.7-37.9-77.3-84.6-77.3c-46.7,0-84.6,34.6-84.6,77.3l0,89
				L423.1,424.4z"/>
			<path id="XMLID_103_" class="st1" d="M410.3,294.5c3.2,8.9,4.9,18.4,4.9,28.2c0,50.5-46.1,92.7-101.4,92.7
				c-22.3,0-43-6.8-59.9-18.3l0,27.4l169.3,0l0-89C423.1,320.4,418.4,306.4,410.3,294.5z"/>
			<path id="XMLID_102_" class="st0" d="M446.6,432.9c0-4.7-4.1-8.5-9.3-8.5l-200.9,0c-5.1,0-9.3,3.8-9.3,8.5l0,31.4
				c0,4.7,4.1,8.5,9.3,8.5l200.9,0c5.1,0,9.3-3.8,9.3-8.5L446.6,432.9z"/>
			<path id="XMLID_101_" class="st2" d="M437.3,424.4l-41.6,0c0,0,3.3,24.5-10.7,36.3c-20.5,17.2-157.9,0-157.9,0v3.6
				c0,4.7,4.1,8.5,9.3,8.5l200.9,0c5.1,0,9.3-3.8,9.3-8.5l0-31.4C446.6,428.2,442.4,424.4,437.3,424.4z"/>
			<path id="XMLID_100_" class="st0" d="M272.6,536.4c0,4.7-4.1,8.5-9.3,8.5l-27,0c-5.1,0-9.3-3.8-9.3-8.5l0-151.8
				c0-4.7,4.1-8.5,9.3-8.5l27,0c5.1,0,9.3,3.8,9.3,8.5L272.6,536.4z"/>
			<path id="XMLID_99_" class="st0" d="M401.1,536.4c0,4.7,4.1,8.5,9.3,8.5l27,0c5.1,0,9.3-3.8,9.3-8.5l0-151.8
				c0-4.7-4.1-8.5-9.3-8.5l-27,0c-5.1,0-9.3,3.8-9.3,8.5L401.1,536.4z"/>
			<path id="XMLID_98_" class="st3" d="M272.6,392l0-7.4c0-4.7-4.1-8.5-9.3-8.5l-27,0c-5.1,0-9.3,3.8-9.3,8.5l0,7.4L272.6,392z"/>
			<path id="XMLID_97_" class="st3" d="M446.6,392l0-7.4c0-4.7-4.1-8.5-9.3-8.5l-27,0c-5.1,0-9.3,3.8-9.3,8.5v7.4L446.6,392z"/>
			<g id="XMLID_94_" class="st4">
				<path id="XMLID_96_" class="st5" d="M442.5,510.2c0,22.5-23,31.5-41.3,27c0.4,4.3,4.3,7.7,9.2,7.7l27,0c5.1,0,9.3-3.8,9.3-8.5
					l0-144.4l-4.1,0L442.5,510.2z"/>
				<path id="XMLID_95_" class="st6" d="M442.5,377.6l0,14.5l4.1,0l0-7.4C446.6,381.7,444.9,379.1,442.5,377.6z"/>
			</g>
			<g id="XMLID_91_" class="st4">
				<path id="XMLID_93_" class="st5" d="M268.5,510.2c0,22.5-23,31.5-41.3,27c0.4,4.3,4.3,7.7,9.2,7.7l27,0c5.1,0,9.3-3.8,9.3-8.5
					l0-144.4h-4.1L268.5,510.2z"/>
				<path id="XMLID_92_" class="st6" d="M268.5,377.6l0,14.5h4.1l0-7.4C272.6,381.7,271,379.1,268.5,377.6z"/>
			</g>
			<g id="XMLID_74_">
				<rect id="XMLID_90_" x="76.5" y="436" class="st0" width="172.6" height="86.8"/>
				<polygon id="XMLID_89_" class="st1" points="76.5,436 76.5,479 211.1,479 221.7,522.8 249.2,522.8 249.2,436 				"/>
				<path id="XMLID_88_" class="st0" d="M249.2,424.4l0-89c0-42.7-37.9-77.3-84.6-77.3c-46.7,0-84.6,34.6-84.6,77.3l0,89
					L249.2,424.4z"/>
				<path id="XMLID_87_" class="st1" d="M236.3,294.5c3.2,8.9,4.9,18.4,4.9,28.2c0,50.5-46.1,92.7-101.4,92.7
					c-22.3,0-43-6.8-59.9-18.3l0,27.4l169.3,0l0-89C249.2,320.4,244.4,306.3,236.3,294.5z"/>
				<path id="XMLID_86_" class="st0" d="M272.6,432.8c0-4.7-4.1-8.5-9.3-8.5l-200.9,0c-5.1,0-9.3,3.8-9.3,8.5l0,31.4
					c0,4.7,4.1,8.5,9.3,8.5l200.9,0c5.1,0,9.3-3.8,9.3-8.5L272.6,432.8z"/>
				<path id="XMLID_85_" class="st2" d="M263.3,424.4l-41.6,0c0,0,3.3,24.5-10.7,36.3c-20.5,17.2-157.9,0-157.9,0l0,3.6
					c0,4.7,4.1,8.5,9.3,8.5l200.9,0c5.1,0,9.3-3.8,9.3-8.5l0-31.4C272.6,428.2,268.4,424.4,263.3,424.4z"/>
				<path id="XMLID_84_" class="st0" d="M98.6,536.4c0,4.7-4.1,8.5-9.3,8.5l-27,0c-5.1,0-9.3-3.8-9.3-8.5l0-151.8
					c0-4.7,4.1-8.5,9.3-8.5l27,0c5.1,0,9.3,3.8,9.3,8.5L98.6,536.4z"/>
				<path id="XMLID_83_" class="st0" d="M227.1,536.4c0,4.7,4.1,8.5,9.3,8.5l27,0c5.1,0,9.3-3.8,9.3-8.5l0-151.8
					c0-4.7-4.1-8.5-9.3-8.5l-27,0c-5.1,0-9.3,3.8-9.3,8.5L227.1,536.4z"/>
				<path id="XMLID_82_" class="st3" d="M98.6,392l0-7.4c0-4.7-4.1-8.5-9.3-8.5l-27,0c-5.1,0-9.3,3.8-9.3,8.5l0,7.4L98.6,392z"/>
				<path id="XMLID_81_" class="st3" d="M272.6,392l0-7.4c0-4.7-4.1-8.5-9.3-8.5l-27,0c-5.1,0-9.3,3.8-9.3,8.5l0,7.4L272.6,392z"/>
				<g id="XMLID_78_" class="st4">
					<path id="XMLID_80_" class="st5" d="M268.5,510.2c0,22.5-23,31.5-41.3,27c0.4,4.3,4.3,7.7,9.2,7.7l27,0c5.1,0,9.3-3.8,9.3-8.5
						l0-144.4h-4.1L268.5,510.2z"/>
					<path id="XMLID_79_" class="st6" d="M268.5,377.5l0,14.5h4.1l0-7.4C272.6,381.6,271,379,268.5,377.5z"/>
				</g>
				<g id="XMLID_75_" class="st4">
					<path id="XMLID_77_" class="st5" d="M94.5,510.2c0,22.5-23,31.5-41.3,27c0.4,4.3,4.3,7.7,9.2,7.7l27,0c5.1,0,9.3-3.8,9.3-8.5
						l0-144.4h-4.1L94.5,510.2z"/>
					<path id="XMLID_76_" class="st6" d="M94.5,377.5l0,14.5h4.1l0-7.4C98.6,381.6,97,379,94.5,377.5z"/>
				</g>
			</g>
			<g id="XMLID_57_">
				<rect id="XMLID_73_" x="424.6" y="436" class="st0" width="172.6" height="86.8"/>
				<polygon id="XMLID_72_" class="st1" points="424.6,436 424.6,479 559.1,479 569.8,522.8 597.2,522.8 597.2,436 				"/>
				<path id="XMLID_71_" class="st0" d="M597.2,424.4l0-89c0-42.7-37.9-77.3-84.6-77.3c-46.7,0-84.6,34.6-84.6,77.3l0,89
					L597.2,424.4z"/>
				<path id="XMLID_70_" class="st1" d="M584.3,294.5c3.2,8.9,4.9,18.4,4.9,28.2c0,50.5-46.1,92.7-101.4,92.7
					c-22.3,0-43-6.8-59.9-18.3l0,27.4l169.3,0l0-89C597.2,320.4,592.5,306.3,584.3,294.5z"/>
				<path id="XMLID_69_" class="st0" d="M620.6,432.8c0-4.7-4.1-8.5-9.3-8.5l-200.9,0c-5.1,0-9.3,3.8-9.3,8.5l0,31.4
					c0,4.7,4.1,8.5,9.3,8.5l200.9,0c5.1,0,9.3-3.8,9.3-8.5L620.6,432.8z"/>
				<path id="XMLID_68_" class="st2" d="M611.3,424.4l-41.6,0c0,0,3.3,24.5-10.7,36.3c-20.5,17.2-157.9,0-157.9,0v3.6
					c0,4.7,4.1,8.5,9.3,8.5l200.9,0c5.1,0,9.3-3.8,9.3-8.5l0-31.4C620.6,428.2,616.5,424.4,611.3,424.4z"/>
				<path id="XMLID_67_" class="st0" d="M446.7,536.4c0,4.7-4.1,8.5-9.3,8.5l-27,0c-5.1,0-9.3-3.8-9.3-8.5l0-151.8
					c0-4.7,4.1-8.5,9.3-8.5l27,0c5.1,0,9.3,3.8,9.3,8.5L446.7,536.4z"/>
				<path id="XMLID_66_" class="st0" d="M575.1,536.4c0,4.7,4.1,8.5,9.3,8.5l27,0c5.1,0,9.3-3.8,9.3-8.5l0-151.8
					c0-4.7-4.1-8.5-9.3-8.5l-27,0c-5.1,0-9.3,3.8-9.3,8.5L575.1,536.4z"/>
				<path id="XMLID_65_" class="st3" d="M446.7,392l0-7.4c0-4.7-4.1-8.5-9.3-8.5l-27,0c-5.1,0-9.3,3.8-9.3,8.5v7.4L446.7,392z"/>
				<path id="XMLID_64_" class="st3" d="M620.6,392l0-7.4c0-4.7-4.1-8.5-9.3-8.5l-27,0c-5.1,0-9.3,3.8-9.3,8.5l0,7.4L620.6,392z"/>
				<g id="XMLID_61_" class="st4">
					<path id="XMLID_63_" class="st5" d="M616.5,510.2c0,22.5-23,31.5-41.3,27c0.4,4.3,4.3,7.7,9.2,7.7l27,0c5.1,0,9.3-3.8,9.3-8.5
						l0-144.4l-4.1,0L616.5,510.2z"/>
					<path id="XMLID_62_" class="st6" d="M616.5,377.5l0,14.5l4.1,0l0-7.4C620.6,381.6,619,379,616.5,377.5z"/>
				</g>
				<g id="XMLID_58_" class="st4">
					<path id="XMLID_60_" class="st5" d="M442.5,510.2c0,22.5-23,31.5-41.3,27c0.4,4.3,4.3,7.7,9.2,7.7l27,0c5.1,0,9.3-3.8,9.3-8.5
						l0-144.4h-4.1L442.5,510.2z"/>
					<path id="XMLID_59_" class="st6" d="M442.5,377.5l0,14.5h4.1l0-7.4C446.6,381.6,445,379,442.5,377.5z"/>
				</g>
			</g>
		</g>
	</g>
</g>
</svg>
