<?xml version="1.0" encoding="utf-8"?>
<!-- Generator: Adobe Illustrator 19.0.0, SVG Export Plug-In . SVG Version: 6.00 Build 0)  -->
<svg version="1.1" id="Layer_1" xmlns="http://www.w3.org/2000/svg" xmlns:xlink="http://www.w3.org/1999/xlink" x="0px" y="0px"
	 viewBox="0 0 900 900" style="enable-background:new 0 0 900 900;" xml:space="preserve">
<style type="text/css">
	.st0{fill:#F8BF68;}
	.st1{fill:#97B1B2;}
	.st2{fill:#FFFFFF;}
	.st3{fill:#422B27;}
	.st4{opacity:0.5;}
	.st5{fill:#667D7F;}
	.st6{fill:#F8BF68;stroke:#F8BF68;stroke-width:4;stroke-linejoin:round;stroke-miterlimit:10;}
	.st7{fill:#FFB287;}
	.st8{fill:#2BA1C1;}
</style>
<g>
	<path class="st0" d="M534.3,809.1c8,8.2,7.6,4.1,8.1,9.7c0.3,4.2,0.8,6.7,0.3,12.3c-1.5,16.1-5,34.6-5.2,35.3
		c-0.4,1.7-5.4,3.1-8,1.5c-2.1-1.3-6.5-28.6-6.5-28.1L534.3,809.1z"/>
	<g>
		<path class="st0" d="M375.9,678.3c0.4,10,0.9,20.3,1.5,30.9c2.3,41.3,6.2,85.9,12.6,129.3c1.2,8.4,8.5,14.5,16.8,14.5
			c0.8,0,1.6,0,2.5-0.2c9.3-1.4,15.7-10,14.3-19.3c-5.5-37.3-9.1-75.5-11.4-111.7c-1.1-16.8-1.9-33.1-2.5-48.7
			c-2.8-74-0.8-131.3-0.5-140.1c1.3-7.1,8.4-44.8,13.7-66.5c2.2-9.1-3.3-18.3-12.4-20.5c-9.1-2.2-18.3,3.3-20.6,12.4
			c-6.1,24.8-14,67.8-14.4,69.6l-0.2,1.2l0,1.2C375.2,531.4,372.5,594.9,375.9,678.3z"/>
		<path class="st0" d="M375.9,678.3c0.4,10,0.9,20.3,1.5,30.9c7,5.7,18,10.3,34.8,12.7c-1.1-16.8-1.9-33.1-2.5-48.7L375.9,678.3z"/>
	</g>
	<g>
		<path class="st0" d="M452,439.2c0.1,1.4,4.3,101.1,22.3,228.4c2.1,14.9,4.4,30.2,6.9,45.7c5.8,36.2,12.7,73.9,21,111.5
			c1.8,8.1,9,13.5,16.9,13.4c1.1,0,2.2-0.1,3.3-0.4c9.2-2,15-11.1,13-20.2c-7.3-33.6-13.6-67.2-19-99.8c-2.8-17.3-5.5-34.2-7.8-50.7
			C490.4,539.6,486,439.2,486,437.8c-0.4-9.4-8.4-16.7-17.7-16.3C458.9,421.9,451.7,429.8,452,439.2z"/>
		<path class="st0" d="M474.4,667.6c2.1,14.9,4.4,30.2,6.9,45.7c7.8,2.9,19.5,4.9,35.1,4.5c-2.8-17.3-5.5-34.2-7.8-50.7
			C499.1,667.4,485.7,667.5,474.4,667.6z"/>
	</g>
	<g>
		<path class="st0" d="M362.5,211.3c0,0.1-0.1,0.2-0.1,0.2S362.5,211.4,362.5,211.3z"/>
		<path class="st0" d="M525.9,449.6c0,16.6-1.1,32.8-1.1,45.2l3.1,193.3c0,4.5-8.5,8.4-21.7,11.4c-23.3,5.4-61,8.2-91.7,7.3
			c-3.7-0.1-7.3-0.3-10.8-0.5c-4.7-0.3-9-0.8-12.8-1.4c-22.2-3.5-30.5-11.4-30.5-16.7l12.4-228.2c0-35.1-1.4-112.5-1.4-158
			c-0.3-23.4-3.6-39.1-6.5-59.5c-2.1-15.2-2.9-29.7,5.2-42.3c2.9-4.5,7-8.8,12.6-12.8c11.3-8,27.5-10.8,36.6-11.7l1.5-1
			c4.8,0,9.7,0.1,10,0.1c15.5,0,28.2,4.3,38.4,11.7c3.5,2.5,6.8,5.4,9.7,8.6c9.3,10.1,16,23.1,20.5,37.5c4.2,13.3,1.7,27.8,2.8,42.1
			c0,0.1,0,0.2,0,0.3c3,39.2,4.9,72.1,5.9,90.4c0.5,8.7,0.8,14.1,0.9,15.3c8.9,9.1,13.3,23.2,15.3,39.1c0.8,6.3,1.3,12.9,1.5,19.6
			C525.9,442.8,525.9,446.2,525.9,449.6z"/>
		<path class="st0" d="M530.8,449.6c0,16.6-1.1,32.8-1.1,45.2L527.8,688c0,4.5-8.5,8.4-21.7,11.4c0.4-52.2,0.2-211.1-0.1-228
			c-1-49-11.2-61.7-24.4-66.3c-7-2.5-46.4,24.7-50.4,24.4c0,0,62.6-51,81.9-64.2c0.5,8.7,0.8,14.1,0.9,15.3
			c8.9,9.1,13.3,23.2,15.3,39.1c0.8,6.3,1.3,12.9,1.5,19.6C530.8,442.8,530.8,446.2,530.8,449.6z"/>
		<path class="st0" d="M421.7,228.2c8.7-4,24.9-12.5,33.3-15.2c11-3.5,24.1,0,27.2,10.2c3.1,10.2,14.6,16.7,15.8,16.1
			c1.2-0.6-0.8-7.3-0.8-7.3s-3.5-22.1-13.1-28c-9.6-5.9-35.3-6.5-35.3-6.5c-4.3,3.1-13.3,12.7-16.4,16.1c-3.1,3.4-13.3,9.3-13.3,9.3
			L421.7,228.2z"/>
		<path class="st0" d="M387.6,298.5c-5-0.4-15.5-0.4-19-2.7c-3.5-2.3-9.1-8.9-6.6-21.6c2.5-12.7,3.9-23,3.1-29.8
			c-0.8-6.8,7,0.2,11.2,3.7c4.1,3.5,16.1,13.2,16.1,13.2c5.2,3.7,5,3.3,6.2,10.1S387.6,298.5,387.6,298.5z"/>
		<path class="st0" d="M514,380.6c8.9,9.1,13.3,23.2,15.3,39.1c-9.2-23.1-44.6-27.6-54.2-27.6c0,0-1.9-8.1,1.2-15.5
			c3.1-7.4-1.2-52.7,0-77.5c0,0-5-32.2-5-39.7s-4.3-21.1-5-26.7c-0.6-5.6,6.8-16.1,14.3-11.8c2.4,1.4,9.7,5.8,18.8,11.4
			c4.2,13.3,6.7,27.8,7.8,42.1c0,0.1,0,0.2,0,0.3C511.6,332.7,513.6,376.8,514,380.6z"/>
		<path class="st0" d="M362,274.2c-1.1,11.9,5.6,22.4,19.4,19.1c16.1-3.3,34.2-2.2,47.8-0.5c34.1,3,38.3-30.5,38.3-30.5
			s2.8,3,8.4,11.6c-6.3,28.5-5.7,66.1-4.6,102.2c0.3,8.2-9.7,13.1-11.3-3.3c-1.5-16.4-3.7-39.5-5-47.7
			c-2.6-17.6-15.4-21.1-33.7-20.8c0,0-0.1,0-0.1,0c-0.1,0-0.1,0-0.2,0c-20.1-0.5-34.5-0.3-41.8,2.4c-8.6,3.2-9.1,10.7-9.1,10.7
			c-0.5-2.8-0.3-16.6-1.2-17.6C359.6,293.9,358.9,284.9,362,274.2z"/>
		<g>
			<path class="st0" d="M399.9,442.5c2,0,7,6.6,8.9,5.7c6.9-3.5,49-33.5,81.8-67.9c7.8-8.2,11.7-24.8,4.2-85.2
				c-4.1-33-10-64.9-10-65.2c-1.3-7.1-6.2-16.5-19-14.1c-11.7,2.3-15.6,11.6-14.2,18.7c0.1,0.3,5.3,28.7,9.2,59.3
				c6.7,51.8,4.1,65.6,3.2,68.5c-30.8,29.4-62,54.8-67.8,57.9c-6.4,3.2-11.1,8.6-7.9,15C390.5,439.9,395.1,442.5,399.9,442.5z"/>
		</g>
		<path class="st0" d="M394.5,197.1c0,5,6.4,18.2,14.7,22.5c8.2,4.3,0.2,6.6-1.2,7c-1.4,0.4-10.5-3.3-10.5-3.3
			c-2.7-3.1-12.8-14.3-12.6-15.9c0.2-1.7-0.8-8.3,0.8-10.1C387.2,195.4,394.5,197.1,394.5,197.1z"/>
		<path class="st0" d="M370,200c0.9,4.5,8.1,20.4,26.7,29.3c18.6,8.9,8.5-0.2,7.2-2.1c-1.2-1.9-13.4-14.3-13.4-14.3
			c-5.6-8.9-5.4-18.8-8.1-19.2c-2.7-0.4-9.5,3.1-10.3,3.9C371.3,198.5,370,200,370,200z"/>
	</g>
	<path class="st0" d="M422.2,818.1c7.1,9.1,7.1,5,6.9,10.6c-0.1,4.3,0.1,6.8-1.1,12.3c-3.3,15.8-8.9,33.8-9.1,34.5
		c-0.6,1.7-5.4,2-8.1,0.6c-2.7-1.4-3.3-29.1-3.3-28.6L422.2,818.1z"/>
	<path class="st0" d="M391,870.8c-16,10.7-34.9,11.2-43.6,7.8c-8.4-3.1-0.8-20.4,18-37.3c18.4-16.5,43.2-30.2,55.5-27.8
		c2.6,0.5,5.6,3.1,7,5.5c3.3,5.7,3.2,9.1,0.2,22.1C427.3,844.2,416.1,854.1,391,870.8z"/>
	<path class="st0" d="M509.2,864.9c-14.7,12.4-33.4,15.1-42.5,12.7c-8.7-2.1-3.1-20.2,13.7-39.1c16.4-18.5,39.5-34.9,52-33.9
		c2.6,0.2,5.9,2.5,7.5,4.6c3.9,5.3,4.2,8.7,2.7,21.9C542.3,834.5,532.3,845.5,509.2,864.9z"/>
	<path class="st0" d="M500.1,814.6c1.3,6-7.1,13.3-11.1,19.4c-2.5,3.8-4.5,8.4,0.2,8.8c12.4,1,22.3-5.4,29-11.5
		c18.1-16.4,19.4-16.3,17.7-22c-0.7-2.6-3.7-4.5-4.5-9.6c-0.6-4.3-6.5,0.9-6.5,0.9S499.3,810.8,500.1,814.6z"/>
	<path class="st0" d="M387.4,821.6c0.3,5.7-23,21.8-14.1,23.8c12.6,2.9,22.5-1.5,30.2-7c19.8-14.3,21.1-14.1,20.1-19.8
		c-0.4-2.7-3.2-4.9-3.4-10.1c-0.1-4.3-6.6,0.2-6.6,0.2S387.2,817.7,387.4,821.6z"/>
	<g>
		<circle class="st0" cx="452.4" cy="119.6" r="22.3"/>
		<path class="st0" d="M465.2,68.3c0-42-26.5-68.3-68.5-68.3c-42,0-27.8,26.3-27.8,68.3c0,42-12.5,69.1,28.9,76
			C442.1,151.8,465.2,110.3,465.2,68.3z"/>
		<g>
			<path class="st0" d="M325.3,55.1c3.4,27.2,23.3,37.5,37.4,38.5l27.2-92.2C353.6,0.5,321.8,27.9,325.3,55.1z"/>
			<path class="st0" d="M394.4,198c0,0,2.9,10.4,16.7,8.5c15.4-2.1,21.9-12.2,17.6-21.8c-3.5-7.8-17.2-42.1-17.2-42.1l-36.8,6.7
				L394.4,198z"/>
			<path class="st0" d="M388.9,184.1c3.5,6.4,20.9-1.6,27.3-6.9c4.6-3.9,10.1,1.9,10.1,1.9l-19.5-48.2l-37.4,8.4L388.9,184.1z"/>
			<path class="st0" d="M336.3,109.9c0,10.4,9.1,34.5,14.7,41.7c2.4,3.1,4.8,6.9,12.4,9.3c6.9,2.2,17.4,3.9,20.1,10.9
				c1.5,3.8,0.4-3.6,3.3-4.1c30.3-5.3,51.8-36.9,51.8-62.4l-6.8-35.4c0-27.8-22-50.6-48.9-50.6c-26.9,0-48.9,22.8-48.9,50.6
				L336.3,109.9z"/>
			<path class="st0" d="M334.7,109.2c1,29.2,12.7,54.5,43,53.4c35.2-1.2,44.9-36.6,44-64.4L420,74.1c-1-27.8-12.6-55.8-39.5-54.9
				c-26.9,0.9-48.1,24.5-47.1,52.3L334.7,109.2z"/>
			<path class="st1" d="M355.3,97.7c0,6.8-5.6,12.4-12.4,12.4h-11.6c-6.8,0-12.4-5.6-12.4-12.4V85.3c0-6.8,5.6-12.4,12.4-12.4h11.6
				c6.8,0,12.4,5.6,12.4,12.4V97.7z"/>
			<path class="st0" d="M334.7,109.6c0,0.2-3.5,0.4-7.9,0.4s-7.9-5.6-7.9-12.4V85.3c0-6.8,3.3-12.4,7.2-12.4c4,0,7.4,5.6,7.7,12.4
				l0.4,11.5C334.5,103.6,334.7,109.4,334.7,109.6z"/>
			<path class="st2" d="M341,88.8c0,3.7,3,6.7,6.8,6.7s6.8-3,6.8-6.7c0-3.7-3-5.1-6.8-5.1C344,83.6,341,85,341,88.8z"/>
			<ellipse class="st3" cx="346.2" cy="89" rx="4.5" ry="4.5"/>
			<g class="st4">
				<path class="st2" d="M350.5,107.9l-13.9,2.2l-16-32.2l1.1-1.9l11.4-3.1C338.5,83.8,347.4,101.7,350.5,107.9z"/>
			</g>
			<g>
				<path class="st5" d="M354.6,88c-0.3,0-0.7-0.1-0.9-0.3c0,0-2.5-1.6-6.6-1.6c-3,0-6.4,1.4-6.5,1.4c-0.9,0.4-1.9,0-2.2-0.9
					c-0.4-0.9,0-1.9,0.9-2.2c0.2-0.1,4.1-1.7,7.8-1.7c5.3,0,8.4,2.1,8.5,2.1c0.8,0.5,1,1.6,0.5,2.4C355.7,87.7,355.1,88,354.6,88z"
					/>
			</g>
		</g>
		<path class="st0" d="M353.8,128.4c1,0.6,6.7,1.8,13.5,1.8c6.7,0,18.1-0.7,20.8-1.7v-2.8h-34.6L353.8,128.4z"/>
		<path class="st6" d="M355.3,97.7c0,6.8-5.6,12.4-12.4,12.4h-11.6c-6.8,0-12.4-5.6-12.4-12.4V85.3c0-6.8,5.6-12.4,12.4-12.4h11.6
			c6.8,0,12.4,5.6,12.4,12.4V97.7z"/>
	</g>
	<path class="st0" d="M398,419.4c4.3-6,15.2-11.2,25.1-2.2c9.3,8.5,5.9,21.1-2.5,24.8l-18.3-10.5C401.4,430.5,394.5,424.2,398,419.4
		z"/>
	<g>
		<g>
			<path class="st0" d="M314.7,900c-0.5,0-0.9,0-1.4-0.1c-5.4-0.8-9.2-5.8-8.5-11.2l60.1-434.4c0.8-5.4,5.8-9.2,11.2-8.5
				c5.4,0.8,9.2,5.8,8.5,11.2l-60.1,434.4C323.8,896.4,319.5,900,314.7,900z"/>
		</g>
		<g>
			<path class="st0" d="M374.9,463c-0.2,0-0.4,0-0.5,0c-5.5-0.3-9.7-5-9.4-10.4c0.6-11.1,16.1-26.7,36.3-25.6
				c13.3,0.7,24.1,7.2,25.3,8c4.6,2.9,6,9,3.1,13.7c-2.9,4.6-9,6-13.7,3.1c0,0-7.5-4.5-15.8-5c-9.4-0.5-14.6,6.2-15.5,7.9
				C383.9,459.4,379.8,463,374.9,463z M384.6,454.9L384.6,454.9L384.6,454.9z M384.8,453.6C384.8,453.6,384.8,453.7,384.8,453.6
				C384.8,453.7,384.8,453.6,384.8,453.6z"/>
		</g>
		<g>
			<path class="st0" d="M373.6,453.9c-1.8,0-3.6-0.5-5.2-1.5l-14.6-9c-4.7-2.9-6.1-9-3.3-13.6c2.9-4.7,9-6.1,13.6-3.3l14.6,9
				c4.7,2.9,6.1,9,3.3,13.6C380.2,452.3,377,453.9,373.6,453.9z"/>
		</g>
	</g>
	<path class="st0" d="M420.7,432.1c-11.6-3.6-15,6.1-16,13c-1.3,8.5-15.8,9.7-23.4,8.2c-13.5-2.6-14.3-16.1-8.9-25.5
		c6.5-11.4,10.2-12.6,21.2-10.9c6.9,1,12.7,1.5,17.9,3.3C419.8,423,420.7,432.1,420.7,432.1z"/>
	<path class="st0" d="M431.3,258.4c0,0-19.6-4.8-23.1-24.6c-1.3-7.3,1.1-11.7,1.8-11.6C426,223.7,432.5,236.8,431.3,258.4z"/>
	<g>
		<g>
			<path class="st7" d="M463.5,541.2c0.6,0,0.6-1,0-1C462.8,540.2,462.8,541.2,463.5,541.2L463.5,541.2z"/>
		</g>
	</g>
	<g>
		<g>
			<path class="st7" d="M485.7,624.1c0.6,0,0.6-1,0-1C485,623.1,485,624.1,485.7,624.1L485.7,624.1z"/>
		</g>
	</g>
	<g>
		<g>
			<path class="st7" d="M485.7,624.1c0.6,0,0.6-1,0-1C485,623.1,485,624.1,485.7,624.1L485.7,624.1z"/>
		</g>
	</g>
	<g>
		<g>
			<path class="st7" d="M485.7,624.1c0.6,0,0.6-1,0-1C485,623.1,485,624.1,485.7,624.1L485.7,624.1z"/>
		</g>
	</g>
</g>
<path class="st8" d="M740.8,502.2c0.1-2.6,0.1-5.2-0.1-10.3C740.8,495.4,740.8,498.8,740.8,502.2z"/>
<g>
	<g>
		<path class="st7" d="M656.3,384c0.6,0,0.6-1,0-1C655.7,383,655.7,384,656.3,384L656.3,384z"/>
	</g>
</g>
<g>
	<g>
		<path class="st7" d="M649.8,382.3c0.6,0,0.6-1,0-1C649.2,381.3,649.2,382.3,649.8,382.3L649.8,382.3z"/>
	</g>
</g>
<g>
	<g>
		<path class="st7" d="M615.7,409.9c0.6,0,0.6-1,0-1C615.1,408.9,615.1,409.9,615.7,409.9L615.7,409.9z"/>
	</g>
</g>
<g>
	<g>
		<path class="st7" d="M617.4,371c0.6,0,0.6-1,0-1C616.7,370,616.7,371,617.4,371L617.4,371z"/>
	</g>
</g>
<g>
	<g>
		<path class="st7" d="M622.2,315.8c0.6,0,0.6-1,0-1C621.6,314.8,621.6,315.8,622.2,315.8L622.2,315.8z"/>
	</g>
</g>
</svg>
