<?xml version="1.0" encoding="utf-8"?>
<!-- Generator: Adobe Illustrator 19.0.0, SVG Export Plug-In . SVG Version: 6.00 Build 0)  -->
<svg version="1.1" id="Layer_1" xmlns="http://www.w3.org/2000/svg" xmlns:xlink="http://www.w3.org/1999/xlink" x="0px" y="0px"
	 viewBox="-51 -198.2 496.2 496.2" style="enable-background:new -51 -198.2 496.2 496.2;" xml:space="preserve">
<style type="text/css">
	.st0{fill:#F8BF68;}
	.st1{fill:#FFFFFF;}
</style>
<path class="st0" d="M197.1-198.2C60.1-198.2-51-87.1-51,49.9C-51,186.9,60.1,298,197.1,298c137,0,248.1-111.1,248.1-248.1
	C445.2-87.1,334.1-198.2,197.1-198.2z"/>
<path class="st1" d="M274,81.7c-4.5-2.1-10.6-3.1-18.1-3.1h-6.3V-34.7c0-17-7.4-25.5-22.3-25.5c-4.6,0-8.5,1.5-11.8,4.6
	c-3.3,3.1-7.4,8-12.5,14.9L125.4,63.1c-2.1,2.8-4,5.2-5.4,7.2c-1.5,2-2.9,4-4.2,6.1c-1.4,2.1-2.4,4.1-3.1,6c-0.7,1.9-1,3.8-1,5.6
	c0,7.2,2.3,12.9,7,17.1c4.6,4.2,11.6,6.3,20.9,6.3H213v27.2c0,7.3,1.7,12.9,5.1,16.6s7.8,5.6,13.3,5.6c5.6,0,10-1.8,13.3-5.5
	c3.3-3.7,5-9.3,5-16.8v-27.2h8.9c7.4,0,13-1.3,16.7-3.9c3.7-2.6,5.6-6.7,5.6-12.4C280.8,88.3,278.5,83.8,274,81.7z M213,78.7h-63
	l63-85.1V78.7z"/>
</svg>
