<?xml version="1.0" encoding="utf-8"?>
<!-- Generator: Adobe Illustrator 19.0.0, SVG Export Plug-In . SVG Version: 6.00 Build 0)  -->
<svg version="1.1" id="Layer_1" xmlns="http://www.w3.org/2000/svg" xmlns:xlink="http://www.w3.org/1999/xlink" x="0px" y="0px"
	 viewBox="-51 -198.2 496.2 496.2" style="enable-background:new -51 -198.2 496.2 496.2;" xml:space="preserve">
<style type="text/css">
	.st0{fill:#F8BF68;stroke:#F8BF68;stroke-miterlimit:10;}
	.st1{fill:#FFFFFF;stroke:#F8BF68;stroke-miterlimit:10;}
</style>
<path class="st0" d="M197.1-198.2C60.1-198.2-51-87.1-51,49.9C-51,186.9,60.1,298,197.1,298c137,0,248.1-111.1,248.1-248.1
	C445.2-87.1,334.1-198.2,197.1-198.2z"/>
<path class="st1" d="M227.8-52.7c-3.1-4-7.3-6-12.5-6c-4.6,0-7.7,0.9-9.4,2.6c-1.7,1.8-5.2,6.4-10.7,14.1
	c-5.5,7.6-11.7,14.5-18.8,20.7c-7.1,6.2-16.5,12-28.3,17.6c-7.9,3.7-13.4,6.7-16.6,9.1c-3.1,2.3-4.7,6-4.7,11
	c0,4.3,1.6,8.1,4.8,11.4c3.2,3.3,6.8,4.9,10.9,4.9c8.6,0,25.3-9.5,50.1-28.6v133.3c0,7.8,1.8,13.7,5.4,17.7c3.6,4,8.4,6,14.4,6
	c13.4,0,20.1-9.8,20.1-29.4V-36.2C232.5-43.2,230.9-48.7,227.8-52.7z"/>
</svg>
